<svg width="92" height="55" viewBox="0 0 92 55" fill="none" xmlns="http://www.w3.org/2000/svg">
<path d="M81.3011 45.2224H70.8164C65.2531 45.2224 60.1177 28.0903 58.6199 22.6581C57.5501 20.7778 58.192 18.2706 60.3317 17.226C62.2575 16.1813 64.6112 16.8081 65.895 18.4795V4.69027C65.895 2.39205 67.8208 0.511719 70.1745 0.511719C72.5282 0.511719 74.4539 2.39205 74.4539 4.69027V13.6742C74.8819 13.4653 75.5238 13.2563 76.1657 13.2563C78.3055 13.2563 80.0173 14.7188 80.2312 16.5992C80.6592 16.3903 81.3011 16.1814 81.943 16.1814C83.6548 16.1814 84.9387 17.017 85.5806 18.2706C86.2225 17.8528 86.8644 17.6439 87.7203 17.6439C90.074 17.6439 91.9998 19.5242 91.9998 21.8224V33.1046C91.5718 34.1492 87.2923 45.2224 81.3011 45.2224ZM62.2575 19.1063C62.0435 19.1063 61.6155 19.1063 61.4016 19.3153C60.5457 19.7331 60.3317 20.7778 60.7596 21.4046C60.7596 21.4046 60.7596 21.6135 60.9736 21.6135C63.7553 31.6421 68.4627 42.5064 70.8164 42.5064H81.3011C84.7247 42.5064 88.3622 34.9849 89.0041 33.1046V22.0313C89.0041 21.1956 88.3622 20.3599 87.2924 20.3599C86.4365 20.3599 85.5806 20.9867 85.5806 22.0313C85.5806 22.6581 84.9386 23.2849 84.2967 23.2849C83.6548 23.2849 83.0129 22.6581 83.0129 22.0313V20.3599C83.0129 19.5242 82.371 18.6885 81.3011 18.6885C80.4452 18.6885 79.5893 19.3153 79.5893 20.3599C79.5893 20.9867 78.9474 21.6135 78.3055 21.6135C77.6636 21.6135 77.0216 20.9867 77.0216 20.3599V17.4349C77.0216 16.5992 76.3797 15.7635 75.3098 15.7635C74.4539 15.7635 73.598 16.3903 73.598 17.4349C73.598 18.0617 72.9561 18.6885 72.3142 18.6885C71.6723 18.6885 71.0304 18.0617 71.0304 17.4349V4.69027C71.0304 3.85455 70.3885 3.01884 69.3186 3.01884C68.4627 3.01884 67.6068 3.64562 67.6068 4.69027V23.076C67.6068 23.7028 67.1788 24.1206 66.7509 24.3296C66.109 24.5385 65.681 24.3295 65.2531 23.7028L62.8994 19.9421C63.3273 19.5242 62.8994 19.1063 62.2575 19.1063Z" fill="#005686"/>
<path d="M88.5851 54.6245H65.4759C64.8339 54.6245 64.192 53.9977 64.192 53.3709V43.9692C64.192 43.3424 64.8339 42.7156 65.4759 42.7156H88.5851C89.227 42.7156 89.8689 43.3424 89.8689 43.9692V53.3709C89.8689 53.9977 89.227 54.6245 88.5851 54.6245ZM66.7597 52.1174H87.3012V45.2227H66.7597V52.1174Z" fill="#005686"/>
<path d="M20.7553 45.2231H10.2707C4.06547 45.2231 0 34.1499 0 33.5231V22.2409C0 19.9427 1.92573 18.0624 4.27943 18.0624C5.13532 18.0624 5.77725 18.2713 6.41917 18.6891C7.06108 17.4356 8.55889 16.5999 10.0567 16.5999C10.6986 16.5999 11.1266 16.8088 11.7685 17.0177C12.1964 15.1374 13.9082 13.6749 15.834 13.6749C16.4759 13.6749 16.9038 13.8838 17.5458 14.0927V5.10877C17.5458 2.81055 19.4715 0.930176 21.8252 0.930176C24.1789 0.930176 26.1047 2.81055 26.1047 5.10877V18.8981C27.3885 17.2267 29.7422 16.5999 31.668 17.6445C32.7378 18.2713 33.3797 19.107 33.5937 20.1516C33.8077 21.1963 33.8077 22.241 33.1658 23.0767C31.454 28.091 26.3186 45.2231 20.7553 45.2231ZM2.56765 33.3142C3.20957 35.1946 6.84712 42.716 10.2707 42.716H20.7553C23.109 42.716 27.8164 31.8517 30.5981 21.8231C30.5981 21.8231 30.5981 21.6142 30.812 21.6142C31.24 20.7785 31.026 19.9427 30.1702 19.5249C29.3143 19.107 28.4584 19.3159 28.0304 20.1516L25.6767 23.9124C25.4627 24.3302 24.8208 24.7481 24.1789 24.5392C23.537 24.3302 23.323 23.9124 23.323 23.2856V4.89984C23.323 4.06412 22.6811 3.22841 21.6112 3.22841C20.7553 3.22841 19.8994 3.85519 19.8994 4.89984V17.6445C19.8994 18.2713 19.2575 18.8981 18.6156 18.8981C17.9737 18.8981 17.3318 18.2713 17.3318 17.6445C17.3318 16.8088 16.6899 15.9731 15.62 15.9731C14.7641 15.9731 13.9082 16.5999 13.9082 17.6445V20.5695C13.9082 21.1963 13.2663 21.8231 12.6244 21.8231C11.9824 21.8231 11.3405 21.1963 11.3405 20.5695C11.3405 19.7338 10.6986 18.8981 9.62875 18.8981C8.77286 18.8981 7.91697 19.5249 7.91697 20.5695V22.2409C7.91697 22.8677 7.27506 23.4945 6.63314 23.4945C5.99122 23.4945 5.34932 22.8677 5.34932 22.2409C5.34932 21.4052 4.7074 20.5695 3.63754 20.5695C2.56767 20.5695 1.92572 21.1963 1.92572 22.2409V33.3142H2.56765Z" fill="#005686"/>
<path d="M26.1059 54.6245H2.99684C2.35492 54.6245 1.71301 53.9977 1.71301 53.3709V43.9694C1.71301 43.3426 2.35492 42.7158 2.99684 42.7158H26.1059C26.7479 42.7158 27.3898 43.3426 27.3898 43.9694V53.3709C27.3898 53.9977 26.9618 54.6245 26.1059 54.6245ZM4.28067 52.1174H24.8221V45.2229H4.28067V52.1174Z" fill="#005686"/>
<path d="M56.927 6.36255H34.6738C34.0319 6.36255 33.39 5.73578 33.39 5.10901C33.39 4.48223 34.0319 3.85547 34.6738 3.85547H56.927C57.5689 3.85547 58.2108 4.48223 58.2108 5.10901C58.2108 5.73578 57.5689 6.36255 56.927 6.36255Z" fill="#005686"/>
<path d="M29.9642 5.10962C32.1039 5.94533 34.8856 7.19889 36.5974 8.66138L35.3135 5.10962L36.5974 1.55786C34.8856 3.02035 32.3179 4.27391 29.9642 5.10962Z" fill="#005686"/>
<path d="M61.6307 5.10962C59.491 5.94533 56.7093 7.19889 54.9976 8.66138L56.2814 5.10962L54.9976 1.55786C56.7093 3.02035 59.277 4.27391 61.6307 5.10962Z" fill="#005686"/>
</svg>
