<svg width="270" height="63" viewBox="0 0 270 63" fill="none" xmlns="http://www.w3.org/2000/svg">
<path fill-rule="evenodd" clip-rule="evenodd" d="M144.512 7.93973C144.512 8.447 144.099 8.85895 143.591 8.85895C143.083 8.85895 142.67 8.447 142.67 7.93973C142.67 7.43246 143.083 7.02051 143.591 7.02051C144.099 7.02051 144.512 7.43246 144.512 7.93973Z" fill="#282A4D"/>
<path fill-rule="evenodd" clip-rule="evenodd" d="M87.6655 38.0698H90.641C92.4324 38.0698 93.613 39.0197 93.613 40.6062C93.613 42.3153 92.1833 43.197 90.4942 43.197H88.5663V45.9921H87.6689V38.0698H87.6655ZM90.5249 42.3834C91.8421 42.3834 92.7054 41.682 92.7054 40.6164C92.7054 39.4861 91.8557 38.8971 90.5727 38.8971H88.5663V42.3834H90.5249Z" fill="#282A4D"/>
<path fill-rule="evenodd" clip-rule="evenodd" d="M94.7552 44.2763C94.7552 43.02 95.7755 42.3629 97.2632 42.3629C98.0105 42.3629 98.5326 42.4651 99.0547 42.6115V42.431C99.0547 41.3892 98.42 40.8445 97.3178 40.8445C96.6252 40.8445 96.0792 41.0148 95.5367 41.2633L95.2773 40.5483C95.9222 40.2521 96.5467 40.0513 97.41 40.0513C98.2391 40.0513 98.8841 40.276 99.3038 40.6981C99.7132 41.1067 99.918 41.6718 99.918 42.4208V45.999H99.0547V45.1274C98.6452 45.6483 97.9764 46.1249 96.9425 46.1249C95.8472 46.1181 94.7552 45.4985 94.7552 44.2763ZM99.0683 43.8439V43.2992C98.6384 43.1766 98.0685 43.0507 97.3554 43.0507C96.2669 43.0507 95.6424 43.5273 95.6424 44.2525C95.6424 44.9878 96.3215 45.4168 97.1165 45.4168C98.1948 45.4168 99.0683 44.7733 99.0683 43.8439Z" fill="#282A4D"/>
<path fill-rule="evenodd" clip-rule="evenodd" d="M101.432 45.2601L101.875 44.6132C102.465 45.1103 103.134 45.3724 103.837 45.3724C104.598 45.3724 105.291 45.0115 105.291 44.3306C105.291 43.7416 104.769 43.3671 103.817 43.3671H103.032V42.6556H103.827C104.598 42.6556 105.13 42.2607 105.13 41.6479C105.13 41.1031 104.588 40.7763 103.861 40.7763C103.281 40.7763 102.588 40.9567 102.08 41.3653L101.65 40.7525C102.264 40.2758 103.056 40.0171 103.919 40.0171C105.236 40.0171 106.041 40.6742 106.041 41.5798C106.041 42.3049 105.598 42.7237 105.1 42.928C105.748 43.1527 106.188 43.5952 106.188 44.3647C106.188 45.3043 105.315 46.1316 103.861 46.1316C102.929 46.1316 102.148 45.8354 101.432 45.2601Z" fill="#282A4D"/>
<path fill-rule="evenodd" clip-rule="evenodd" d="M108.082 40.1431H108.955V41.321C109.433 40.6197 110.126 40.0205 111.204 40.0205C112.61 40.0205 114.005 41.1304 114.005 43.0778C114.005 44.9911 112.623 46.1248 111.204 46.1248C110.112 46.1248 109.409 45.5358 108.955 44.8788V47.8101H108.082V40.1431ZM113.108 43.0641C113.108 41.6819 112.153 40.8001 111.044 40.8001C109.955 40.8001 108.921 41.716 108.921 43.0744C108.921 44.4328 109.952 45.3384 111.044 45.3384C112.176 45.3384 113.108 44.5009 113.108 43.0641Z" fill="#282A4D"/>
<path fill-rule="evenodd" clip-rule="evenodd" d="M115.431 44.2763C115.431 43.02 116.452 42.3629 117.939 42.3629C118.687 42.3629 119.209 42.4651 119.731 42.6115V42.431C119.731 41.3892 119.096 40.8445 117.994 40.8445C117.301 40.8445 116.755 41.0148 116.213 41.2633L115.953 40.5483C116.598 40.2521 117.223 40.0513 118.086 40.0513C118.915 40.0513 119.56 40.276 119.98 40.6981C120.389 41.1067 120.594 41.6718 120.594 42.4208V45.999H119.731V45.1274C119.321 45.6483 118.652 46.1249 117.619 46.1249C116.52 46.1181 115.431 45.4985 115.431 44.2763ZM119.741 43.8439V43.2992C119.311 43.1766 118.741 43.0507 118.028 43.0507C116.939 43.0507 116.315 43.5273 116.315 44.2525C116.315 44.9878 116.994 45.4168 117.789 45.4168C118.867 45.4168 119.741 44.7733 119.741 43.8439Z" fill="#282A4D"/>
<path fill-rule="evenodd" clip-rule="evenodd" d="M122.494 42.8354C122.494 40.9459 122.641 39.1347 124.685 38.6478L127.954 37.8784L128.124 38.6138L124.947 39.3968C123.733 39.7032 123.327 40.3603 123.235 41.4804C123.641 40.7893 124.415 40.2139 125.664 40.2139C127.196 40.2139 128.476 41.5145 128.476 43.1248C128.476 44.7556 127.206 46.1344 125.47 46.1344C123.685 46.131 122.494 44.8747 122.494 42.8354ZM127.565 43.1418C127.565 41.9196 126.647 40.9323 125.466 40.9323C124.251 40.9323 123.388 41.9162 123.388 43.1418C123.388 44.364 124.306 45.348 125.487 45.348C126.701 45.348 127.565 44.364 127.565 43.1418Z" fill="#282A4D"/>
<path fill-rule="evenodd" clip-rule="evenodd" d="M129.952 43.0744C129.952 41.4198 131.246 40.0171 133.017 40.0171C134.774 40.0171 136.067 41.3993 136.067 43.0744C136.067 44.729 134.764 46.1316 132.993 46.1316C131.232 46.1316 129.952 44.7494 129.952 43.0744ZM135.17 43.0744C135.17 41.8181 134.228 40.7865 132.993 40.7865C131.723 40.7865 130.85 41.8181 130.85 43.0744C130.85 44.3306 131.781 45.3486 133.017 45.3486C134.286 45.3486 135.17 44.3306 135.17 43.0744Z" fill="#282A4D"/>
<path fill-rule="evenodd" clip-rule="evenodd" d="M139.129 40.9125H137.027V40.1431H142.111V40.9125H140.013V45.9954H139.129V40.9125Z" fill="#282A4D"/>
<path fill-rule="evenodd" clip-rule="evenodd" d="M143.62 40.1431H144.493V43.517L147.707 40.1431H148.786L146.332 42.6794L148.85 45.9954H147.82L145.732 43.3127L144.493 44.5792V45.9954H143.62V40.1431Z" fill="#282A4D"/>
<path fill-rule="evenodd" clip-rule="evenodd" d="M149.768 44.2763C149.768 43.02 150.789 42.3629 152.276 42.3629C153.024 42.3629 153.546 42.4651 154.068 42.6115V42.431C154.068 41.3892 153.433 40.8445 152.331 40.8445C151.638 40.8445 151.092 41.0148 150.55 41.2633L150.291 40.5483C150.935 40.2521 151.56 40.0513 152.423 40.0513C153.252 40.0513 153.897 40.276 154.317 40.6981C154.726 41.1067 154.931 41.6718 154.931 42.4208V45.999H154.068V45.1274C153.658 45.6483 152.99 46.1249 151.956 46.1249C150.86 46.1181 149.768 45.4985 149.768 44.2763ZM154.081 43.8439V43.2992C153.652 43.1766 153.082 43.0507 152.369 43.0507C151.28 43.0507 150.656 43.5273 150.656 44.2525C150.656 44.9878 151.335 45.4168 152.13 45.4168C153.208 45.4168 154.081 44.7733 154.081 43.8439Z" fill="#282A4D"/>
<path fill-rule="evenodd" clip-rule="evenodd" d="M160.189 40.1431H161.066V44.7732L164.547 40.1431H165.4V45.9954H164.526V41.3653L161.029 45.9954H160.189V40.1431Z" fill="#282A4D"/>
<path fill-rule="evenodd" clip-rule="evenodd" d="M170.76 40.1431H175.844V45.9954H174.971V40.9125H171.634V45.9954H170.76V40.1431Z" fill="#282A4D"/>
<path fill-rule="evenodd" clip-rule="evenodd" d="M178.049 40.1431H178.922V41.321C179.4 40.6197 180.093 40.0205 181.171 40.0205C182.577 40.0205 183.972 41.1304 183.972 43.0778C183.972 44.9911 182.59 46.1248 181.171 46.1248C180.082 46.1248 179.379 45.5358 178.922 44.8788V47.8101H178.049V40.1431ZM183.075 43.0641C183.075 41.6819 182.119 40.8001 181.01 40.8001C179.922 40.8001 178.888 41.716 178.888 43.0744C178.888 44.4328 179.918 45.3384 181.01 45.3384C182.143 45.3384 183.075 44.5009 183.075 43.0641Z" fill="#282A4D"/>
<path fill-rule="evenodd" clip-rule="evenodd" d="M185.473 43.0744C185.473 41.4198 186.766 40.0171 188.537 40.0171C190.294 40.0171 191.591 41.3993 191.591 43.0744C191.591 44.729 190.288 46.1316 188.517 46.1316C186.753 46.1316 185.473 44.7494 185.473 43.0744ZM190.69 43.0744C190.69 41.8181 189.748 40.7865 188.51 40.7865C187.24 40.7865 186.367 41.8181 186.367 43.0744C186.367 44.3306 187.298 45.3486 188.534 45.3486C189.806 45.3486 190.69 44.3306 190.69 43.0744Z" fill="#282A4D"/>
<path fill-rule="evenodd" clip-rule="evenodd" d="M193.426 40.1431H194.296V44.7732L197.78 40.1431H198.633V45.9954H197.759V41.3653L194.265 45.9954H193.426V40.1431Z" fill="#282A4D"/>
<path fill-rule="evenodd" clip-rule="evenodd" d="M200.2 45.2601L200.643 44.6132C201.234 45.1103 201.903 45.3724 202.606 45.3724C203.366 45.3724 204.059 45.0115 204.059 44.3306C204.059 43.7416 203.537 43.3671 202.585 43.3671H201.8V42.6556H202.595C203.366 42.6556 203.899 42.2607 203.899 41.6479C203.899 41.1031 203.356 40.7763 202.629 40.7763C202.053 40.7763 201.357 40.9567 200.848 41.3653L200.418 40.7525C201.032 40.2758 201.824 40.0171 202.687 40.0171C204.005 40.0171 204.81 40.6742 204.81 41.5798C204.81 42.3049 204.366 42.7237 203.868 42.928C204.516 43.1527 204.957 43.5952 204.957 44.3647C204.957 45.3043 204.083 46.1316 202.629 46.1316C201.701 46.1316 200.916 45.8354 200.2 45.2601Z" fill="#282A4D"/>
<path fill-rule="evenodd" clip-rule="evenodd" d="M206.868 40.1431H209.704C210.871 40.1431 211.621 40.7218 211.621 41.6036C211.621 42.373 211.133 42.7475 210.646 42.9518C211.348 43.1425 211.939 43.5748 211.939 44.4021C211.939 45.386 211.099 45.9989 209.806 45.9989H206.868V40.1431ZM209.543 42.6556C210.246 42.6556 210.734 42.3288 210.734 41.716C210.734 41.2291 210.325 40.8887 209.564 40.8887H207.738V42.6556H209.543ZM209.693 45.2499C210.533 45.2499 211.041 44.8754 211.041 44.2659C211.041 43.7008 210.533 43.3603 209.577 43.3603H207.738V45.2499H209.693Z" fill="#282A4D"/>
<path fill-rule="evenodd" clip-rule="evenodd" d="M213.361 43.0744C213.361 41.4198 214.654 40.0171 216.425 40.0171C218.182 40.0171 219.479 41.3993 219.479 43.0744C219.479 44.729 218.175 46.1316 216.404 46.1316C214.644 46.1316 213.361 44.7494 213.361 43.0744ZM218.581 43.0744C218.581 41.8181 217.64 40.7865 216.404 40.7865C215.135 40.7865 214.261 41.8181 214.261 43.0744C214.261 44.3306 215.193 45.3486 216.428 45.3486C217.694 45.3486 218.581 44.3306 218.581 43.0744Z" fill="#282A4D"/>
<path fill-rule="evenodd" clip-rule="evenodd" d="M220.341 45.226H220.975C221.453 44.3545 221.76 43.1322 221.76 41.161V40.1431H225.937V45.226H226.82L226.684 47.456H225.957V45.9954H221.214L221.057 47.456H220.341V45.226ZM225.06 45.226V40.9125H222.596V41.7262C222.596 43.1765 222.313 44.4668 221.903 45.226H225.06Z" fill="#282A4D"/>
<path fill-rule="evenodd" clip-rule="evenodd" d="M227.892 43.0744C227.892 41.4198 229.185 40.0171 230.898 40.0171C232.01 40.0171 232.703 40.4801 233.246 41.0589L232.689 41.6479C232.225 41.161 231.679 40.7865 230.884 40.7865C229.693 40.7865 228.786 41.7943 228.786 43.0744C228.786 44.3442 229.717 45.3486 230.942 45.3486C231.69 45.3486 232.246 44.9639 232.713 44.4668L233.293 44.9979C232.703 45.655 232 46.1316 230.898 46.1316C229.185 46.1316 227.892 44.7392 227.892 43.0744Z" fill="#282A4D"/>
<path fill-rule="evenodd" clip-rule="evenodd" d="M236.608 40.9125H234.509V40.1431H239.593V40.9125H237.495V45.9954H236.608V40.9125Z" fill="#282A4D"/>
<path fill-rule="evenodd" clip-rule="evenodd" d="M241.103 40.1431H243.939C245.106 40.1431 245.857 40.7218 245.857 41.6036C245.857 42.373 245.369 42.7475 244.881 42.9518C245.584 43.1425 246.174 43.5748 246.174 44.4021C246.174 45.386 245.335 45.9989 244.041 45.9989H241.103V40.1431ZM243.782 42.6556C244.485 42.6556 244.973 42.3288 244.973 41.716C244.973 41.2291 244.563 40.8887 243.802 40.8887H241.974V42.6556H243.782ZM243.929 45.2499C244.768 45.2499 245.277 44.8754 245.277 44.2659C245.277 43.7008 244.768 43.3603 243.813 43.3603H241.974V45.2499H243.929Z" fill="#282A4D"/>
<path fill-rule="evenodd" clip-rule="evenodd" d="M247.595 43.0744C247.595 41.4198 248.888 40.0171 250.659 40.0171C252.416 40.0171 253.713 41.3993 253.713 43.0744C253.713 44.729 252.41 46.1316 250.639 46.1316C248.878 46.1316 247.595 44.7494 247.595 43.0744ZM252.816 43.0744C252.816 41.8181 251.874 40.7865 250.639 40.7865C249.369 40.7865 248.496 41.8181 248.496 43.0744C248.496 44.3306 249.427 45.3486 250.662 45.3486C251.932 45.3486 252.816 44.3306 252.816 43.0744Z" fill="#282A4D"/>
<path fill-rule="evenodd" clip-rule="evenodd" d="M87.1541 58.0543C87.1541 56.4031 88.4473 54.9971 90.1603 54.9971C91.2726 54.9971 91.9653 55.4601 92.5079 56.0389L91.9517 56.6278C91.4876 56.141 90.9417 55.7665 90.1466 55.7665C88.9557 55.7665 88.0481 56.7742 88.0481 58.0543C88.0481 59.3242 88.9796 60.3286 90.2046 60.3286C90.9519 60.3286 91.5081 59.9438 91.9756 59.4468L92.5556 59.9779C91.9653 60.635 91.2624 61.1116 90.1603 61.1116C88.4473 61.1116 87.1541 59.7191 87.1541 58.0543Z" fill="#282A4D"/>
<path fill-rule="evenodd" clip-rule="evenodd" d="M94.2059 55.1226H97.0415C98.2085 55.1226 98.9592 55.7013 98.9592 56.5831C98.9592 57.3525 98.4712 57.727 97.9832 57.9313C98.6862 58.1219 99.2765 58.5543 99.2765 59.3816C99.2765 60.3655 98.4371 60.9783 97.1438 60.9783H94.2059V55.1226ZM96.8811 57.6351C97.584 57.6351 98.072 57.3083 98.072 56.6955C98.072 56.2086 97.6659 55.8682 96.905 55.8682H95.076V57.6351H96.8811ZM97.0312 60.2259C97.8707 60.2259 98.3791 59.8514 98.3791 59.242C98.3791 58.6769 97.8707 58.3364 96.9152 58.3364H95.076V60.2259H97.0312Z" fill="#282A4D"/>
<path fill-rule="evenodd" clip-rule="evenodd" d="M100.729 58.0543C100.729 56.3555 101.92 54.9971 103.544 54.9971C105.281 54.9971 106.278 56.3793 106.278 58.0986C106.278 58.1769 106.278 58.2688 106.267 58.405H101.613C101.739 59.6374 102.644 60.3524 103.677 60.3524C104.483 60.3524 105.049 60.0256 105.527 59.5251L106.073 60.0119C105.483 60.669 104.769 61.1116 103.657 61.1116C102.043 61.1116 100.729 59.8758 100.729 58.0543ZM105.39 57.7037C105.288 56.638 104.677 55.7324 103.517 55.7324C102.507 55.7324 101.736 56.57 101.613 57.7037H105.39Z" fill="#282A4D"/>
<path fill-rule="evenodd" clip-rule="evenodd" d="M109.373 55.892H107.275V55.1226H112.356V55.892H110.257V60.9749H109.373V55.892Z" fill="#282A4D"/>
<path fill-rule="evenodd" clip-rule="evenodd" d="M113.312 58.0543C113.312 56.4031 114.605 54.9971 116.376 54.9971C118.133 54.9971 119.43 56.3793 119.43 58.0543C119.43 59.7089 118.126 61.1116 116.355 61.1116C114.591 61.1116 113.312 59.7294 113.312 58.0543ZM118.529 58.0543C118.529 56.7981 117.587 55.7665 116.352 55.7665C115.083 55.7665 114.209 56.7981 114.209 58.0543C114.209 59.3106 115.141 60.3286 116.376 60.3286C117.645 60.3286 118.529 59.3106 118.529 58.0543Z" fill="#282A4D"/>
<path fill-rule="evenodd" clip-rule="evenodd" d="M120.286 60.2055H120.921C121.398 59.334 121.706 58.1117 121.706 56.1405V55.1226H125.882V60.2055H126.766L126.629 62.4355H125.903V60.9749H121.16L120.999 62.4355H120.283V60.2055H120.286ZM125.009 60.2055V55.892H122.545V56.7057C122.545 58.156 122.262 59.4463 121.852 60.2055H125.009Z" fill="#282A4D"/>
<path fill-rule="evenodd" clip-rule="evenodd" d="M128.298 55.1226H129.172V59.7527L132.656 55.1226H133.509V60.9749H132.635V56.3448L129.138 60.9749H128.298V55.1226Z" fill="#282A4D"/>
<path fill-rule="evenodd" clip-rule="evenodd" d="M135.344 58.0543C135.344 56.4031 136.637 54.9971 138.408 54.9971C140.166 54.9971 141.462 56.3793 141.462 58.0543C141.462 59.7089 140.159 61.1116 138.388 61.1116C136.627 61.1116 135.344 59.7294 135.344 58.0543ZM140.565 58.0543C140.565 56.7981 139.623 55.7665 138.388 55.7665C137.119 55.7665 136.245 56.7981 136.245 58.0543C136.245 59.3106 137.177 60.3286 138.412 60.3286C139.678 60.3286 140.565 59.3106 140.565 58.0543Z" fill="#282A4D"/>
<path fill-rule="evenodd" clip-rule="evenodd" d="M142.322 60.2055H142.957C143.434 59.334 143.742 58.1117 143.742 56.1405V55.1226H147.918V60.2055H148.802L148.665 62.4355H147.939V60.9749H143.196L143.039 62.4355H142.322V60.2055ZM147.041 60.2055V55.892H144.578V56.7057C144.578 58.156 144.294 59.4463 143.885 60.2055H147.041Z" fill="#282A4D"/>
<path fill-rule="evenodd" clip-rule="evenodd" d="M150.334 55.1226H151.204V57.6453H154.589V55.1226H155.462V60.9749H154.589V58.4147H151.204V60.9749H150.334V55.1226Z" fill="#282A4D"/>
<path fill-rule="evenodd" clip-rule="evenodd" d="M157.301 58.0543C157.301 56.4031 158.594 54.9971 160.365 54.9971C162.122 54.9971 163.419 56.3793 163.419 58.0543C163.419 59.7089 162.115 61.1116 160.344 61.1116C158.58 61.1116 157.301 59.7294 157.301 58.0543ZM162.518 58.0543C162.518 56.7981 161.576 55.7665 160.338 55.7665C159.068 55.7665 158.195 56.7981 158.195 58.0543C158.195 59.3106 159.126 60.3286 160.361 60.3286C161.634 60.3286 162.518 59.3106 162.518 58.0543Z" fill="#282A4D"/>
<path fill-rule="evenodd" clip-rule="evenodd" d="M165.256 55.1226H166.13V59.7527L169.614 55.1226H170.467V60.975H169.593V56.3448L166.099 60.975H165.26V55.1226H165.256ZM166.232 52.9028L166.836 52.7769C166.973 53.2637 167.276 53.5701 167.833 53.5701C168.389 53.5701 168.696 53.2637 168.832 52.7769L169.433 52.9028C169.297 53.7063 168.686 54.2851 167.833 54.2851C166.983 54.2817 166.369 53.7063 166.232 52.9028Z" fill="#282A4D"/>
<path fill-rule="evenodd" clip-rule="evenodd" d="M175.823 55.1226H180.907V60.9749H180.034V55.892H176.7V60.9749H175.823V55.1226Z" fill="#282A4D"/>
<path fill-rule="evenodd" clip-rule="evenodd" d="M183.113 55.1231H183.986V56.301C184.464 55.5997 185.157 55.0005 186.235 55.0005C187.641 55.0005 189.036 56.1104 189.036 58.0578C189.036 59.9711 187.654 61.1014 186.235 61.1014C185.146 61.1014 184.444 60.5124 183.986 59.8553V62.7866H183.113V55.1231ZM188.139 58.0407C188.139 56.6585 187.184 55.7767 186.075 55.7767C184.986 55.7767 183.952 56.6925 183.952 58.0509C183.952 59.4093 184.983 60.3149 186.075 60.3149C187.211 60.3184 188.139 59.4808 188.139 58.0407Z" fill="#282A4D"/>
<path fill-rule="evenodd" clip-rule="evenodd" d="M190.536 58.0543C190.536 56.4031 191.829 54.9971 193.6 54.9971C195.358 54.9971 196.654 56.3793 196.654 58.0543C196.654 59.7089 195.351 61.1116 193.58 61.1116C191.816 61.1116 190.536 59.7294 190.536 58.0543ZM195.753 58.0543C195.753 56.7981 194.812 55.7665 193.576 55.7665C192.307 55.7665 191.434 56.7981 191.434 58.0543C191.434 59.3106 192.365 60.3286 193.6 60.3286C194.87 60.3286 195.753 59.3106 195.753 58.0543Z" fill="#282A4D"/>
<path fill-rule="evenodd" clip-rule="evenodd" d="M197.511 60.2055H198.146C198.623 59.334 198.931 58.1117 198.931 56.1405V55.1226H203.107V60.2055H203.991L203.854 62.4355H203.128V60.9749H198.385L198.228 62.4355H197.511V60.2055ZM202.234 60.2055V55.892H199.77V56.7057C199.77 58.156 199.487 59.4463 199.077 60.2055H202.234Z" fill="#282A4D"/>
<path fill-rule="evenodd" clip-rule="evenodd" d="M205.22 62.5245L205.513 61.8333C205.797 61.9797 206.059 62.0478 206.431 62.0478C206.953 62.0478 207.284 61.7755 207.632 60.9482L204.967 55.1162H205.933L208.066 59.9949L209.949 55.1162H210.881L208.417 61.1661C207.919 62.3781 207.349 62.8173 206.465 62.8173C205.981 62.8207 205.616 62.7185 205.22 62.5245Z" fill="#282A4D"/>
<path fill-rule="evenodd" clip-rule="evenodd" d="M212.451 55.1226H213.324V58.493L216.535 55.1226H217.613L215.163 57.6555L217.682 60.9749H216.648L214.559 58.2922L213.324 59.5587V60.9749H212.451V55.1226Z" fill="#282A4D"/>
<path fill-rule="evenodd" clip-rule="evenodd" d="M224.216 60.9749H219.156V55.1226H220.029V60.2055H223.319V55.1226H224.192V60.2055H225.076L224.943 62.4355H224.216V60.9749Z" fill="#282A4D"/>
<path fill-rule="evenodd" clip-rule="evenodd" d="M226.61 55.1226H227.484V59.7527L230.968 55.1226H231.817V60.9749H230.944V56.3448L227.45 60.9749H226.61V55.1226Z" fill="#282A4D"/>
<path fill-rule="evenodd" clip-rule="evenodd" d="M234.023 55.1226H234.896V59.7527L238.38 55.1226H239.233V60.9749H238.36V56.3448L234.862 60.9749H234.023V55.1226Z" fill="#282A4D"/>
<path fill-rule="evenodd" clip-rule="evenodd" d="M87.6655 0.595703H113.619V32.3395H108.026V5.62759H93.2547V32.3395H87.6655V0.595703Z" fill="#282A4D"/>
<path fill-rule="evenodd" clip-rule="evenodd" d="M123.35 31.25L125.486 27.0795C126.759 27.8047 127.987 28.077 129.396 28.077C130.806 28.077 132.805 27.2157 134.395 24.6316L121.122 0.595703H127.397L137.306 19.0516L146.031 0.595703H152.074L139.667 25.4011C136.985 30.7972 133.713 32.8365 129.577 32.8365C127.12 32.8365 125.213 32.2476 123.35 31.25Z" fill="#282A4D"/>
<path fill-rule="evenodd" clip-rule="evenodd" d="M159.625 0.595703H165.579L175.263 15.6063L184.944 0.595703H190.898V32.3395H185.309V9.57343L175.263 24.5397H175.079L165.126 9.66536V32.3395H159.625V0.595703Z" fill="#282A4D"/>
<path fill-rule="evenodd" clip-rule="evenodd" d="M199.951 16.4679C199.951 7.53442 206.858 0.0512695 216.63 0.0512695C226.403 0.0512695 233.22 7.44249 233.22 16.4679C233.22 25.4014 226.311 32.8845 216.538 32.8845C206.769 32.8845 199.951 25.4899 199.951 16.4679ZM227.358 16.4679C227.358 10.2989 222.858 5.17508 216.541 5.17508C210.225 5.17508 205.813 10.2104 205.813 16.4679C205.813 22.6335 210.314 27.7607 216.634 27.7607C222.95 27.7573 227.358 22.7254 227.358 16.4679Z" fill="#282A4D"/>
<path fill-rule="evenodd" clip-rule="evenodd" d="M240.864 16.4679C240.864 7.44249 247.637 0.0512695 257.273 0.0512695C263.135 0.0512695 266.681 2.09058 269.724 4.99464L266.135 9.12092C263.589 6.76159 260.859 5.17508 257.225 5.17508C251.135 5.17508 246.726 10.1627 246.726 16.4679C246.726 22.6811 251.135 27.7607 257.225 27.7607C261.132 27.7607 263.634 26.1742 266.36 23.6344L269.953 27.2636C266.636 30.709 262.999 32.8879 257.045 32.8879C247.773 32.8845 240.864 25.6737 240.864 16.4679Z" fill="#282A4D"/>
<path fill-rule="evenodd" clip-rule="evenodd" d="M30.4614 47.6944C30.4614 48.7089 29.6356 49.5328 28.6188 49.5328C27.6019 49.5328 26.7762 48.7089 26.7762 47.6944C26.7762 46.6799 27.6019 45.856 28.6188 45.856C29.6356 45.856 30.4614 46.6764 30.4614 47.6944Z" fill="#282A4D"/>
<path d="M28.6188 9.77796C29.6364 9.77796 30.4614 8.95486 30.4614 7.93952C30.4614 6.92417 29.6364 6.10107 28.6188 6.10107C27.6011 6.10107 26.7762 6.92417 26.7762 7.93952C26.7762 8.95486 27.6011 9.77796 28.6188 9.77796Z" fill="#282A4D"/>
<path fill-rule="evenodd" clip-rule="evenodd" d="M30.4614 30.6548C30.4614 31.6694 29.6356 32.4933 28.6188 32.4933C27.6019 32.4933 26.7762 31.6694 26.7762 30.6548C26.7762 29.6403 27.6019 28.8164 28.6188 28.8164C29.6356 28.8198 30.4614 29.6403 30.4614 30.6548Z" fill="#282A4D"/>
<path d="M23.4777 26.8141C24.4954 26.8141 25.3203 25.991 25.3203 24.9757C25.3203 23.9603 24.4954 23.1372 23.4777 23.1372C22.4601 23.1372 21.6351 23.9603 21.6351 24.9757C21.6351 25.991 22.4601 26.8141 23.4777 26.8141Z" fill="#282A4D"/>
<path fill-rule="evenodd" clip-rule="evenodd" d="M24.777 47.6946C24.777 48.4129 24.1935 48.9951 23.4736 48.9951C22.7536 48.9951 22.1735 48.4129 22.1735 47.6946C22.1735 46.9762 22.757 46.394 23.4736 46.394C24.1935 46.394 24.777 46.9762 24.777 47.6946Z" fill="#282A4D"/>
<path fill-rule="evenodd" clip-rule="evenodd" d="M19.8298 24.9758C19.8298 25.6942 19.2463 26.2764 18.5263 26.2764C17.8063 26.2764 17.2263 25.6942 17.2263 24.9758C17.2263 24.2575 17.8098 23.6753 18.5263 23.6753C19.2497 23.6787 19.8298 24.2609 19.8298 24.9758Z" fill="#282A4D"/>
<path fill-rule="evenodd" clip-rule="evenodd" d="M24.777 7.93969C24.777 8.65805 24.1935 9.24022 23.4736 9.24022C22.7536 9.24022 22.1735 8.65805 22.1735 7.93969C22.1735 7.22133 22.757 6.63916 23.4736 6.63916C24.1935 6.63916 24.777 7.22133 24.777 7.93969Z" fill="#282A4D"/>
<path fill-rule="evenodd" clip-rule="evenodd" d="M24.777 30.654C24.777 31.3724 24.1935 31.9546 23.4736 31.9546C22.7536 31.9546 22.1735 31.3724 22.1735 30.654C22.1735 29.9357 22.757 29.3535 23.4736 29.3535C24.1935 29.3569 24.777 29.9391 24.777 30.654Z" fill="#282A4D"/>
<path fill-rule="evenodd" clip-rule="evenodd" d="M24.777 53.3733C24.777 54.0916 24.1935 54.6738 23.4736 54.6738C22.7536 54.6738 22.1735 54.0916 22.1735 53.3733C22.1735 52.6549 22.757 52.0728 23.4736 52.0728C24.1935 52.0728 24.777 52.6549 24.777 53.3733Z" fill="#282A4D"/>
<path fill-rule="evenodd" clip-rule="evenodd" d="M15.8186 47.6946C15.8186 48.2019 15.4057 48.6138 14.8973 48.6138C14.3889 48.6138 13.976 48.2019 13.976 47.6946C13.976 47.1873 14.3889 46.7754 14.8973 46.7754C15.4092 46.7754 15.8186 47.1873 15.8186 47.6946Z" fill="#282A4D"/>
<path fill-rule="evenodd" clip-rule="evenodd" d="M15.8186 7.93973C15.8186 8.447 15.4057 8.85895 14.8973 8.85895C14.3889 8.85895 13.976 8.447 13.976 7.93973C13.976 7.43246 14.3889 7.02051 14.8973 7.02051C15.4092 7.02051 15.8186 7.43246 15.8186 7.93973Z" fill="#282A4D"/>
<path fill-rule="evenodd" clip-rule="evenodd" d="M7.62611 7.93973C7.62611 8.447 7.21323 8.85895 6.70481 8.85895C6.19639 8.85895 5.78351 8.447 5.78351 7.93973C5.78351 7.43246 6.19639 7.02051 6.70481 7.02051C7.21323 7.02051 7.62611 7.43246 7.62611 7.93973Z" fill="#282A4D"/>
<path fill-rule="evenodd" clip-rule="evenodd" d="M11.1221 24.9759C11.1221 25.4831 10.7092 25.8951 10.2008 25.8951C9.69236 25.8951 9.27948 25.4831 9.27948 24.9759C9.27948 24.4686 9.69236 24.0566 10.2008 24.0566C10.7092 24.0566 11.1221 24.4686 11.1221 24.9759Z" fill="#282A4D"/>
<path fill-rule="evenodd" clip-rule="evenodd" d="M11.1221 53.3728C11.1221 53.8801 10.7092 54.2921 10.2008 54.2921C9.69236 54.2921 9.27948 53.8801 9.27948 53.3728C9.27948 52.8656 9.69236 52.4536 10.2008 52.4536C10.7092 52.4536 11.1221 52.8656 11.1221 53.3728Z" fill="#282A4D"/>
<path fill-rule="evenodd" clip-rule="evenodd" d="M2.79573 24.9759C2.79573 25.4831 2.38285 25.8951 1.87443 25.8951C1.36601 25.8951 0.953125 25.4831 0.953125 24.9759C0.953125 24.4686 1.36601 24.0566 1.87443 24.0566C2.38285 24.0566 2.79573 24.4686 2.79573 24.9759Z" fill="#282A4D"/>
<path fill-rule="evenodd" clip-rule="evenodd" d="M68.8878 59.0513C68.8878 60.0659 68.062 60.8898 67.0452 60.8898C66.0283 60.8898 65.2026 60.0659 65.2026 59.0513C65.2026 58.0368 66.0283 57.2129 67.0452 57.2129C68.062 57.2129 68.8878 58.0368 68.8878 59.0513Z" fill="#282A4D"/>
<path fill-rule="evenodd" clip-rule="evenodd" d="M68.8878 53.3736C68.8878 54.3881 68.062 55.212 67.0452 55.212C66.0283 55.212 65.2026 54.3881 65.2026 53.3736C65.2026 52.359 66.0283 51.5352 67.0452 51.5352C68.062 51.5352 68.8878 52.359 68.8878 53.3736Z" fill="#282A4D"/>
<path fill-rule="evenodd" clip-rule="evenodd" d="M68.8878 47.6944C68.8878 48.7089 68.062 49.5328 67.0452 49.5328C66.0283 49.5328 65.2026 48.7089 65.2026 47.6944C65.2026 46.6799 66.0283 45.856 67.0452 45.856C68.062 45.856 68.8878 46.6764 68.8878 47.6944Z" fill="#282A4D"/>
<path fill-rule="evenodd" clip-rule="evenodd" d="M68.8878 42.0123C68.8878 43.0268 68.062 43.8507 67.0452 43.8507C66.0283 43.8507 65.2026 43.0268 65.2026 42.0123C65.2026 40.9977 66.0283 40.1738 67.0452 40.1738C68.062 40.1738 68.8878 40.9977 68.8878 42.0123Z" fill="#282A4D"/>
<path fill-rule="evenodd" clip-rule="evenodd" d="M68.8878 36.3331C68.8878 37.3476 68.062 38.1715 67.0452 38.1715C66.0283 38.1715 65.2026 37.3476 65.2026 36.3331C65.2026 35.3185 66.0283 34.4946 67.0452 34.4946C68.062 34.4946 68.8878 35.3185 68.8878 36.3331Z" fill="#282A4D"/>
<path fill-rule="evenodd" clip-rule="evenodd" d="M68.8878 30.6548C68.8878 31.6694 68.062 32.4933 67.0452 32.4933C66.0283 32.4933 65.2026 31.6694 65.2026 30.6548C65.2026 29.6403 66.0283 28.8164 67.0452 28.8164C68.062 28.8164 68.8878 29.6403 68.8878 30.6548Z" fill="#282A4D"/>
<path d="M67.0452 4.09925C68.0628 4.09925 68.8878 3.27615 68.8878 2.26081C68.8878 1.24546 68.0628 0.422363 67.0452 0.422363C66.0275 0.422363 65.2026 1.24546 65.2026 2.26081C65.2026 3.27615 66.0275 4.09925 67.0452 4.09925Z" fill="#282A4D"/>
<path d="M67.0452 9.77796C68.0628 9.77796 68.8878 8.95486 68.8878 7.93952C68.8878 6.92417 68.0628 6.10107 67.0452 6.10107C66.0275 6.10107 65.2026 6.92417 65.2026 7.93952C65.2026 8.95486 66.0275 9.77796 67.0452 9.77796Z" fill="#282A4D"/>
<path d="M67.0452 15.4572C68.0628 15.4572 68.8878 14.6341 68.8878 13.6187C68.8878 12.6034 68.0628 11.7803 67.0452 11.7803C66.0275 11.7803 65.2026 12.6034 65.2026 13.6187C65.2026 14.6341 66.0275 15.4572 67.0452 15.4572Z" fill="#282A4D"/>
<path d="M67.0452 21.1349C68.0628 21.1349 68.8878 20.3118 68.8878 19.2965C68.8878 18.2811 68.0628 17.458 67.0452 17.458C66.0275 17.458 65.2026 18.2811 65.2026 19.2965C65.2026 20.3118 66.0275 21.1349 67.0452 21.1349Z" fill="#282A4D"/>
<path d="M67.0452 26.8141C68.0628 26.8141 68.8878 25.991 68.8878 24.9757C68.8878 23.9603 68.0628 23.1372 67.0452 23.1372C66.0275 23.1372 65.2026 23.9603 65.2026 24.9757C65.2026 25.991 66.0275 26.8141 67.0452 26.8141Z" fill="#282A4D"/>
<path fill-rule="evenodd" clip-rule="evenodd" d="M74.3434 59.0513C74.3434 60.0659 73.5177 60.8898 72.5008 60.8898C71.484 60.8898 70.6582 60.0659 70.6582 59.0513C70.6582 58.0368 71.484 57.2129 72.5008 57.2129C73.5177 57.2129 74.3434 58.0368 74.3434 59.0513Z" fill="#282A4D"/>
<path fill-rule="evenodd" clip-rule="evenodd" d="M74.3434 53.3736C74.3434 54.3881 73.5177 55.212 72.5008 55.212C71.484 55.212 70.6582 54.3881 70.6582 53.3736C70.6582 52.359 71.484 51.5352 72.5008 51.5352C73.5177 51.5352 74.3434 52.359 74.3434 53.3736Z" fill="#282A4D"/>
<path fill-rule="evenodd" clip-rule="evenodd" d="M74.3434 47.6944C74.3434 48.7089 73.5177 49.5328 72.5008 49.5328C71.484 49.5328 70.6582 48.7089 70.6582 47.6944C70.6582 46.6799 71.484 45.856 72.5008 45.856C73.5177 45.856 74.3434 46.6764 74.3434 47.6944Z" fill="#282A4D"/>
<path fill-rule="evenodd" clip-rule="evenodd" d="M74.3434 42.0123C74.3434 43.0268 73.5177 43.8507 72.5008 43.8507C71.484 43.8507 70.6582 43.0268 70.6582 42.0123C70.6582 40.9977 71.484 40.1738 72.5008 40.1738C73.5177 40.1772 74.3434 40.9977 74.3434 42.0123Z" fill="#282A4D"/>
<path fill-rule="evenodd" clip-rule="evenodd" d="M74.3434 36.3331C74.3434 37.3476 73.5177 38.1715 72.5008 38.1715C71.484 38.1715 70.6582 37.3476 70.6582 36.3331C70.6582 35.3185 71.484 34.4946 72.5008 34.4946C73.5177 34.498 74.3434 35.3185 74.3434 36.3331Z" fill="#282A4D"/>
<path fill-rule="evenodd" clip-rule="evenodd" d="M74.3434 30.6548C74.3434 31.6694 73.5177 32.4933 72.5008 32.4933C71.484 32.4933 70.6582 31.6694 70.6582 30.6548C70.6582 29.6403 71.484 28.8164 72.5008 28.8164C73.5177 28.8198 74.3434 29.6403 74.3434 30.6548Z" fill="#282A4D"/>
<path fill-rule="evenodd" clip-rule="evenodd" d="M74.3434 2.26081C74.3434 3.27536 73.5177 4.09925 72.5008 4.09925C71.484 4.09925 70.6582 3.27536 70.6582 2.26081C70.6582 1.24626 71.484 0.422363 72.5008 0.422363C73.5177 0.422363 74.3434 1.24626 74.3434 2.26081Z" fill="#282A4D"/>
<path fill-rule="evenodd" clip-rule="evenodd" d="M74.3434 7.93952C74.3434 8.95406 73.5177 9.77796 72.5008 9.77796C71.484 9.77796 70.6582 8.95406 70.6582 7.93952C70.6582 6.92497 71.484 6.10107 72.5008 6.10107C73.5177 6.10107 74.3434 6.92497 74.3434 7.93952Z" fill="#282A4D"/>
<path fill-rule="evenodd" clip-rule="evenodd" d="M74.3434 13.6187C74.3434 14.6333 73.5177 15.4572 72.5008 15.4572C71.484 15.4572 70.6582 14.6333 70.6582 13.6187C70.6582 12.6042 71.484 11.7803 72.5008 11.7803C73.5177 11.7803 74.3434 12.6042 74.3434 13.6187Z" fill="#282A4D"/>
<path fill-rule="evenodd" clip-rule="evenodd" d="M74.3434 19.2965C74.3434 20.311 73.5177 21.1349 72.5008 21.1349C71.484 21.1349 70.6582 20.311 70.6582 19.2965C70.6582 18.2819 71.484 17.458 72.5008 17.458C73.5177 17.4614 74.3434 18.2819 74.3434 19.2965Z" fill="#282A4D"/>
<path fill-rule="evenodd" clip-rule="evenodd" d="M74.3434 24.9757C74.3434 25.9902 73.5177 26.8141 72.5008 26.8141C71.484 26.8141 70.6582 25.9902 70.6582 24.9757C70.6582 23.9611 71.484 23.1372 72.5008 23.1372C73.5177 23.1406 74.3434 23.9611 74.3434 24.9757Z" fill="#282A4D"/>
<path fill-rule="evenodd" clip-rule="evenodd" d="M79.7981 59.0513C79.7981 60.0659 78.9724 60.8898 77.9555 60.8898C76.9387 60.8898 76.1129 60.0659 76.1129 59.0513C76.1129 58.0368 76.9387 57.2129 77.9555 57.2129C78.9758 57.2129 79.7981 58.0368 79.7981 59.0513Z" fill="#282A4D"/>
<path fill-rule="evenodd" clip-rule="evenodd" d="M79.7981 53.3736C79.7981 54.3881 78.9724 55.212 77.9555 55.212C76.9387 55.212 76.1129 54.3881 76.1129 53.3736C76.1129 52.359 76.9387 51.5352 77.9555 51.5352C78.9758 51.5352 79.7981 52.359 79.7981 53.3736Z" fill="#282A4D"/>
<path fill-rule="evenodd" clip-rule="evenodd" d="M79.7981 47.6944C79.7981 48.7089 78.9724 49.5328 77.9555 49.5328C76.9387 49.5328 76.1129 48.7089 76.1129 47.6944C76.1129 46.6799 76.9387 45.856 77.9555 45.856C78.9758 45.856 79.7981 46.6764 79.7981 47.6944Z" fill="#282A4D"/>
<path fill-rule="evenodd" clip-rule="evenodd" d="M79.7981 42.0123C79.7981 43.0268 78.9724 43.8507 77.9555 43.8507C76.9387 43.8507 76.1129 43.0268 76.1129 42.0123C76.1129 40.9977 76.9387 40.1738 77.9555 40.1738C78.9758 40.1772 79.7981 40.9977 79.7981 42.0123Z" fill="#282A4D"/>
<path fill-rule="evenodd" clip-rule="evenodd" d="M79.7981 36.3331C79.7981 37.3476 78.9724 38.1715 77.9555 38.1715C76.9387 38.1715 76.1129 37.3476 76.1129 36.3331C76.1129 35.3185 76.9387 34.4946 77.9555 34.4946C78.9758 34.498 79.7981 35.3185 79.7981 36.3331Z" fill="#282A4D"/>
<path fill-rule="evenodd" clip-rule="evenodd" d="M79.7981 30.6548C79.7981 31.6694 78.9724 32.4933 77.9555 32.4933C76.9387 32.4933 76.1129 31.6694 76.1129 30.6548C76.1129 29.6403 76.9387 28.8164 77.9555 28.8164C78.9758 28.8198 79.7981 29.6403 79.7981 30.6548Z" fill="#282A4D"/>
<path d="M77.9595 4.09925C78.9771 4.09925 79.8021 3.27615 79.8021 2.26081C79.8021 1.24546 78.9771 0.422363 77.9595 0.422363C76.9418 0.422363 76.1169 1.24546 76.1169 2.26081C76.1169 3.27615 76.9418 4.09925 77.9595 4.09925Z" fill="#282A4D"/>
<path d="M77.9595 9.77796C78.9771 9.77796 79.8021 8.95486 79.8021 7.93952C79.8021 6.92417 78.9771 6.10107 77.9595 6.10107C76.9418 6.10107 76.1169 6.92417 76.1169 7.93952C76.1169 8.95486 76.9418 9.77796 77.9595 9.77796Z" fill="#282A4D"/>
<path d="M77.9595 15.4572C78.9771 15.4572 79.8021 14.6341 79.8021 13.6187C79.8021 12.6034 78.9771 11.7803 77.9595 11.7803C76.9418 11.7803 76.1169 12.6034 76.1169 13.6187C76.1169 14.6341 76.9418 15.4572 77.9595 15.4572Z" fill="#282A4D"/>
<path d="M77.9595 21.1349C78.9771 21.1349 79.8021 20.3118 79.8021 19.2965C79.8021 18.2811 78.9771 17.458 77.9595 17.458C76.9418 17.458 76.1169 18.2811 76.1169 19.2965C76.1169 20.3118 76.9418 21.1349 77.9595 21.1349Z" fill="#282A4D"/>
<path d="M77.9595 26.8141C78.9771 26.8141 79.8021 25.991 79.8021 24.9757C79.8021 23.9603 78.9771 23.1372 77.9595 23.1372C76.9418 23.1372 76.1169 23.9603 76.1169 24.9757C76.1169 25.991 76.9418 26.8141 77.9595 26.8141Z" fill="#282A4D"/>
<path d="M50.6751 4.09925C51.6928 4.09925 52.5177 3.27615 52.5177 2.26081C52.5177 1.24546 51.6928 0.422363 50.6751 0.422363C49.6575 0.422363 48.8326 1.24546 48.8326 2.26081C48.8326 3.27615 49.6575 4.09925 50.6751 4.09925Z" fill="#282A4D"/>
<path d="M50.6751 9.77796C51.6928 9.77796 52.5177 8.95486 52.5177 7.93952C52.5177 6.92417 51.6928 6.10107 50.6751 6.10107C49.6575 6.10107 48.8326 6.92417 48.8326 7.93952C48.8326 8.95486 49.6575 9.77796 50.6751 9.77796Z" fill="#282A4D"/>
<path d="M50.6751 15.4572C51.6928 15.4572 52.5177 14.6341 52.5177 13.6187C52.5177 12.6034 51.6928 11.7803 50.6751 11.7803C49.6575 11.7803 48.8326 12.6034 48.8326 13.6187C48.8326 14.6341 49.6575 15.4572 50.6751 15.4572Z" fill="#282A4D"/>
<path d="M56.1318 4.09925C57.1495 4.09925 57.9744 3.27615 57.9744 2.26081C57.9744 1.24546 57.1495 0.422363 56.1318 0.422363C55.1142 0.422363 54.2892 1.24546 54.2892 2.26081C54.2892 3.27615 55.1142 4.09925 56.1318 4.09925Z" fill="#282A4D"/>
<path d="M56.1318 9.77796C57.1495 9.77796 57.9744 8.95486 57.9744 7.93952C57.9744 6.92417 57.1495 6.10107 56.1318 6.10107C55.1142 6.10107 54.2892 6.92417 54.2892 7.93952C54.2892 8.95486 55.1142 9.77796 56.1318 9.77796Z" fill="#282A4D"/>
<path d="M56.1318 15.4572C57.1495 15.4572 57.9744 14.6341 57.9744 13.6187C57.9744 12.6034 57.1495 11.7803 56.1318 11.7803C55.1142 11.7803 54.2892 12.6034 54.2892 13.6187C54.2892 14.6341 55.1142 15.4572 56.1318 15.4572Z" fill="#282A4D"/>
<path d="M61.5895 4.09925C62.6071 4.09925 63.4321 3.27615 63.4321 2.26081C63.4321 1.24546 62.6071 0.422363 61.5895 0.422363C60.5718 0.422363 59.7469 1.24546 59.7469 2.26081C59.7469 3.27615 60.5718 4.09925 61.5895 4.09925Z" fill="#282A4D"/>
<path d="M61.5895 9.77796C62.6071 9.77796 63.4321 8.95486 63.4321 7.93952C63.4321 6.92417 62.6071 6.10107 61.5895 6.10107C60.5718 6.10107 59.7469 6.92417 59.7469 7.93952C59.7469 8.95486 60.5718 9.77796 61.5895 9.77796Z" fill="#282A4D"/>
<path d="M61.5895 15.4572C62.6071 15.4572 63.4321 14.6341 63.4321 13.6187C63.4321 12.6034 62.6071 11.7803 61.5895 11.7803C60.5718 11.7803 59.7469 12.6034 59.7469 13.6187C59.7469 14.6341 60.5718 15.4572 61.5895 15.4572Z" fill="#282A4D"/>
<path fill-rule="evenodd" clip-rule="evenodd" d="M36.1468 59.0513C36.1468 60.0659 35.321 60.8898 34.3042 60.8898C33.2873 60.8898 32.4615 60.0659 32.4615 59.0513C32.4615 58.0368 33.2873 57.2129 34.3042 57.2129C35.321 57.2129 36.1468 58.0368 36.1468 59.0513Z" fill="#282A4D"/>
<path fill-rule="evenodd" clip-rule="evenodd" d="M36.1468 53.3736C36.1468 54.3881 35.321 55.212 34.3042 55.212C33.2873 55.212 32.4615 54.3881 32.4615 53.3736C32.4615 52.359 33.2873 51.5352 34.3042 51.5352C35.321 51.5352 36.1468 52.359 36.1468 53.3736Z" fill="#282A4D"/>
<path fill-rule="evenodd" clip-rule="evenodd" d="M36.1468 47.6944C36.1468 48.7089 35.321 49.5328 34.3042 49.5328C33.2873 49.5328 32.4615 48.7089 32.4615 47.6944C32.4615 46.6799 33.2873 45.856 34.3042 45.856C35.321 45.856 36.1468 46.6764 36.1468 47.6944Z" fill="#282A4D"/>
<path fill-rule="evenodd" clip-rule="evenodd" d="M36.1468 42.0123C36.1468 43.0268 35.321 43.8507 34.3042 43.8507C33.2873 43.8507 32.4615 43.0268 32.4615 42.0123C32.4615 40.9977 33.2873 40.1738 34.3042 40.1738C35.321 40.1772 36.1468 40.9977 36.1468 42.0123Z" fill="#282A4D"/>
<path fill-rule="evenodd" clip-rule="evenodd" d="M36.1468 36.3331C36.1468 37.3476 35.321 38.1715 34.3042 38.1715C33.2873 38.1715 32.4615 37.3476 32.4615 36.3331C32.4615 35.3185 33.2873 34.4946 34.3042 34.4946C35.321 34.498 36.1468 35.3185 36.1468 36.3331Z" fill="#282A4D"/>
<path fill-rule="evenodd" clip-rule="evenodd" d="M36.1468 30.6548C36.1468 31.6694 35.321 32.4933 34.3042 32.4933C33.2873 32.4933 32.4615 31.6694 32.4615 30.6548C32.4615 29.6403 33.2873 28.8164 34.3042 28.8164C35.321 28.8198 36.1468 29.6403 36.1468 30.6548Z" fill="#282A4D"/>
<path d="M34.3042 4.09925C35.3218 4.09925 36.1468 3.27615 36.1468 2.26081C36.1468 1.24546 35.3218 0.422363 34.3042 0.422363C33.2865 0.422363 32.4615 1.24546 32.4615 2.26081C32.4615 3.27615 33.2865 4.09925 34.3042 4.09925Z" fill="#282A4D"/>
<path d="M34.3042 9.77796C35.3218 9.77796 36.1468 8.95486 36.1468 7.93952C36.1468 6.92417 35.3218 6.10107 34.3042 6.10107C33.2865 6.10107 32.4615 6.92417 32.4615 7.93952C32.4615 8.95486 33.2865 9.77796 34.3042 9.77796Z" fill="#282A4D"/>
<path d="M34.3042 15.4572C35.3218 15.4572 36.1468 14.6341 36.1468 13.6187C36.1468 12.6034 35.3218 11.7803 34.3042 11.7803C33.2865 11.7803 32.4615 12.6034 32.4615 13.6187C32.4615 14.6341 33.2865 15.4572 34.3042 15.4572Z" fill="#282A4D"/>
<path d="M34.3042 21.1349C35.3218 21.1349 36.1468 20.3118 36.1468 19.2965C36.1468 18.2811 35.3218 17.458 34.3042 17.458C33.2865 17.458 32.4615 18.2811 32.4615 19.2965C32.4615 20.3118 33.2865 21.1349 34.3042 21.1349Z" fill="#282A4D"/>
<path d="M34.3042 26.8141C35.3218 26.8141 36.1468 25.991 36.1468 24.9757C36.1468 23.9603 35.3218 23.1372 34.3042 23.1372C33.2865 23.1372 32.4615 23.9603 32.4615 24.9757C32.4615 25.991 33.2865 26.8141 34.3042 26.8141Z" fill="#282A4D"/>
<path fill-rule="evenodd" clip-rule="evenodd" d="M41.6034 59.0513C41.6034 60.0659 40.7777 60.8898 39.7608 60.8898C38.744 60.8898 37.9182 60.0659 37.9182 59.0513C37.9182 58.0368 38.744 57.2129 39.7608 57.2129C40.7777 57.2129 41.6034 58.0368 41.6034 59.0513Z" fill="#282A4D"/>
<path fill-rule="evenodd" clip-rule="evenodd" d="M41.6034 53.3736C41.6034 54.3881 40.7777 55.212 39.7608 55.212C38.744 55.212 37.9182 54.3881 37.9182 53.3736C37.9182 52.359 38.744 51.5352 39.7608 51.5352C40.7777 51.5352 41.6034 52.359 41.6034 53.3736Z" fill="#282A4D"/>
<path fill-rule="evenodd" clip-rule="evenodd" d="M41.6034 47.6944C41.6034 48.7089 40.7777 49.5328 39.7608 49.5328C38.744 49.5328 37.9182 48.7089 37.9182 47.6944C37.9182 46.6799 38.744 45.856 39.7608 45.856C40.7777 45.856 41.6034 46.6764 41.6034 47.6944Z" fill="#282A4D"/>
<path fill-rule="evenodd" clip-rule="evenodd" d="M41.6034 42.0123C41.6034 43.0268 40.7777 43.8507 39.7608 43.8507C38.744 43.8507 37.9182 43.0268 37.9182 42.0123C37.9182 40.9977 38.744 40.1738 39.7608 40.1738C40.7777 40.1772 41.6034 40.9977 41.6034 42.0123Z" fill="#282A4D"/>
<path fill-rule="evenodd" clip-rule="evenodd" d="M41.6034 36.3331C41.6034 37.3476 40.7777 38.1715 39.7608 38.1715C38.744 38.1715 37.9182 37.3476 37.9182 36.3331C37.9182 35.3185 38.744 34.4946 39.7608 34.4946C40.7777 34.498 41.6034 35.3185 41.6034 36.3331Z" fill="#282A4D"/>
<path fill-rule="evenodd" clip-rule="evenodd" d="M41.6034 30.6548C41.6034 31.6694 40.7777 32.4933 39.7608 32.4933C38.744 32.4933 37.9182 31.6694 37.9182 30.6548C37.9182 29.6403 38.744 28.8164 39.7608 28.8164C40.7777 28.8198 41.6034 29.6403 41.6034 30.6548Z" fill="#282A4D"/>
<path fill-rule="evenodd" clip-rule="evenodd" d="M41.6034 2.26081C41.6034 3.27536 40.7777 4.09925 39.7608 4.09925C38.744 4.09925 37.9182 3.27536 37.9182 2.26081C37.9182 1.24626 38.744 0.422363 39.7608 0.422363C40.7777 0.422363 41.6034 1.24626 41.6034 2.26081Z" fill="#282A4D"/>
<path fill-rule="evenodd" clip-rule="evenodd" d="M41.6034 7.93952C41.6034 8.95406 40.7777 9.77796 39.7608 9.77796C38.744 9.77796 37.9182 8.95406 37.9182 7.93952C37.9182 6.92497 38.744 6.10107 39.7608 6.10107C40.7777 6.10107 41.6034 6.92497 41.6034 7.93952Z" fill="#282A4D"/>
<path fill-rule="evenodd" clip-rule="evenodd" d="M41.6034 13.6187C41.6034 14.6333 40.7777 15.4572 39.7608 15.4572C38.744 15.4572 37.9182 14.6333 37.9182 13.6187C37.9182 12.6042 38.744 11.7803 39.7608 11.7803C40.7777 11.7803 41.6034 12.6042 41.6034 13.6187Z" fill="#282A4D"/>
<path fill-rule="evenodd" clip-rule="evenodd" d="M41.6034 19.2965C41.6034 20.311 40.7777 21.1349 39.7608 21.1349C38.744 21.1349 37.9182 20.311 37.9182 19.2965C37.9182 18.2819 38.744 17.458 39.7608 17.458C40.7777 17.4614 41.6034 18.2819 41.6034 19.2965Z" fill="#282A4D"/>
<path fill-rule="evenodd" clip-rule="evenodd" d="M41.6034 24.9757C41.6034 25.9902 40.7777 26.8141 39.7608 26.8141C38.744 26.8141 37.9182 25.9902 37.9182 24.9757C37.9182 23.9611 38.744 23.1372 39.7608 23.1372C40.7777 23.1406 41.6034 23.9611 41.6034 24.9757Z" fill="#282A4D"/>
<path fill-rule="evenodd" clip-rule="evenodd" d="M47.0591 59.0513C47.0591 60.0659 46.2334 60.8898 45.2165 60.8898C44.1997 60.8898 43.3739 60.0659 43.3739 59.0513C43.3739 58.0368 44.1997 57.2129 45.2165 57.2129C46.2334 57.2129 47.0591 58.0368 47.0591 59.0513Z" fill="#282A4D"/>
<path fill-rule="evenodd" clip-rule="evenodd" d="M47.0591 53.3736C47.0591 54.3881 46.2334 55.212 45.2165 55.212C44.1997 55.212 43.3739 54.3881 43.3739 53.3736C43.3739 52.359 44.1997 51.5352 45.2165 51.5352C46.2334 51.5352 47.0591 52.359 47.0591 53.3736Z" fill="#282A4D"/>
<path fill-rule="evenodd" clip-rule="evenodd" d="M47.0591 47.6944C47.0591 48.7089 46.2334 49.5328 45.2165 49.5328C44.1997 49.5328 43.3739 48.7089 43.3739 47.6944C43.3739 46.6799 44.1997 45.856 45.2165 45.856C46.2334 45.856 47.0591 46.6764 47.0591 47.6944Z" fill="#282A4D"/>
<path fill-rule="evenodd" clip-rule="evenodd" d="M47.0591 42.0123C47.0591 43.0268 46.2334 43.8507 45.2165 43.8507C44.1997 43.8507 43.3739 43.0268 43.3739 42.0123C43.3739 40.9977 44.1997 40.1738 45.2165 40.1738C46.2334 40.1772 47.0591 40.9977 47.0591 42.0123Z" fill="#282A4D"/>
<path fill-rule="evenodd" clip-rule="evenodd" d="M47.0591 36.3331C47.0591 37.3476 46.2334 38.1715 45.2165 38.1715C44.1997 38.1715 43.3739 37.3476 43.3739 36.3331C43.3739 35.3185 44.1997 34.4946 45.2165 34.4946C46.2334 34.498 47.0591 35.3185 47.0591 36.3331Z" fill="#282A4D"/>
<path fill-rule="evenodd" clip-rule="evenodd" d="M47.0591 30.6548C47.0591 31.6694 46.2334 32.4933 45.2165 32.4933C44.1997 32.4933 43.3739 31.6694 43.3739 30.6548C43.3739 29.6403 44.1997 28.8164 45.2165 28.8164C46.2334 28.8198 47.0591 29.6403 47.0591 30.6548Z" fill="#282A4D"/>
<path d="M45.2165 4.09925C46.2342 4.09925 47.0591 3.27615 47.0591 2.26081C47.0591 1.24546 46.2342 0.422363 45.2165 0.422363C44.1989 0.422363 43.3739 1.24546 43.3739 2.26081C43.3739 3.27615 44.1989 4.09925 45.2165 4.09925Z" fill="#282A4D"/>
<path d="M45.2165 9.77796C46.2342 9.77796 47.0591 8.95486 47.0591 7.93952C47.0591 6.92417 46.2342 6.10107 45.2165 6.10107C44.1989 6.10107 43.3739 6.92417 43.3739 7.93952C43.3739 8.95486 44.1989 9.77796 45.2165 9.77796Z" fill="#282A4D"/>
<path d="M45.2165 15.4572C46.2342 15.4572 47.0591 14.6341 47.0591 13.6187C47.0591 12.6034 46.2342 11.7803 45.2165 11.7803C44.1989 11.7803 43.3739 12.6034 43.3739 13.6187C43.3739 14.6341 44.1989 15.4572 45.2165 15.4572Z" fill="#282A4D"/>
<path d="M45.2165 21.1349C46.2342 21.1349 47.0591 20.3118 47.0591 19.2965C47.0591 18.2811 46.2342 17.458 45.2165 17.458C44.1989 17.458 43.3739 18.2811 43.3739 19.2965C43.3739 20.3118 44.1989 21.1349 45.2165 21.1349Z" fill="#282A4D"/>
<path d="M45.2165 26.8141C46.2342 26.8141 47.0591 25.991 47.0591 24.9757C47.0591 23.9603 46.2342 23.1372 45.2165 23.1372C44.1989 23.1372 43.3739 23.9603 43.3739 24.9757C43.3739 25.991 44.1989 26.8141 45.2165 26.8141Z" fill="#282A4D"/>
</svg>
