<svg width="44" height="61" viewBox="0 0 44 61" fill="none" xmlns="http://www.w3.org/2000/svg">
<path d="M31.9227 56.7815C27.9702 56.7815 24.7778 53.6678 24.7778 49.8127C24.7778 45.9576 27.9702 42.9922 31.9227 42.9922C35.8752 42.9922 38.9156 46.1059 38.9156 49.8127C38.9156 53.6678 35.7232 56.7815 31.9227 56.7815ZM31.9227 44.7714C29.0343 44.7714 26.7541 46.9955 26.7541 49.8127C26.7541 52.6299 29.0343 54.8539 31.9227 54.8539C34.8111 54.8539 37.0913 52.6299 37.0913 49.8127C37.0913 47.1438 34.8111 44.7714 31.9227 44.7714Z" fill="#005686"/>
<path d="M42.4133 60.7856H0.912105C0.456049 60.7856 0 60.3408 0 59.896V17.0448C0 16.6 0.456049 16.1552 0.912105 16.1552H16.5701V1.47606C16.5701 1.17951 16.7221 1.03125 16.8741 0.88298C17.0261 0.734707 17.3301 0.586426 17.4822 0.586426H42.2612C42.7173 0.586426 43.1734 1.03124 43.1734 1.47606V59.896C43.3254 60.3408 42.8693 60.7856 42.4133 60.7856ZM1.97623 59.0064H41.5011V2.36573H18.5463V17.0448C18.5463 17.3414 18.3943 17.4897 18.2422 17.6379C18.0902 17.7862 17.7862 17.9345 17.6342 17.9345H1.97623V59.0064Z" fill="#005686"/>
<path d="M0.9104 17.9338C0.606362 17.9338 0.454328 17.7856 0.302309 17.6373C-0.0017299 17.3407 -0.0017299 16.7476 0.302309 16.3028L16.8724 0.734129C17.1765 0.437582 17.7845 0.437582 18.2406 0.734129C18.5446 1.03068 18.5446 1.62377 18.2406 2.06859L1.67049 17.6373C1.51847 17.7856 1.21444 17.9338 0.9104 17.9338Z" fill="#005686"/>
<path d="M37.849 6.07227H27.0556C26.5995 6.07227 26.1435 5.62736 26.1435 5.18248C26.1435 4.7376 26.5995 4.29272 27.0556 4.29272H37.849C38.3051 4.29272 38.7611 4.7376 38.7611 5.18248C38.7611 5.62736 38.3051 6.07227 37.849 6.07227Z" fill="#005686"/>
<path d="M37.849 8.7417H27.0556C26.5995 8.7417 26.1435 8.29694 26.1435 7.85217C26.1435 7.40741 26.5995 6.96265 27.0556 6.96265H37.849C38.3051 6.96265 38.7611 7.40741 38.7611 7.85217C38.7611 8.29694 38.3051 8.7417 37.849 8.7417Z" fill="#005686"/>
<path d="M31.778 23.5691H11.4075C10.9514 23.5691 10.4954 23.1243 10.4954 22.6796C10.4954 22.2348 10.9514 21.79 11.4075 21.79H31.778C32.2341 21.79 32.6901 22.2348 32.6901 22.6796C32.6901 23.1243 32.2341 23.5691 31.778 23.5691Z" fill="#005686"/>
<path d="M37.091 28.4614H6.68719C6.23113 28.4614 5.77509 28.0167 5.77509 27.5719C5.77509 27.1271 6.23113 26.6824 6.68719 26.6824H37.091C37.547 26.6824 38.0031 27.1271 38.0031 27.5719C38.0031 28.0167 37.6991 28.4614 37.091 28.4614Z" fill="#005686"/>
<path d="M37.091 31.8716H6.68719C6.23113 31.8716 5.77509 31.4268 5.77509 30.982C5.77509 30.5373 6.23113 30.0925 6.68719 30.0925H37.091C37.547 30.0925 38.0031 30.5373 38.0031 30.982C38.0031 31.4268 37.6991 31.8716 37.091 31.8716Z" fill="#005686"/>
<path d="M37.091 35.1333H6.68719C6.23113 35.1333 5.77509 34.6885 5.77509 34.2438C5.77509 33.799 6.23113 33.3542 6.68719 33.3542H37.091C37.547 33.3542 38.0031 33.799 38.0031 34.2438C38.0031 34.6885 37.6991 35.1333 37.091 35.1333Z" fill="#005686"/>
<path d="M37.091 38.5435H6.68719C6.23113 38.5435 5.77509 38.0987 5.77509 37.6539C5.77509 37.2092 6.23113 36.7644 6.68719 36.7644H37.091C37.547 36.7644 38.0031 37.2092 38.0031 37.6539C38.0031 38.0987 37.6991 38.5435 37.091 38.5435Z" fill="#005686"/>
<path d="M17.6291 52.4819H6.83575C6.37969 52.4819 5.92365 52.0372 5.92365 51.5924C5.92365 51.1477 6.37969 50.7029 6.83575 50.7029H17.6291C18.0852 50.7029 18.5412 51.1477 18.5412 51.5924C18.5412 52.0372 18.0852 52.4819 17.6291 52.4819Z" fill="#005686"/>
</svg>
