<svg width="186" height="44" viewBox="0 0 186 44" fill="none" xmlns="http://www.w3.org/2000/svg">
<path fill-rule="evenodd" clip-rule="evenodd" d="M99.3029 5.45543C99.3029 5.80296 99.0201 6.08517 98.6718 6.08517C98.3234 6.08517 98.0406 5.80296 98.0406 5.45543C98.0406 5.1079 98.3234 4.82568 98.6718 4.82568C99.0201 4.82568 99.3029 5.1079 99.3029 5.45543Z" fill="#282A4D"/>
<path fill-rule="evenodd" clip-rule="evenodd" d="M60.3584 26.0972H62.3968C63.6241 26.0972 64.4329 26.7479 64.4329 27.8348C64.4329 29.0057 63.4535 29.6097 62.2963 29.6097H60.9755V31.5246H60.3607V26.0972H60.3584ZM62.3174 29.0523C63.2197 29.0523 63.8111 28.5718 63.8111 27.8418C63.8111 27.0674 63.2291 26.6639 62.3501 26.6639H60.9755V29.0523H62.3174Z" fill="#282A4D"/>
<path fill-rule="evenodd" clip-rule="evenodd" d="M65.2159 30.3491C65.2159 29.4884 65.9149 29.0383 66.9341 29.0383C67.4461 29.0383 67.8037 29.1083 68.1614 29.2085V29.0849C68.1614 28.3712 67.7266 27.998 66.9715 27.998C66.497 27.998 66.1229 28.1147 65.7512 28.2849L65.5736 27.7951C66.0154 27.5922 66.4432 27.4546 67.0346 27.4546C67.6027 27.4546 68.0445 27.6085 68.332 27.8977C68.6126 28.1776 68.7528 28.5648 68.7528 29.0779V31.5293H68.1614V30.9322C67.8809 31.289 67.4227 31.6156 66.7144 31.6156C65.964 31.6109 65.2159 31.1864 65.2159 30.3491ZM68.1707 30.0529V29.6797C67.8762 29.5957 67.4858 29.5094 66.9972 29.5094C66.2515 29.5094 65.8237 29.836 65.8237 30.3328C65.8237 30.8366 66.2889 31.1304 66.8336 31.1304C67.5723 31.1304 68.1707 30.6896 68.1707 30.0529Z" fill="#282A4D"/>
<path fill-rule="evenodd" clip-rule="evenodd" d="M69.7904 31.023L70.0943 30.5799C70.4987 30.9204 70.9569 31.1 71.4385 31.1C71.9598 31.1 72.4343 30.8528 72.4343 30.3863C72.4343 29.9828 72.0766 29.7262 71.4244 29.7262H70.8868V29.2388H71.4314C71.9598 29.2388 72.3244 28.9682 72.3244 28.5484C72.3244 28.1752 71.9527 27.9513 71.4548 27.9513C71.0574 27.9513 70.5829 28.0749 70.2346 28.3548L69.94 27.9349C70.3608 27.6084 70.9031 27.4312 71.4946 27.4312C72.3969 27.4312 72.9486 27.8813 72.9486 28.5017C72.9486 28.9985 72.6447 29.2854 72.3034 29.4253C72.7476 29.5793 73.0491 29.8825 73.0491 30.4096C73.0491 31.0534 72.4507 31.6201 71.4548 31.6201C70.8166 31.6201 70.2813 31.4172 69.7904 31.023Z" fill="#282A4D"/>
<path fill-rule="evenodd" clip-rule="evenodd" d="M74.3461 27.5176H74.9445V28.3246C75.2718 27.8441 75.7463 27.4336 76.485 27.4336C77.4482 27.4336 78.4043 28.194 78.4043 29.5281C78.4043 30.8389 77.4575 31.6156 76.485 31.6156C75.737 31.6156 75.2554 31.2121 74.9445 30.7619V32.7701H74.3461V27.5176ZM77.7895 29.5187C77.7895 28.5718 77.1349 27.9677 76.3752 27.9677C75.6295 27.9677 74.9211 28.5951 74.9211 29.5257C74.9211 30.4564 75.6271 31.0768 76.3752 31.0768C77.1513 31.0768 77.7895 30.503 77.7895 29.5187Z" fill="#282A4D"/>
<path fill-rule="evenodd" clip-rule="evenodd" d="M79.3795 30.3491C79.3795 29.4884 80.0784 29.0383 81.0976 29.0383C81.6096 29.0383 81.9673 29.1083 82.3249 29.2085V29.0849C82.3249 28.3712 81.8901 27.998 81.135 27.998C80.6605 27.998 80.2865 28.1147 79.9148 28.2849L79.7371 27.7951C80.1789 27.5922 80.6067 27.4546 81.1982 27.4546C81.7662 27.4546 82.208 27.6085 82.4956 27.8977C82.7761 28.1776 82.9164 28.5648 82.9164 29.0779V31.5293H82.3249V30.9322C82.0444 31.289 81.5862 31.6156 80.8779 31.6156C80.1252 31.6109 79.3795 31.1864 79.3795 30.3491ZM82.3319 30.0529V29.6797C82.0374 29.5957 81.647 29.5094 81.1584 29.5094C80.4127 29.5094 79.9849 29.836 79.9849 30.3328C79.9849 30.8366 80.4501 31.1304 80.9948 31.1304C81.7335 31.1304 82.3319 30.6896 82.3319 30.0529Z" fill="#282A4D"/>
<path fill-rule="evenodd" clip-rule="evenodd" d="M84.219 29.3625C84.219 28.068 84.3195 26.8272 85.7198 26.4937L87.9593 25.9666L88.0762 26.4703L85.8998 27.0068C85.0676 27.2167 84.7894 27.6669 84.7263 28.4342C85.0044 27.9607 85.5351 27.5666 86.3907 27.5666C87.4403 27.5666 88.3169 28.4575 88.3169 29.5608C88.3169 30.678 87.4473 31.6226 86.2574 31.6226C85.0348 31.6203 84.219 30.7596 84.219 29.3625ZM87.6928 29.5724C87.6928 28.7351 87.0639 28.0587 86.2551 28.0587C85.4229 28.0587 84.8315 28.7328 84.8315 29.5724C84.8315 30.4098 85.4603 31.0838 86.2691 31.0838C87.1013 31.0838 87.6928 30.4098 87.6928 29.5724Z" fill="#282A4D"/>
<path fill-rule="evenodd" clip-rule="evenodd" d="M89.3285 29.5256C89.3285 28.3921 90.2145 27.4312 91.4277 27.4312C92.6316 27.4312 93.5176 28.3781 93.5176 29.5256C93.5176 30.6592 92.6246 31.6201 91.4114 31.6201C90.2051 31.6201 89.3285 30.6732 89.3285 29.5256ZM92.9028 29.5256C92.9028 28.665 92.2576 27.9583 91.4114 27.9583C90.5417 27.9583 89.9433 28.665 89.9433 29.5256C89.9433 30.3863 90.5815 31.0837 91.4277 31.0837C92.2973 31.0837 92.9028 30.3863 92.9028 29.5256Z" fill="#282A4D"/>
<path fill-rule="evenodd" clip-rule="evenodd" d="M95.6154 28.0447H94.1754V27.5176H97.6585V28.0447H96.2208V31.527H95.6154V28.0447Z" fill="#282A4D"/>
<path fill-rule="evenodd" clip-rule="evenodd" d="M98.6909 27.5176H99.2894V29.829L101.491 27.5176H102.23L100.549 29.2552L102.275 31.527H101.569L100.138 29.689L99.2894 30.5567V31.527H98.6909V27.5176Z" fill="#282A4D"/>
<path fill-rule="evenodd" clip-rule="evenodd" d="M102.904 30.3491C102.904 29.4884 103.603 29.0383 104.622 29.0383C105.134 29.0383 105.492 29.1083 105.849 29.2085V29.0849C105.849 28.3712 105.415 27.998 104.659 27.998C104.185 27.998 103.811 28.1147 103.439 28.2849L103.262 27.7951C103.703 27.5922 104.131 27.4546 104.723 27.4546C105.291 27.4546 105.732 27.6085 106.02 27.8977C106.3 28.1776 106.441 28.5648 106.441 29.0779V31.5293H105.849V30.9322C105.569 31.289 105.111 31.6156 104.402 31.6156C103.652 31.6109 102.904 31.1864 102.904 30.3491ZM105.859 30.0529V29.6797C105.564 29.5957 105.174 29.5094 104.685 29.5094C103.939 29.5094 103.512 29.836 103.512 30.3328C103.512 30.8366 103.977 31.1304 104.522 31.1304C105.26 31.1304 105.859 30.6896 105.859 30.0529Z" fill="#282A4D"/>
<path fill-rule="evenodd" clip-rule="evenodd" d="M110.043 27.5176H110.644V30.6896L113.028 27.5176H113.612V31.527H113.014V28.3549L110.618 31.527H110.043V27.5176Z" fill="#282A4D"/>
<path fill-rule="evenodd" clip-rule="evenodd" d="M117.285 27.5176H120.768V31.527H120.17V28.0447H117.883V31.527H117.285V27.5176Z" fill="#282A4D"/>
<path fill-rule="evenodd" clip-rule="evenodd" d="M122.278 27.5176H122.877V28.3246C123.204 27.8441 123.679 27.4336 124.417 27.4336C125.38 27.4336 126.337 28.194 126.337 29.5281C126.337 30.8389 125.39 31.6156 124.417 31.6156C123.672 31.6156 123.19 31.2121 122.877 30.7619V32.7701H122.278V27.5176ZM125.722 29.5187C125.722 28.5718 125.067 27.9677 124.307 27.9677C123.562 27.9677 122.853 28.5951 122.853 29.5257C122.853 30.4564 123.559 31.0768 124.307 31.0768C125.084 31.0768 125.722 30.503 125.722 29.5187Z" fill="#282A4D"/>
<path fill-rule="evenodd" clip-rule="evenodd" d="M127.365 29.5256C127.365 28.3921 128.251 27.4312 129.464 27.4312C130.668 27.4312 131.556 28.3781 131.556 29.5256C131.556 30.6592 130.663 31.6201 129.45 31.6201C128.242 31.6201 127.365 30.6732 127.365 29.5256ZM130.939 29.5256C130.939 28.665 130.294 27.9583 129.445 27.9583C128.576 27.9583 127.977 28.665 127.977 29.5256C127.977 30.3863 128.616 31.0837 129.462 31.0837C130.334 31.0837 130.939 30.3863 130.939 29.5256Z" fill="#282A4D"/>
<path fill-rule="evenodd" clip-rule="evenodd" d="M132.814 27.5176H133.41V30.6896L135.797 27.5176H136.381V31.527H135.783V28.3549L133.389 31.527H132.814V27.5176Z" fill="#282A4D"/>
<path fill-rule="evenodd" clip-rule="evenodd" d="M137.454 31.023L137.758 30.5799C138.162 30.9204 138.62 31.1 139.102 31.1C139.623 31.1 140.098 30.8528 140.098 30.3863C140.098 29.9828 139.74 29.7262 139.088 29.7262H138.55V29.2388H139.095C139.623 29.2388 139.988 28.9682 139.988 28.5484C139.988 28.1752 139.616 27.9513 139.118 27.9513C138.723 27.9513 138.246 28.0749 137.898 28.3548L137.603 27.9349C138.024 27.6084 138.567 27.4312 139.158 27.4312C140.06 27.4312 140.612 27.8813 140.612 28.5017C140.612 28.9985 140.308 29.2854 139.967 29.4253C140.411 29.5793 140.712 29.8825 140.712 30.4096C140.712 31.0534 140.114 31.6201 139.118 31.6201C138.482 31.6201 137.945 31.4172 137.454 31.023Z" fill="#282A4D"/>
<path fill-rule="evenodd" clip-rule="evenodd" d="M142.023 27.5176H143.965C144.765 27.5176 145.279 27.9141 145.279 28.5182C145.279 29.0453 144.945 29.3019 144.61 29.4418C145.092 29.5724 145.496 29.8686 145.496 30.4354C145.496 31.1095 144.921 31.5293 144.035 31.5293H142.023V27.5176ZM143.855 29.2389C144.337 29.2389 144.671 29.015 144.671 28.5951C144.671 28.2616 144.391 28.0284 143.869 28.0284H142.619V29.2389H143.855ZM143.958 31.0162C144.533 31.0162 144.881 30.7596 144.881 30.3421C144.881 29.9549 144.533 29.7217 143.879 29.7217H142.619V31.0162H143.958Z" fill="#282A4D"/>
<path fill-rule="evenodd" clip-rule="evenodd" d="M146.471 29.5256C146.471 28.3921 147.357 27.4312 148.57 27.4312C149.774 27.4312 150.662 28.3781 150.662 29.5256C150.662 30.6592 149.769 31.6201 148.556 31.6201C147.35 31.6201 146.471 30.6732 146.471 29.5256ZM150.048 29.5256C150.048 28.665 149.402 27.9583 148.556 27.9583C147.687 27.9583 147.088 28.665 147.088 29.5256C147.088 30.3863 147.726 31.0837 148.573 31.0837C149.44 31.0837 150.048 30.3863 150.048 29.5256Z" fill="#282A4D"/>
<path fill-rule="evenodd" clip-rule="evenodd" d="M151.252 30.9998H151.686C152.014 30.4027 152.224 29.5654 152.224 28.215V27.5176H155.085V30.9998H155.691L155.597 32.5276H155.099V31.527H151.85L151.743 32.5276H151.252V30.9998ZM154.485 30.9998V28.0447H152.797V28.6021C152.797 29.5957 152.603 30.4797 152.322 30.9998H154.485Z" fill="#282A4D"/>
<path fill-rule="evenodd" clip-rule="evenodd" d="M156.425 29.5256C156.425 28.3921 157.311 27.4312 158.484 27.4312C159.247 27.4312 159.721 27.7484 160.093 28.1449L159.712 28.5484C159.394 28.2148 159.02 27.9583 158.475 27.9583C157.659 27.9583 157.037 28.6487 157.037 29.5256C157.037 30.3956 157.676 31.0837 158.515 31.0837C159.027 31.0837 159.408 30.8201 159.728 30.4796L160.125 30.8434C159.721 31.2936 159.239 31.6201 158.484 31.6201C157.311 31.6201 156.425 30.6662 156.425 29.5256Z" fill="#282A4D"/>
<path fill-rule="evenodd" clip-rule="evenodd" d="M162.397 28.0447H160.959V27.5176H164.442V28.0447H163.005V31.527H162.397V28.0447Z" fill="#282A4D"/>
<path fill-rule="evenodd" clip-rule="evenodd" d="M165.477 27.5176H167.419C168.219 27.5176 168.733 27.9141 168.733 28.5182C168.733 29.0453 168.399 29.3019 168.064 29.4418C168.546 29.5724 168.95 29.8686 168.95 30.4354C168.95 31.1095 168.375 31.5293 167.489 31.5293H165.477V27.5176ZM167.312 29.2389C167.793 29.2389 168.127 29.015 168.127 28.5951C168.127 28.2616 167.847 28.0284 167.326 28.0284H166.073V29.2389H167.312ZM167.412 31.0162C167.987 31.0162 168.336 30.7596 168.336 30.3421C168.336 29.9549 167.987 29.7217 167.333 29.7217H166.073V31.0162H167.412Z" fill="#282A4D"/>
<path fill-rule="evenodd" clip-rule="evenodd" d="M169.924 29.5256C169.924 28.3921 170.81 27.4312 172.023 27.4312C173.227 27.4312 174.116 28.3781 174.116 29.5256C174.116 30.6592 173.223 31.6201 172.009 31.6201C170.803 31.6201 169.924 30.6732 169.924 29.5256ZM173.501 29.5256C173.501 28.665 172.856 27.9583 172.009 27.9583C171.14 27.9583 170.541 28.665 170.541 29.5256C170.541 30.3863 171.18 31.0837 172.026 31.0837C172.895 31.0837 173.501 30.3863 173.501 29.5256Z" fill="#282A4D"/>
<path fill-rule="evenodd" clip-rule="evenodd" d="M60.0074 39.7881C60.0074 38.6569 60.8934 37.6936 62.0669 37.6936C62.829 37.6936 63.3036 38.0108 63.6752 38.4073L63.2942 38.8108C62.9763 38.4773 62.6023 38.2207 62.0576 38.2207C61.2417 38.2207 60.6199 38.9111 60.6199 39.7881C60.6199 40.6581 61.2581 41.3461 62.0973 41.3461C62.6093 41.3461 62.9903 41.0826 63.3106 40.742L63.708 41.1059C63.3036 41.556 62.822 41.8826 62.0669 41.8826C60.8934 41.8826 60.0074 40.9286 60.0074 39.7881Z" fill="#282A4D"/>
<path fill-rule="evenodd" clip-rule="evenodd" d="M64.8388 37.78H66.7814C67.5809 37.78 68.0952 38.1765 68.0952 38.7806C68.0952 39.3077 67.7609 39.5643 67.4266 39.7042C67.9082 39.8349 68.3126 40.1311 68.3126 40.6978C68.3126 41.3719 67.7375 41.7917 66.8515 41.7917H64.8388V37.78ZM66.6715 39.5013C67.1531 39.5013 67.4874 39.2774 67.4874 38.8576C67.4874 38.5241 67.2092 38.2908 66.6879 38.2908H65.4349V39.5013H66.6715ZM66.7744 41.2763C67.3495 41.2763 67.6978 41.0197 67.6978 40.6022C67.6978 40.215 67.3495 39.9818 66.6949 39.9818H65.4349V41.2763H66.7744Z" fill="#282A4D"/>
<path fill-rule="evenodd" clip-rule="evenodd" d="M69.3086 39.7881C69.3086 38.6242 70.1244 37.6936 71.2371 37.6936C72.427 37.6936 73.1096 38.6406 73.1096 39.8184C73.1096 39.8721 73.1096 39.935 73.1026 40.0283H69.914C70.0005 40.8726 70.62 41.3625 71.3283 41.3625C71.88 41.3625 72.268 41.1385 72.5953 40.7957L72.9694 41.1292C72.5649 41.5794 72.0764 41.8826 71.3143 41.8826C70.2086 41.8826 69.3086 41.0359 69.3086 39.7881ZM72.5018 39.5479C72.4317 38.8178 72.0132 38.1974 71.2184 38.1974C70.5265 38.1974 69.9982 38.7712 69.914 39.5479H72.5018Z" fill="#282A4D"/>
<path fill-rule="evenodd" clip-rule="evenodd" d="M75.2307 38.3072H73.7931V37.78H77.2739V38.3072H75.8362V41.7894H75.2307V38.3072Z" fill="#282A4D"/>
<path fill-rule="evenodd" clip-rule="evenodd" d="M77.9283 39.7881C77.9283 38.6569 78.8142 37.6936 80.0275 37.6936C81.2314 37.6936 82.1197 38.6406 82.1197 39.7881C82.1197 40.9216 81.2267 41.8826 80.0135 41.8826C78.8049 41.8826 77.9283 40.9356 77.9283 39.7881ZM81.5026 39.7881C81.5026 38.9274 80.8574 38.2207 80.0111 38.2207C79.1415 38.2207 78.5431 38.9274 78.5431 39.7881C78.5431 40.6487 79.1812 41.3461 80.0275 41.3461C80.8971 41.3461 81.5026 40.6487 81.5026 39.7881Z" fill="#282A4D"/>
<path fill-rule="evenodd" clip-rule="evenodd" d="M82.7063 41.2623H83.1411C83.4684 40.6652 83.6788 39.8279 83.6788 38.4774V37.78H86.5401V41.2623H87.1456L87.0521 42.79H86.5541V41.7894H83.3048L83.1949 42.79H82.704V41.2623H82.7063ZM85.9417 41.2623V38.3072H84.2539V38.8646C84.2539 39.8582 84.0598 40.7422 83.7793 41.2623H85.9417Z" fill="#282A4D"/>
<path fill-rule="evenodd" clip-rule="evenodd" d="M88.1955 37.78H88.7939V40.9521L91.1807 37.78H91.7651V41.7894H91.1667V38.6174L88.7706 41.7894H88.1955V37.78Z" fill="#282A4D"/>
<path fill-rule="evenodd" clip-rule="evenodd" d="M93.0227 39.7881C93.0227 38.6569 93.9087 37.6936 95.122 37.6936C96.3259 37.6936 97.2142 38.6406 97.2142 39.7881C97.2142 40.9216 96.3212 41.8826 95.1079 41.8826C93.9017 41.8826 93.0227 40.9356 93.0227 39.7881ZM96.5994 39.7881C96.5994 38.9274 95.9542 38.2207 95.1079 38.2207C94.2383 38.2207 93.6399 38.9274 93.6399 39.7881C93.6399 40.6487 94.2781 41.3461 95.1243 41.3461C95.9916 41.3461 96.5994 40.6487 96.5994 39.7881Z" fill="#282A4D"/>
<path fill-rule="evenodd" clip-rule="evenodd" d="M97.8026 41.2623H98.2374C98.5646 40.6652 98.775 39.8279 98.775 38.4774V37.78H101.636V41.2623H102.242L102.148 42.79H101.65V41.7894H98.401L98.2935 42.79H97.8026V41.2623ZM101.036 41.2623V38.3072H99.3478V38.8646C99.3478 39.8582 99.1537 40.7422 98.8732 41.2623H101.036Z" fill="#282A4D"/>
<path fill-rule="evenodd" clip-rule="evenodd" d="M103.292 37.78H103.888V39.5083H106.207V37.78H106.805V41.7894H106.207V40.0354H103.888V41.7894H103.292V37.78Z" fill="#282A4D"/>
<path fill-rule="evenodd" clip-rule="evenodd" d="M108.065 39.7881C108.065 38.6569 108.951 37.6936 110.164 37.6936C111.368 37.6936 112.256 38.6406 112.256 39.7881C112.256 40.9216 111.363 41.8826 110.15 41.8826C108.942 41.8826 108.065 40.9356 108.065 39.7881ZM111.639 39.7881C111.639 38.9274 110.994 38.2207 110.145 38.2207C109.276 38.2207 108.677 38.9274 108.677 39.7881C108.677 40.6487 109.316 41.3461 110.162 41.3461C111.034 41.3461 111.639 40.6487 111.639 39.7881Z" fill="#282A4D"/>
<path fill-rule="evenodd" clip-rule="evenodd" d="M113.515 37.7801H114.113V40.9522L116.5 37.7801H117.084V41.7895H116.486V38.6174L114.092 41.7895H113.517V37.7801H113.515ZM114.183 36.2594L114.597 36.1731C114.69 36.5066 114.899 36.7165 115.28 36.7165C115.661 36.7165 115.871 36.5066 115.965 36.1731L116.376 36.2594C116.282 36.8098 115.864 37.2063 115.28 37.2063C114.698 37.204 114.277 36.8098 114.183 36.2594Z" fill="#282A4D"/>
<path fill-rule="evenodd" clip-rule="evenodd" d="M120.753 37.78H124.237V41.7894H123.638V38.3072H121.354V41.7894H120.753V37.78Z" fill="#282A4D"/>
<path fill-rule="evenodd" clip-rule="evenodd" d="M125.748 37.78H126.346V38.587C126.673 38.1065 127.148 37.696 127.887 37.696C128.85 37.696 129.806 38.4564 129.806 39.7905C129.806 41.1013 128.859 41.8757 127.887 41.8757C127.141 41.8757 126.659 41.4722 126.346 41.022V43.0302H125.748V37.78ZM129.191 39.7789C129.191 38.8319 128.536 38.2278 127.777 38.2278C127.031 38.2278 126.323 38.8552 126.323 39.7859C126.323 40.7165 127.029 41.3369 127.777 41.3369C128.555 41.3392 129.191 40.7655 129.191 39.7789Z" fill="#282A4D"/>
<path fill-rule="evenodd" clip-rule="evenodd" d="M130.834 39.7881C130.834 38.6569 131.72 37.6936 132.933 37.6936C134.137 37.6936 135.026 38.6406 135.026 39.7881C135.026 40.9216 134.133 41.8826 132.919 41.8826C131.711 41.8826 130.834 40.9356 130.834 39.7881ZM134.408 39.7881C134.408 38.9274 133.763 38.2207 132.917 38.2207C132.047 38.2207 131.449 38.9274 131.449 39.7881C131.449 40.6487 132.087 41.3461 132.933 41.3461C133.803 41.3461 134.408 40.6487 134.408 39.7881Z" fill="#282A4D"/>
<path fill-rule="evenodd" clip-rule="evenodd" d="M135.612 41.2623H136.047C136.374 40.6652 136.585 39.8279 136.585 38.4774V37.78H139.446V41.2623H140.052L139.958 42.79H139.46V41.7894H136.211L136.103 42.79H135.612V41.2623ZM138.848 41.2623V38.3072H137.16V38.8646C137.16 39.8582 136.966 40.7422 136.685 41.2623H138.848Z" fill="#282A4D"/>
<path fill-rule="evenodd" clip-rule="evenodd" d="M140.893 42.8507L141.094 42.3772C141.288 42.4775 141.468 42.5241 141.723 42.5241C142.081 42.5241 142.308 42.3375 142.546 41.7708L140.72 37.7754H141.382L142.843 41.1177L144.133 37.7754H144.771L143.084 41.92C142.742 42.7504 142.352 43.0513 141.746 43.0513C141.415 43.0536 141.164 42.9836 140.893 42.8507Z" fill="#282A4D"/>
<path fill-rule="evenodd" clip-rule="evenodd" d="M145.847 37.78H146.445V40.0891L148.645 37.78H149.384L147.705 39.5153L149.431 41.7894H148.722L147.292 39.9515L146.445 40.8191V41.7894H145.847V37.78Z" fill="#282A4D"/>
<path fill-rule="evenodd" clip-rule="evenodd" d="M153.907 41.7894H150.44V37.78H151.039V41.2623H153.292V37.78H153.891V41.2623H154.496L154.405 42.79H153.907V41.7894Z" fill="#282A4D"/>
<path fill-rule="evenodd" clip-rule="evenodd" d="M155.548 37.78H156.146V40.9521L158.533 37.78H159.115V41.7894H158.517V38.6174L156.123 41.7894H155.548V37.78Z" fill="#282A4D"/>
<path fill-rule="evenodd" clip-rule="evenodd" d="M160.626 37.78H161.224V40.9521L163.611 37.78H164.195V41.7894H163.597V38.6174L161.201 41.7894H160.626V37.78Z" fill="#282A4D"/>
<path fill-rule="evenodd" clip-rule="evenodd" d="M60.3584 0.424561H78.1387V22.1718H74.3073V3.87183H64.1875V22.1718H60.3584V0.424561Z" fill="#282A4D"/>
<path fill-rule="evenodd" clip-rule="evenodd" d="M84.8056 21.4254L86.2689 18.5682C87.1409 19.065 87.9824 19.2516 88.9479 19.2516C89.9134 19.2516 91.2832 18.6615 92.3726 16.8912L83.2791 0.424561H87.578L94.3666 13.0684L100.344 0.424561H104.484L95.9843 17.4183C94.1469 21.1152 91.9051 22.5123 89.0718 22.5123C87.3887 22.5123 86.0819 22.1088 84.8056 21.4254Z" fill="#282A4D"/>
<path fill-rule="evenodd" clip-rule="evenodd" d="M109.657 0.424561H113.736L120.37 10.7081L127.002 0.424561H131.082V22.1718H127.252V6.57507L120.37 16.8283H120.244L113.425 6.63805V22.1718H109.657V0.424561Z" fill="#282A4D"/>
<path fill-rule="evenodd" clip-rule="evenodd" d="M137.284 11.2981C137.284 5.17786 142.015 0.0512695 148.71 0.0512695C155.405 0.0512695 160.076 5.11489 160.076 11.2981C160.076 17.4182 155.342 22.5448 148.647 22.5448C141.954 22.5448 137.284 17.4789 137.284 11.2981ZM156.06 11.2981C156.06 7.07176 152.976 3.56152 148.649 3.56152C144.322 3.56152 141.3 7.01112 141.3 11.2981C141.3 15.522 144.383 19.0346 148.713 19.0346C153.04 19.0323 156.06 15.585 156.06 11.2981Z" fill="#282A4D"/>
<path fill-rule="evenodd" clip-rule="evenodd" d="M165.313 11.2981C165.313 5.11489 169.953 0.0512695 176.555 0.0512695C180.571 0.0512695 183 1.44837 185.085 3.4379L182.626 6.26476C180.882 4.64841 179.012 3.56152 176.522 3.56152C172.349 3.56152 169.329 6.97847 169.329 11.2981C169.329 15.5547 172.349 19.0346 176.522 19.0346C179.199 19.0346 180.912 17.9477 182.78 16.2077L185.242 18.6941C182.969 21.0544 180.477 22.5472 176.398 22.5472C170.047 22.5448 165.313 17.6048 165.313 11.2981Z" fill="#282A4D"/>
<path fill-rule="evenodd" clip-rule="evenodd" d="M21.1687 32.6906C21.1687 33.3857 20.603 33.9501 19.9064 33.9501C19.2098 33.9501 18.644 33.3857 18.644 32.6906C18.644 31.9956 19.2098 31.4312 19.9064 31.4312C20.603 31.4312 21.1687 31.9933 21.1687 32.6906Z" fill="#282A4D"/>
<path d="M19.9064 6.71502C20.6036 6.71502 21.1687 6.15113 21.1687 5.45553C21.1687 4.75994 20.6036 4.19604 19.9064 4.19604C19.2092 4.19604 18.644 4.75994 18.644 5.45553C18.644 6.15113 19.2092 6.71502 19.9064 6.71502Z" fill="#282A4D"/>
<path fill-rule="evenodd" clip-rule="evenodd" d="M21.1687 21.0171C21.1687 21.7121 20.603 22.2765 19.9064 22.2765C19.2098 22.2765 18.644 21.7121 18.644 21.0171C18.644 20.322 19.2098 19.7576 19.9064 19.7576C20.603 19.7599 21.1687 20.322 21.1687 21.0171Z" fill="#282A4D"/>
<path d="M16.3839 18.3862C17.0811 18.3862 17.6463 17.8223 17.6463 17.1267C17.6463 16.4311 17.0811 15.8672 16.3839 15.8672C15.6868 15.8672 15.1216 16.4311 15.1216 17.1267C15.1216 17.8223 15.6868 18.3862 16.3839 18.3862Z" fill="#282A4D"/>
<path fill-rule="evenodd" clip-rule="evenodd" d="M17.275 32.6908C17.275 33.1829 16.8752 33.5817 16.382 33.5817C15.8887 33.5817 15.4913 33.1829 15.4913 32.6908C15.4913 32.1986 15.8911 31.7998 16.382 31.7998C16.8752 31.7998 17.275 32.1986 17.275 32.6908Z" fill="#282A4D"/>
<path fill-rule="evenodd" clip-rule="evenodd" d="M13.885 17.1268C13.885 17.6189 13.4853 18.0178 12.992 18.0178C12.4988 18.0178 12.1014 17.6189 12.1014 17.1268C12.1014 16.6347 12.5011 16.2358 12.992 16.2358C13.4876 16.2382 13.885 16.637 13.885 17.1268Z" fill="#282A4D"/>
<path fill-rule="evenodd" clip-rule="evenodd" d="M17.275 5.45543C17.275 5.94756 16.8752 6.3464 16.382 6.3464C15.8887 6.3464 15.4913 5.94756 15.4913 5.45543C15.4913 4.96329 15.8911 4.56445 16.382 4.56445C16.8752 4.56445 17.275 4.96329 17.275 5.45543Z" fill="#282A4D"/>
<path fill-rule="evenodd" clip-rule="evenodd" d="M17.275 21.0172C17.275 21.5093 16.8752 21.9082 16.382 21.9082C15.8887 21.9082 15.4913 21.5093 15.4913 21.0172C15.4913 20.5251 15.8911 20.1262 16.382 20.1262C16.8752 20.1286 17.275 20.5274 17.275 21.0172Z" fill="#282A4D"/>
<path fill-rule="evenodd" clip-rule="evenodd" d="M17.275 36.5812C17.275 37.0733 16.8752 37.4721 16.382 37.4721C15.8887 37.4721 15.4913 37.0733 15.4913 36.5812C15.4913 36.089 15.8911 35.6902 16.382 35.6902C16.8752 35.6902 17.275 36.089 17.275 36.5812Z" fill="#282A4D"/>
<path fill-rule="evenodd" clip-rule="evenodd" d="M11.1378 32.6908C11.1378 33.0383 10.855 33.3205 10.5067 33.3205C10.1583 33.3205 9.87549 33.0383 9.87549 32.6908C9.87549 32.3433 10.1583 32.061 10.5067 32.061C10.8573 32.061 11.1378 32.3433 11.1378 32.6908Z" fill="#282A4D"/>
<path fill-rule="evenodd" clip-rule="evenodd" d="M11.1378 5.45543C11.1378 5.80296 10.855 6.08517 10.5067 6.08517C10.1583 6.08517 9.87549 5.80296 9.87549 5.45543C9.87549 5.1079 10.1583 4.82568 10.5067 4.82568C10.8573 4.82568 11.1378 5.1079 11.1378 5.45543Z" fill="#282A4D"/>
<path fill-rule="evenodd" clip-rule="evenodd" d="M5.52528 5.45543C5.52528 5.80296 5.24242 6.08517 4.89411 6.08517C4.5458 6.08517 4.26294 5.80296 4.26294 5.45543C4.26294 5.1079 4.5458 4.82568 4.89411 4.82568C5.24242 4.82568 5.52528 5.1079 5.52528 5.45543Z" fill="#282A4D"/>
<path fill-rule="evenodd" clip-rule="evenodd" d="M7.91969 17.1268C7.91969 17.4743 7.63683 17.7566 7.28852 17.7566C6.94021 17.7566 6.65735 17.4743 6.65735 17.1268C6.65735 16.7793 6.94021 16.4971 7.28852 16.4971C7.63683 16.4971 7.91969 16.7793 7.91969 17.1268Z" fill="#282A4D"/>
<path fill-rule="evenodd" clip-rule="evenodd" d="M7.91969 36.5812C7.91969 36.9287 7.63683 37.2109 7.28852 37.2109C6.94021 37.2109 6.65735 36.9287 6.65735 36.5812C6.65735 36.2336 6.94021 35.9514 7.28852 35.9514C7.63683 35.9514 7.91969 36.2336 7.91969 36.5812Z" fill="#282A4D"/>
<path fill-rule="evenodd" clip-rule="evenodd" d="M2.21547 17.1268C2.21547 17.4743 1.93261 17.7566 1.5843 17.7566C1.23598 17.7566 0.953125 17.4743 0.953125 17.1268C0.953125 16.7793 1.23598 16.4971 1.5843 16.4971C1.93261 16.4971 2.21547 16.7793 2.21547 17.1268Z" fill="#282A4D"/>
<path fill-rule="evenodd" clip-rule="evenodd" d="M47.4941 40.4716C47.4941 41.1667 46.9284 41.7311 46.2318 41.7311C45.5351 41.7311 44.9694 41.1667 44.9694 40.4716C44.9694 39.7766 45.5351 39.2122 46.2318 39.2122C46.9284 39.2122 47.4941 39.7766 47.4941 40.4716Z" fill="#282A4D"/>
<path fill-rule="evenodd" clip-rule="evenodd" d="M47.4941 36.5813C47.4941 37.2763 46.9284 37.8408 46.2318 37.8408C45.5351 37.8408 44.9694 37.2763 44.9694 36.5813C44.9694 35.8862 45.5351 35.3218 46.2318 35.3218C46.9284 35.3218 47.4941 35.8862 47.4941 36.5813Z" fill="#282A4D"/>
<path fill-rule="evenodd" clip-rule="evenodd" d="M47.4941 32.6906C47.4941 33.3857 46.9284 33.9501 46.2318 33.9501C45.5351 33.9501 44.9694 33.3857 44.9694 32.6906C44.9694 31.9956 45.5351 31.4312 46.2318 31.4312C46.9284 31.4312 47.4941 31.9933 47.4941 32.6906Z" fill="#282A4D"/>
<path fill-rule="evenodd" clip-rule="evenodd" d="M47.4941 28.7981C47.4941 29.4931 46.9284 30.0575 46.2318 30.0575C45.5351 30.0575 44.9694 29.4931 44.9694 28.7981C44.9694 28.103 45.5351 27.5386 46.2318 27.5386C46.9284 27.5386 47.4941 28.103 47.4941 28.7981Z" fill="#282A4D"/>
<path fill-rule="evenodd" clip-rule="evenodd" d="M47.4941 24.9074C47.4941 25.6025 46.9284 26.1669 46.2318 26.1669C45.5351 26.1669 44.9694 25.6025 44.9694 24.9074C44.9694 24.2124 45.5351 23.6479 46.2318 23.6479C46.9284 23.6479 47.4941 24.2124 47.4941 24.9074Z" fill="#282A4D"/>
<path fill-rule="evenodd" clip-rule="evenodd" d="M47.4941 21.0171C47.4941 21.7121 46.9284 22.2765 46.2318 22.2765C45.5351 22.2765 44.9694 21.7121 44.9694 21.0171C44.9694 20.322 45.5351 19.7576 46.2318 19.7576C46.9284 19.7576 47.4941 20.322 47.4941 21.0171Z" fill="#282A4D"/>
<path d="M46.2318 2.8244C46.9289 2.8244 47.4941 2.26051 47.4941 1.56491C47.4941 0.869313 46.9289 0.30542 46.2318 0.30542C45.5346 0.30542 44.9694 0.869313 44.9694 1.56491C44.9694 2.26051 45.5346 2.8244 46.2318 2.8244Z" fill="#282A4D"/>
<path d="M46.2318 6.71502C46.9289 6.71502 47.4941 6.15113 47.4941 5.45553C47.4941 4.75994 46.9289 4.19604 46.2318 4.19604C45.5346 4.19604 44.9694 4.75994 44.9694 5.45553C44.9694 6.15113 45.5346 6.71502 46.2318 6.71502Z" fill="#282A4D"/>
<path d="M46.2318 10.6054C46.9289 10.6054 47.4941 10.0415 47.4941 9.34592C47.4941 8.65032 46.9289 8.08643 46.2318 8.08643C45.5346 8.08643 44.9694 8.65032 44.9694 9.34592C44.9694 10.0415 45.5346 10.6054 46.2318 10.6054Z" fill="#282A4D"/>
<path d="M46.2318 14.4958C46.9289 14.4958 47.4941 13.9319 47.4941 13.2363C47.4941 12.5407 46.9289 11.9768 46.2318 11.9768C45.5346 11.9768 44.9694 12.5407 44.9694 13.2363C44.9694 13.9319 45.5346 14.4958 46.2318 14.4958Z" fill="#282A4D"/>
<path d="M46.2318 18.3862C46.9289 18.3862 47.4941 17.8223 47.4941 17.1267C47.4941 16.4311 46.9289 15.8672 46.2318 15.8672C45.5346 15.8672 44.9694 16.4311 44.9694 17.1267C44.9694 17.8223 45.5346 18.3862 46.2318 18.3862Z" fill="#282A4D"/>
<path fill-rule="evenodd" clip-rule="evenodd" d="M51.2317 40.4716C51.2317 41.1667 50.666 41.7311 49.9694 41.7311C49.2727 41.7311 48.707 41.1667 48.707 40.4716C48.707 39.7766 49.2727 39.2122 49.9694 39.2122C50.666 39.2122 51.2317 39.7766 51.2317 40.4716Z" fill="#282A4D"/>
<path fill-rule="evenodd" clip-rule="evenodd" d="M51.2317 36.5813C51.2317 37.2763 50.666 37.8408 49.9694 37.8408C49.2727 37.8408 48.707 37.2763 48.707 36.5813C48.707 35.8862 49.2727 35.3218 49.9694 35.3218C50.666 35.3218 51.2317 35.8862 51.2317 36.5813Z" fill="#282A4D"/>
<path fill-rule="evenodd" clip-rule="evenodd" d="M51.2317 32.6906C51.2317 33.3857 50.666 33.9501 49.9694 33.9501C49.2727 33.9501 48.707 33.3857 48.707 32.6906C48.707 31.9956 49.2727 31.4312 49.9694 31.4312C50.666 31.4312 51.2317 31.9933 51.2317 32.6906Z" fill="#282A4D"/>
<path fill-rule="evenodd" clip-rule="evenodd" d="M51.2317 28.7981C51.2317 29.4931 50.666 30.0575 49.9694 30.0575C49.2727 30.0575 48.707 29.4931 48.707 28.7981C48.707 28.103 49.2727 27.5386 49.9694 27.5386C50.666 27.5409 51.2317 28.103 51.2317 28.7981Z" fill="#282A4D"/>
<path fill-rule="evenodd" clip-rule="evenodd" d="M51.2317 24.9074C51.2317 25.6025 50.666 26.1669 49.9694 26.1669C49.2727 26.1669 48.707 25.6025 48.707 24.9074C48.707 24.2124 49.2727 23.6479 49.9694 23.6479C50.666 23.6503 51.2317 24.2124 51.2317 24.9074Z" fill="#282A4D"/>
<path fill-rule="evenodd" clip-rule="evenodd" d="M51.2317 21.0171C51.2317 21.7121 50.666 22.2765 49.9694 22.2765C49.2727 22.2765 48.707 21.7121 48.707 21.0171C48.707 20.322 49.2727 19.7576 49.9694 19.7576C50.666 19.7599 51.2317 20.322 51.2317 21.0171Z" fill="#282A4D"/>
<path fill-rule="evenodd" clip-rule="evenodd" d="M51.2317 1.56491C51.2317 2.25996 50.666 2.8244 49.9694 2.8244C49.2727 2.8244 48.707 2.25996 48.707 1.56491C48.707 0.869858 49.2727 0.30542 49.9694 0.30542C50.666 0.30542 51.2317 0.869858 51.2317 1.56491Z" fill="#282A4D"/>
<path fill-rule="evenodd" clip-rule="evenodd" d="M51.2317 5.45553C51.2317 6.15059 50.666 6.71502 49.9694 6.71502C49.2727 6.71502 48.707 6.15059 48.707 5.45553C48.707 4.76048 49.2727 4.19604 49.9694 4.19604C50.666 4.19604 51.2317 4.76048 51.2317 5.45553Z" fill="#282A4D"/>
<path fill-rule="evenodd" clip-rule="evenodd" d="M51.2317 9.34592C51.2317 10.041 50.666 10.6054 49.9694 10.6054C49.2727 10.6054 48.707 10.041 48.707 9.34592C48.707 8.65086 49.2727 8.08643 49.9694 8.08643C50.666 8.08643 51.2317 8.65086 51.2317 9.34592Z" fill="#282A4D"/>
<path fill-rule="evenodd" clip-rule="evenodd" d="M51.2317 13.2363C51.2317 13.9313 50.666 14.4958 49.9694 14.4958C49.2727 14.4958 48.707 13.9313 48.707 13.2363C48.707 12.5412 49.2727 11.9768 49.9694 11.9768C50.666 11.9791 51.2317 12.5412 51.2317 13.2363Z" fill="#282A4D"/>
<path fill-rule="evenodd" clip-rule="evenodd" d="M51.2317 17.1267C51.2317 17.8217 50.666 18.3862 49.9694 18.3862C49.2727 18.3862 48.707 17.8217 48.707 17.1267C48.707 16.4316 49.2727 15.8672 49.9694 15.8672C50.666 15.8695 51.2317 16.4316 51.2317 17.1267Z" fill="#282A4D"/>
<path fill-rule="evenodd" clip-rule="evenodd" d="M54.9694 40.4716C54.9694 41.1667 54.4037 41.7311 53.707 41.7311C53.0104 41.7311 52.4447 41.1667 52.4447 40.4716C52.4447 39.7766 53.0104 39.2122 53.707 39.2122C54.406 39.2122 54.9694 39.7766 54.9694 40.4716Z" fill="#282A4D"/>
<path fill-rule="evenodd" clip-rule="evenodd" d="M54.9694 36.5813C54.9694 37.2763 54.4037 37.8408 53.707 37.8408C53.0104 37.8408 52.4447 37.2763 52.4447 36.5813C52.4447 35.8862 53.0104 35.3218 53.707 35.3218C54.406 35.3218 54.9694 35.8862 54.9694 36.5813Z" fill="#282A4D"/>
<path fill-rule="evenodd" clip-rule="evenodd" d="M54.9694 32.6906C54.9694 33.3857 54.4037 33.9501 53.707 33.9501C53.0104 33.9501 52.4447 33.3857 52.4447 32.6906C52.4447 31.9956 53.0104 31.4312 53.707 31.4312C54.406 31.4312 54.9694 31.9933 54.9694 32.6906Z" fill="#282A4D"/>
<path fill-rule="evenodd" clip-rule="evenodd" d="M54.9694 28.7981C54.9694 29.4931 54.4037 30.0575 53.707 30.0575C53.0104 30.0575 52.4447 29.4931 52.4447 28.7981C52.4447 28.103 53.0104 27.5386 53.707 27.5386C54.406 27.5409 54.9694 28.103 54.9694 28.7981Z" fill="#282A4D"/>
<path fill-rule="evenodd" clip-rule="evenodd" d="M54.9694 24.9074C54.9694 25.6025 54.4037 26.1669 53.707 26.1669C53.0104 26.1669 52.4447 25.6025 52.4447 24.9074C52.4447 24.2124 53.0104 23.6479 53.707 23.6479C54.406 23.6503 54.9694 24.2124 54.9694 24.9074Z" fill="#282A4D"/>
<path fill-rule="evenodd" clip-rule="evenodd" d="M54.9694 21.0171C54.9694 21.7121 54.4037 22.2765 53.707 22.2765C53.0104 22.2765 52.4447 21.7121 52.4447 21.0171C52.4447 20.322 53.0104 19.7576 53.707 19.7576C54.406 19.7599 54.9694 20.322 54.9694 21.0171Z" fill="#282A4D"/>
<path d="M53.7095 2.8244C54.4067 2.8244 54.9718 2.26051 54.9718 1.56491C54.9718 0.869313 54.4067 0.30542 53.7095 0.30542C53.0123 0.30542 52.4471 0.869313 52.4471 1.56491C52.4471 2.26051 53.0123 2.8244 53.7095 2.8244Z" fill="#282A4D"/>
<path d="M53.7095 6.71502C54.4067 6.71502 54.9718 6.15113 54.9718 5.45553C54.9718 4.75994 54.4067 4.19604 53.7095 4.19604C53.0123 4.19604 52.4471 4.75994 52.4471 5.45553C52.4471 6.15113 53.0123 6.71502 53.7095 6.71502Z" fill="#282A4D"/>
<path d="M53.7095 10.6054C54.4067 10.6054 54.9718 10.0415 54.9718 9.34592C54.9718 8.65032 54.4067 8.08643 53.7095 8.08643C53.0123 8.08643 52.4471 8.65032 52.4471 9.34592C52.4471 10.0415 53.0123 10.6054 53.7095 10.6054Z" fill="#282A4D"/>
<path d="M53.7095 14.4958C54.4067 14.4958 54.9718 13.9319 54.9718 13.2363C54.9718 12.5407 54.4067 11.9768 53.7095 11.9768C53.0123 11.9768 52.4471 12.5407 52.4471 13.2363C52.4471 13.9319 53.0123 14.4958 53.7095 14.4958Z" fill="#282A4D"/>
<path d="M53.7095 18.3862C54.4067 18.3862 54.9718 17.8223 54.9718 17.1267C54.9718 16.4311 54.4067 15.8672 53.7095 15.8672C53.0123 15.8672 52.4471 16.4311 52.4471 17.1267C52.4471 17.8223 53.0123 18.3862 53.7095 18.3862Z" fill="#282A4D"/>
<path d="M35.0172 2.8244C35.7144 2.8244 36.2796 2.26051 36.2796 1.56491C36.2796 0.869313 35.7144 0.30542 35.0172 0.30542C34.32 0.30542 33.7549 0.869313 33.7549 1.56491C33.7549 2.26051 34.32 2.8244 35.0172 2.8244Z" fill="#282A4D"/>
<path d="M35.0172 6.71502C35.7144 6.71502 36.2796 6.15113 36.2796 5.45553C36.2796 4.75994 35.7144 4.19604 35.0172 4.19604C34.32 4.19604 33.7549 4.75994 33.7549 5.45553C33.7549 6.15113 34.32 6.71502 35.0172 6.71502Z" fill="#282A4D"/>
<path d="M35.0172 10.6054C35.7144 10.6054 36.2796 10.0415 36.2796 9.34592C36.2796 8.65032 35.7144 8.08643 35.0172 8.08643C34.32 8.08643 33.7549 8.65032 33.7549 9.34592C33.7549 10.0415 34.32 10.6054 35.0172 10.6054Z" fill="#282A4D"/>
<path d="M38.7557 2.8244C39.4529 2.8244 40.018 2.26051 40.018 1.56491C40.018 0.869313 39.4529 0.30542 38.7557 0.30542C38.0585 0.30542 37.4933 0.869313 37.4933 1.56491C37.4933 2.26051 38.0585 2.8244 38.7557 2.8244Z" fill="#282A4D"/>
<path d="M38.7557 6.71502C39.4529 6.71502 40.018 6.15113 40.018 5.45553C40.018 4.75994 39.4529 4.19604 38.7557 4.19604C38.0585 4.19604 37.4933 4.75994 37.4933 5.45553C37.4933 6.15113 38.0585 6.71502 38.7557 6.71502Z" fill="#282A4D"/>
<path d="M38.7557 10.6054C39.4529 10.6054 40.018 10.0415 40.018 9.34592C40.018 8.65032 39.4529 8.08643 38.7557 8.08643C38.0585 8.08643 37.4933 8.65032 37.4933 9.34592C37.4933 10.0415 38.0585 10.6054 38.7557 10.6054Z" fill="#282A4D"/>
<path d="M42.4933 2.8244C43.1905 2.8244 43.7556 2.26051 43.7556 1.56491C43.7556 0.869313 43.1905 0.30542 42.4933 0.30542C41.7961 0.30542 41.231 0.869313 41.231 1.56491C41.231 2.26051 41.7961 2.8244 42.4933 2.8244Z" fill="#282A4D"/>
<path d="M42.4933 6.71502C43.1905 6.71502 43.7556 6.15113 43.7556 5.45553C43.7556 4.75994 43.1905 4.19604 42.4933 4.19604C41.7961 4.19604 41.231 4.75994 41.231 5.45553C41.231 6.15113 41.7961 6.71502 42.4933 6.71502Z" fill="#282A4D"/>
<path d="M42.4933 10.6054C43.1905 10.6054 43.7556 10.0415 43.7556 9.34592C43.7556 8.65032 43.1905 8.08643 42.4933 8.08643C41.7961 8.08643 41.231 8.65032 41.231 9.34592C41.231 10.0415 41.7961 10.6054 42.4933 10.6054Z" fill="#282A4D"/>
<path fill-rule="evenodd" clip-rule="evenodd" d="M25.0634 40.4716C25.0634 41.1667 24.4977 41.7311 23.8011 41.7311C23.1045 41.7311 22.5388 41.1667 22.5388 40.4716C22.5388 39.7766 23.1045 39.2122 23.8011 39.2122C24.4977 39.2122 25.0634 39.7766 25.0634 40.4716Z" fill="#282A4D"/>
<path fill-rule="evenodd" clip-rule="evenodd" d="M25.0634 36.5813C25.0634 37.2763 24.4977 37.8408 23.8011 37.8408C23.1045 37.8408 22.5388 37.2763 22.5388 36.5813C22.5388 35.8862 23.1045 35.3218 23.8011 35.3218C24.4977 35.3218 25.0634 35.8862 25.0634 36.5813Z" fill="#282A4D"/>
<path fill-rule="evenodd" clip-rule="evenodd" d="M25.0634 32.6906C25.0634 33.3857 24.4977 33.9501 23.8011 33.9501C23.1045 33.9501 22.5388 33.3857 22.5388 32.6906C22.5388 31.9956 23.1045 31.4312 23.8011 31.4312C24.4977 31.4312 25.0634 31.9933 25.0634 32.6906Z" fill="#282A4D"/>
<path fill-rule="evenodd" clip-rule="evenodd" d="M25.0634 28.7981C25.0634 29.4931 24.4977 30.0575 23.8011 30.0575C23.1045 30.0575 22.5388 29.4931 22.5388 28.7981C22.5388 28.103 23.1045 27.5386 23.8011 27.5386C24.4977 27.5409 25.0634 28.103 25.0634 28.7981Z" fill="#282A4D"/>
<path fill-rule="evenodd" clip-rule="evenodd" d="M25.0634 24.9074C25.0634 25.6025 24.4977 26.1669 23.8011 26.1669C23.1045 26.1669 22.5388 25.6025 22.5388 24.9074C22.5388 24.2124 23.1045 23.6479 23.8011 23.6479C24.4977 23.6503 25.0634 24.2124 25.0634 24.9074Z" fill="#282A4D"/>
<path fill-rule="evenodd" clip-rule="evenodd" d="M25.0634 21.0171C25.0634 21.7121 24.4977 22.2765 23.8011 22.2765C23.1045 22.2765 22.5388 21.7121 22.5388 21.0171C22.5388 20.322 23.1045 19.7576 23.8011 19.7576C24.4977 19.7599 25.0634 20.322 25.0634 21.0171Z" fill="#282A4D"/>
<path d="M23.8011 2.8244C24.4983 2.8244 25.0634 2.26051 25.0634 1.56491C25.0634 0.869313 24.4983 0.30542 23.8011 0.30542C23.1039 0.30542 22.5388 0.869313 22.5388 1.56491C22.5388 2.26051 23.1039 2.8244 23.8011 2.8244Z" fill="#282A4D"/>
<path d="M23.8011 6.71502C24.4983 6.71502 25.0634 6.15113 25.0634 5.45553C25.0634 4.75994 24.4983 4.19604 23.8011 4.19604C23.1039 4.19604 22.5388 4.75994 22.5388 5.45553C22.5388 6.15113 23.1039 6.71502 23.8011 6.71502Z" fill="#282A4D"/>
<path d="M23.8011 10.6054C24.4983 10.6054 25.0634 10.0415 25.0634 9.34592C25.0634 8.65032 24.4983 8.08643 23.8011 8.08643C23.1039 8.08643 22.5388 8.65032 22.5388 9.34592C22.5388 10.0415 23.1039 10.6054 23.8011 10.6054Z" fill="#282A4D"/>
<path d="M23.8011 14.4958C24.4983 14.4958 25.0634 13.9319 25.0634 13.2363C25.0634 12.5407 24.4983 11.9768 23.8011 11.9768C23.1039 11.9768 22.5388 12.5407 22.5388 13.2363C22.5388 13.9319 23.1039 14.4958 23.8011 14.4958Z" fill="#282A4D"/>
<path d="M23.8011 18.3862C24.4983 18.3862 25.0634 17.8223 25.0634 17.1267C25.0634 16.4311 24.4983 15.8672 23.8011 15.8672C23.1039 15.8672 22.5388 16.4311 22.5388 17.1267C22.5388 17.8223 23.1039 18.3862 23.8011 18.3862Z" fill="#282A4D"/>
<path fill-rule="evenodd" clip-rule="evenodd" d="M28.8019 40.4716C28.8019 41.1667 28.2362 41.7311 27.5396 41.7311C26.8429 41.7311 26.2772 41.1667 26.2772 40.4716C26.2772 39.7766 26.8429 39.2122 27.5396 39.2122C28.2362 39.2122 28.8019 39.7766 28.8019 40.4716Z" fill="#282A4D"/>
<path fill-rule="evenodd" clip-rule="evenodd" d="M28.8019 36.5813C28.8019 37.2763 28.2362 37.8408 27.5396 37.8408C26.8429 37.8408 26.2772 37.2763 26.2772 36.5813C26.2772 35.8862 26.8429 35.3218 27.5396 35.3218C28.2362 35.3218 28.8019 35.8862 28.8019 36.5813Z" fill="#282A4D"/>
<path fill-rule="evenodd" clip-rule="evenodd" d="M28.8019 32.6906C28.8019 33.3857 28.2362 33.9501 27.5396 33.9501C26.8429 33.9501 26.2772 33.3857 26.2772 32.6906C26.2772 31.9956 26.8429 31.4312 27.5396 31.4312C28.2362 31.4312 28.8019 31.9933 28.8019 32.6906Z" fill="#282A4D"/>
<path fill-rule="evenodd" clip-rule="evenodd" d="M28.8019 28.7981C28.8019 29.4931 28.2362 30.0575 27.5396 30.0575C26.8429 30.0575 26.2772 29.4931 26.2772 28.7981C26.2772 28.103 26.8429 27.5386 27.5396 27.5386C28.2362 27.5409 28.8019 28.103 28.8019 28.7981Z" fill="#282A4D"/>
<path fill-rule="evenodd" clip-rule="evenodd" d="M28.8019 24.9074C28.8019 25.6025 28.2362 26.1669 27.5396 26.1669C26.8429 26.1669 26.2772 25.6025 26.2772 24.9074C26.2772 24.2124 26.8429 23.6479 27.5396 23.6479C28.2362 23.6503 28.8019 24.2124 28.8019 24.9074Z" fill="#282A4D"/>
<path fill-rule="evenodd" clip-rule="evenodd" d="M28.8019 21.0171C28.8019 21.7121 28.2362 22.2765 27.5396 22.2765C26.8429 22.2765 26.2772 21.7121 26.2772 21.0171C26.2772 20.322 26.8429 19.7576 27.5396 19.7576C28.2362 19.7599 28.8019 20.322 28.8019 21.0171Z" fill="#282A4D"/>
<path fill-rule="evenodd" clip-rule="evenodd" d="M28.8019 1.56491C28.8019 2.25996 28.2362 2.8244 27.5396 2.8244C26.8429 2.8244 26.2772 2.25996 26.2772 1.56491C26.2772 0.869858 26.8429 0.30542 27.5396 0.30542C28.2362 0.30542 28.8019 0.869858 28.8019 1.56491Z" fill="#282A4D"/>
<path fill-rule="evenodd" clip-rule="evenodd" d="M28.8019 5.45553C28.8019 6.15059 28.2362 6.71502 27.5396 6.71502C26.8429 6.71502 26.2772 6.15059 26.2772 5.45553C26.2772 4.76048 26.8429 4.19604 27.5396 4.19604C28.2362 4.19604 28.8019 4.76048 28.8019 5.45553Z" fill="#282A4D"/>
<path fill-rule="evenodd" clip-rule="evenodd" d="M28.8019 9.34592C28.8019 10.041 28.2362 10.6054 27.5396 10.6054C26.8429 10.6054 26.2772 10.041 26.2772 9.34592C26.2772 8.65086 26.8429 8.08643 27.5396 8.08643C28.2362 8.08643 28.8019 8.65086 28.8019 9.34592Z" fill="#282A4D"/>
<path fill-rule="evenodd" clip-rule="evenodd" d="M28.8019 13.2363C28.8019 13.9313 28.2362 14.4958 27.5396 14.4958C26.8429 14.4958 26.2772 13.9313 26.2772 13.2363C26.2772 12.5412 26.8429 11.9768 27.5396 11.9768C28.2362 11.9791 28.8019 12.5412 28.8019 13.2363Z" fill="#282A4D"/>
<path fill-rule="evenodd" clip-rule="evenodd" d="M28.8019 17.1267C28.8019 17.8217 28.2362 18.3862 27.5396 18.3862C26.8429 18.3862 26.2772 17.8217 26.2772 17.1267C26.2772 16.4316 26.8429 15.8672 27.5396 15.8672C28.2362 15.8695 28.8019 16.4316 28.8019 17.1267Z" fill="#282A4D"/>
<path fill-rule="evenodd" clip-rule="evenodd" d="M32.5395 40.4716C32.5395 41.1667 31.9738 41.7311 31.2772 41.7311C30.5805 41.7311 30.0148 41.1667 30.0148 40.4716C30.0148 39.7766 30.5805 39.2122 31.2772 39.2122C31.9738 39.2122 32.5395 39.7766 32.5395 40.4716Z" fill="#282A4D"/>
<path fill-rule="evenodd" clip-rule="evenodd" d="M32.5395 36.5813C32.5395 37.2763 31.9738 37.8408 31.2772 37.8408C30.5805 37.8408 30.0148 37.2763 30.0148 36.5813C30.0148 35.8862 30.5805 35.3218 31.2772 35.3218C31.9738 35.3218 32.5395 35.8862 32.5395 36.5813Z" fill="#282A4D"/>
<path fill-rule="evenodd" clip-rule="evenodd" d="M32.5395 32.6906C32.5395 33.3857 31.9738 33.9501 31.2772 33.9501C30.5805 33.9501 30.0148 33.3857 30.0148 32.6906C30.0148 31.9956 30.5805 31.4312 31.2772 31.4312C31.9738 31.4312 32.5395 31.9933 32.5395 32.6906Z" fill="#282A4D"/>
<path fill-rule="evenodd" clip-rule="evenodd" d="M32.5395 28.7981C32.5395 29.4931 31.9738 30.0575 31.2772 30.0575C30.5805 30.0575 30.0148 29.4931 30.0148 28.7981C30.0148 28.103 30.5805 27.5386 31.2772 27.5386C31.9738 27.5409 32.5395 28.103 32.5395 28.7981Z" fill="#282A4D"/>
<path fill-rule="evenodd" clip-rule="evenodd" d="M32.5395 24.9074C32.5395 25.6025 31.9738 26.1669 31.2772 26.1669C30.5805 26.1669 30.0148 25.6025 30.0148 24.9074C30.0148 24.2124 30.5805 23.6479 31.2772 23.6479C31.9738 23.6503 32.5395 24.2124 32.5395 24.9074Z" fill="#282A4D"/>
<path fill-rule="evenodd" clip-rule="evenodd" d="M32.5395 21.0171C32.5395 21.7121 31.9738 22.2765 31.2772 22.2765C30.5805 22.2765 30.0148 21.7121 30.0148 21.0171C30.0148 20.322 30.5805 19.7576 31.2772 19.7576C31.9738 19.7599 32.5395 20.322 32.5395 21.0171Z" fill="#282A4D"/>
<path d="M31.2772 2.8244C31.9743 2.8244 32.5395 2.26051 32.5395 1.56491C32.5395 0.869313 31.9743 0.30542 31.2772 0.30542C30.58 0.30542 30.0148 0.869313 30.0148 1.56491C30.0148 2.26051 30.58 2.8244 31.2772 2.8244Z" fill="#282A4D"/>
<path d="M31.2772 6.71502C31.9743 6.71502 32.5395 6.15113 32.5395 5.45553C32.5395 4.75994 31.9743 4.19604 31.2772 4.19604C30.58 4.19604 30.0148 4.75994 30.0148 5.45553C30.0148 6.15113 30.58 6.71502 31.2772 6.71502Z" fill="#282A4D"/>
<path d="M31.2772 10.6054C31.9743 10.6054 32.5395 10.0415 32.5395 9.34592C32.5395 8.65032 31.9743 8.08643 31.2772 8.08643C30.58 8.08643 30.0148 8.65032 30.0148 9.34592C30.0148 10.0415 30.58 10.6054 31.2772 10.6054Z" fill="#282A4D"/>
<path d="M31.2772 14.4958C31.9743 14.4958 32.5395 13.9319 32.5395 13.2363C32.5395 12.5407 31.9743 11.9768 31.2772 11.9768C30.58 11.9768 30.0148 12.5407 30.0148 13.2363C30.0148 13.9319 30.58 14.4958 31.2772 14.4958Z" fill="#282A4D"/>
<path d="M31.2772 18.3862C31.9743 18.3862 32.5395 17.8223 32.5395 17.1267C32.5395 16.4311 31.9743 15.8672 31.2772 15.8672C30.58 15.8672 30.0148 16.4311 30.0148 17.1267C30.0148 17.8223 30.58 18.3862 31.2772 18.3862Z" fill="#282A4D"/>
</svg>
