<svg width="68" height="67" viewBox="0 0 68 67" fill="none" xmlns="http://www.w3.org/2000/svg">
<g clip-path="url(#clip0)">
<path d="M12.7823 49.9871C9.02122 49.9871 5.86193 46.8253 5.86193 43.0613V37.6411C5.86193 33.877 9.02122 30.7152 12.7823 30.7152C16.5433 30.7152 19.7026 33.877 19.7026 37.6411V43.0613C19.7026 46.8253 16.5433 49.9871 12.7823 49.9871ZM12.7823 32.522C9.92388 32.522 7.66724 34.7804 7.66724 37.6411V43.0613C7.66724 45.922 9.92388 48.1804 12.7823 48.1804C15.6407 48.1804 17.8973 45.922 17.8973 43.0613V37.6411C17.8973 34.7804 15.4902 32.522 12.7823 32.522Z" fill="#005686"/>
<path d="M20.1593 67.0007H4.9646C2.25664 67.0007 0 64.7423 0 62.0322V56.4614C0 55.2569 0.752212 54.2029 2.10619 53.149C3.15929 52.0951 4.51327 51.4928 6.0177 51.0412L10.6814 49.6861C11.1327 49.6861 11.7345 49.8367 11.885 50.4389C12.0354 51.0412 11.7345 51.3423 11.1327 51.4928L6.46903 52.8479C5.26549 53.149 4.06195 53.7513 3.15929 54.5041C2.25664 55.1063 1.80531 55.8591 1.80531 56.4614V62.0322C1.80531 63.8389 3.15929 65.194 4.9646 65.194H20.1593C21.9646 65.194 23.3186 63.8389 23.3186 62.0322V56.4614C23.3186 55.8591 22.8673 55.2569 21.9646 54.5041C21.0619 53.7513 19.8584 53.149 18.6549 52.8479L14.1416 51.4928C13.6903 51.3423 13.3894 50.8906 13.5398 50.4389C13.5398 49.9872 14.1416 49.6861 14.5929 49.8367L19.1062 51.1917C20.6106 51.6434 21.9646 52.2456 23.0177 53.149C24.3717 54.2029 25.1239 55.4074 25.1239 56.4614V62.0322C25.1239 64.7423 22.8673 67.0007 20.1593 67.0007Z" fill="#005686"/>
<path d="M10.9811 51.4933C10.5298 51.4933 10.0785 51.0416 10.0785 50.5899V49.0843C10.0785 48.6326 10.5298 48.1809 10.9811 48.1809C11.4325 48.1809 11.8838 48.6326 11.8838 49.0843V50.5899C11.8838 51.1921 11.4325 51.4933 10.9811 51.4933Z" fill="#005686"/>
<path d="M14.2869 51.6438C13.8356 51.6438 13.3843 51.1921 13.3843 50.7405V49.0843C13.3843 48.6326 13.8356 48.1809 14.2869 48.1809C14.7382 48.1809 15.1896 48.6326 15.1896 49.0843V50.7405C15.1896 51.1921 14.8887 51.6438 14.2869 51.6438Z" fill="#005686"/>
<path d="M12.6377 57.8172C10.2306 57.8172 8.12442 55.2576 8.12442 52.0958C8.12442 51.7947 8.12442 51.343 8.27486 51.0419C8.27486 50.5902 8.87663 50.1385 9.32796 50.2891C9.77929 50.2891 10.2306 50.8913 10.0802 51.343C10.0802 51.6441 10.0802 51.7947 10.0802 52.0958C10.0802 54.2037 11.2837 56.0104 12.6377 56.0104C13.9917 56.0104 15.1952 54.2037 15.1952 52.0958C15.1952 51.7947 15.1952 51.4936 15.1952 51.343C15.1952 50.8913 15.4961 50.4396 15.9474 50.2891C16.3988 50.2891 16.8501 50.5902 17.0005 51.0419C17.0005 51.343 17.0005 51.7947 17.0005 52.0958C17.0005 55.2576 15.0448 57.8172 12.6377 57.8172Z" fill="#005686"/>
<path d="M14.8909 38.6953C14.2891 38.6953 13.5369 38.5447 12.9351 38.2436C12.1829 37.9425 11.7316 37.4908 11.4307 37.0391C11.1298 36.5874 10.9794 36.4369 10.528 36.4369C9.77582 36.1358 8.72273 36.8886 7.36875 38.2436C7.06786 38.5447 6.46609 38.6953 6.01476 38.2436C5.71388 37.9425 5.56344 37.3402 6.01476 36.8886C7.82007 35.0818 9.47494 34.329 10.9794 34.6301C11.882 34.7807 12.3333 35.3829 12.7847 35.8346C13.0856 36.1358 13.3864 36.4369 13.8378 36.5874C14.59 36.8886 15.7935 37.1897 18.2006 35.6841C18.6519 35.5335 19.1033 35.6841 19.4041 36.1358C19.705 36.4369 19.5546 37.0391 19.1033 37.3402C17.4484 38.2436 16.0944 38.6953 14.8909 38.6953Z" fill="#005686"/>
<path d="M55.5058 49.9871C51.7447 49.9871 48.5854 46.8253 48.5854 43.0613V37.6411C48.5854 33.877 51.7447 30.7152 55.5058 30.7152C59.2668 30.7152 62.4261 33.877 62.4261 37.6411V43.0613C62.4261 46.8253 59.4173 49.9871 55.5058 49.9871ZM55.5058 32.522C52.6474 32.522 50.3907 34.7804 50.3907 37.6411V43.0613C50.3907 45.922 52.6474 48.1804 55.5058 48.1804C58.3642 48.1804 60.6208 45.922 60.6208 43.0613V37.6411C60.6208 34.7804 58.3642 32.522 55.5058 32.522Z" fill="#005686"/>
<path d="M63.0296 67.0001H47.8349C45.1269 67.0001 42.8703 64.7416 42.8703 62.0315V56.4607C42.8703 55.2562 43.6225 54.2023 44.9765 53.1484C46.0296 52.245 47.3836 51.6428 48.888 51.1911L53.5517 49.836C54.003 49.6855 54.4544 49.836 54.6048 50.4383C54.7552 50.8899 54.4544 51.4922 54.003 51.4922L49.3393 52.8472C47.9853 53.1484 46.9322 53.7506 46.0296 54.5034C45.1269 55.1057 44.6756 55.8585 44.6756 56.4607V62.0315C44.6756 63.8383 46.0296 65.1933 47.8349 65.1933H63.0296C64.8349 65.1933 66.1889 63.8383 66.1889 62.0315V56.4607C66.1889 55.8585 65.7375 55.2562 64.8349 54.5034C63.7818 53.7506 62.7287 53.1484 61.5252 52.8472L57.0119 51.4922C56.4101 51.3416 56.1092 50.8899 56.2597 50.4383C56.4101 49.9866 56.8614 49.6855 57.4632 49.836L61.9765 51.1911C63.4809 51.6428 64.8349 52.245 65.888 53.1484C67.242 54.2023 67.9942 55.4068 67.9942 56.4607V62.0315C67.9942 64.7416 65.7375 67.0001 63.0296 67.0001Z" fill="#005686"/>
<path d="M53.7045 51.4933C53.2532 51.4933 52.8019 51.0416 52.8019 50.5899V49.0843C52.8019 48.6326 53.2532 48.1809 53.7045 48.1809C54.1559 48.1809 54.6072 48.6326 54.6072 49.0843V50.5899C54.6072 51.1921 54.3063 51.4933 53.7045 51.4933Z" fill="#005686"/>
<path d="M57.1572 51.6438C56.7059 51.6438 56.2546 51.1921 56.2546 50.7405V49.0843C56.2546 48.6326 56.7059 48.1809 57.1572 48.1809C57.6086 48.1809 58.0599 48.6326 58.0599 49.0843V50.7405C58.0599 51.1921 57.6086 51.6438 57.1572 51.6438Z" fill="#005686"/>
<path d="M55.3611 57.8172C52.9541 57.8172 50.8479 55.2576 50.8479 52.0958C50.8479 51.7947 50.8479 51.343 50.8479 51.0419C50.8479 50.5902 51.4496 50.1385 51.901 50.2891C52.3523 50.2891 52.8036 50.8913 52.6532 51.343C52.6532 51.6441 52.6532 51.9453 52.6532 52.0958C52.6532 54.2037 53.8567 56.0104 55.2107 56.0104C56.5647 56.0104 57.7682 54.2037 57.7682 52.0958C57.7682 51.7947 57.7682 51.4936 57.7682 51.343C57.7682 50.8913 58.0691 50.4396 58.5204 50.2891C58.9718 50.2891 59.4231 50.5902 59.5735 51.0419C59.5735 51.343 59.5735 51.7947 59.5735 52.0958C59.8744 55.2576 57.7682 57.8172 55.3611 57.8172Z" fill="#005686"/>
<path d="M57.7612 38.6953C57.1594 38.6953 56.4072 38.5447 55.8054 38.2436C55.0532 37.9425 54.6019 37.4908 54.301 37.0391C54.0001 36.5874 53.6992 36.4369 53.3983 36.4369C52.6461 36.1358 51.4426 36.8886 50.239 38.2436C49.9381 38.5447 49.3364 38.6953 48.8851 38.2436C48.5842 37.9425 48.4337 37.3402 48.8851 36.8886C50.6904 35.0818 52.3452 34.329 53.8497 34.6301C54.7523 34.7807 55.2036 35.3829 55.655 35.8346C55.9558 36.1358 56.2567 36.4369 56.5576 36.5874C57.3098 36.8886 58.5134 37.1897 60.9205 35.6841C61.3718 35.5335 61.9735 35.6841 62.2744 36.1358C62.5753 36.5874 62.4249 37.1897 61.9735 37.3402C60.3187 38.2436 58.9647 38.6953 57.7612 38.6953Z" fill="#005686"/>
<path d="M41.2242 11.2922H22.7197C22.2684 11.2922 21.8171 10.8405 21.8171 10.3888C21.8171 9.93716 22.2684 9.48547 22.7197 9.48547H41.2242C41.6755 9.48547 42.1268 9.93716 42.1268 10.3888C42.1268 10.9911 41.6755 11.2922 41.2242 11.2922Z" fill="#005686"/>
<path d="M33.702 16.863H22.7197C22.2684 16.863 21.8171 16.4113 21.8171 15.9596C21.8171 15.5079 22.2684 15.0562 22.7197 15.0562H33.5516C34.1534 15.0562 34.6047 15.5079 34.6047 15.9596C34.6047 16.4113 34.1534 16.863 33.702 16.863Z" fill="#005686"/>
<path d="M21.209 30.1124C21.209 30.1124 21.0585 30.1124 20.9081 30.1124C20.6072 29.9618 20.3063 29.6607 20.3063 29.209V22.7348C17.147 20.3258 15.1913 16.8629 15.1913 13.2494C15.1913 5.87191 22.7134 0 32.0408 0C41.2178 0 48.8904 5.87191 48.8904 13.2494C48.8904 20.627 41.3682 26.4989 32.0408 26.4989C30.0851 26.4989 28.1293 26.1978 26.324 25.7461L21.9612 29.8112C21.8107 30.1124 21.5098 30.1124 21.209 30.1124ZM22.1116 22.2831V27.1011L25.2709 23.9393C25.5718 23.6382 25.8727 23.6382 26.1736 23.7888C27.9789 24.391 29.9346 24.6921 31.8904 24.6921C40.1647 24.6921 46.7842 19.573 46.7842 13.2494C46.7842 6.92584 40.1647 1.80674 32.0408 1.80674C23.7665 1.80674 17.147 6.92584 17.147 13.2494C17.147 16.4112 18.9523 19.4225 21.9612 21.5303C22.1116 21.6809 22.2621 21.982 22.1116 22.2831Z" fill="#005686"/>
<path d="M46.9315 35.2321C46.6307 35.2321 46.4802 35.0816 46.3298 34.931L42.8696 31.6186C41.3652 32.0703 39.8608 32.2209 38.2059 32.2209C33.6926 32.2209 29.3298 30.4142 26.7723 27.5535C26.4714 27.1018 26.4714 26.4995 26.9227 26.1984C27.2236 25.8973 27.8254 25.8973 28.1262 26.349C30.3829 28.9085 34.1439 30.4142 38.2059 30.4142C39.8608 30.4142 41.3652 30.113 42.8696 29.6613C43.1705 29.5108 43.4714 29.6613 43.7723 29.8119L46.0289 32.0703V28.6074C46.0289 28.3063 46.1793 28.0052 46.4802 27.8546C48.8873 26.1984 50.2413 23.6389 50.2413 21.2299C50.2413 19.5737 49.6395 17.9175 48.436 16.5625C48.1351 16.1108 48.2855 15.5085 48.5864 15.2074C49.0377 14.9063 49.4891 15.0568 49.9404 15.358C51.2944 17.1647 52.0466 19.122 52.0466 21.2299C52.0466 24.2411 50.5422 27.1018 47.8342 29.0591V34.3288C47.8342 34.6299 47.6838 35.0816 47.2324 35.2321C47.2324 35.2321 47.082 35.2321 46.9315 35.2321Z" fill="#005686"/>
</g>
<defs>
<clipPath id="clip0">
<rect width="68" height="67" fill="white"/>
</clipPath>
</defs>
</svg>
