<svg width="6" height="10" viewBox="0 0 6 10" fill="none" xmlns="http://www.w3.org/2000/svg">
<path d="M2.36792 6.84888V6.53247C2.36792 6.07544 2.43823 5.70044 2.57886 5.40747C2.71948 5.1106 2.9812 4.7981 3.36401 4.46997C3.89526 4.02075 4.22925 3.68286 4.36597 3.4563C4.50659 3.22974 4.5769 2.9563 4.5769 2.63599C4.5769 2.23755 4.448 1.93091 4.19019 1.71606C3.93628 1.49731 3.56909 1.38794 3.08862 1.38794C2.78003 1.38794 2.47925 1.42505 2.18628 1.49927C1.89331 1.56958 1.55737 1.70044 1.17847 1.89185L0.832764 1.10083C1.57104 0.714111 2.34253 0.520752 3.14722 0.520752C3.89331 0.520752 4.47339 0.704346 4.88745 1.07153C5.30151 1.43872 5.50854 1.9563 5.50854 2.62427C5.50854 2.90942 5.46948 3.16138 5.39136 3.38013C5.31714 3.59497 5.20581 3.80005 5.05737 3.99536C4.90894 4.18677 4.58862 4.49731 4.09644 4.927C3.7019 5.26294 3.44019 5.54224 3.31128 5.76489C3.18628 5.98755 3.12378 6.28442 3.12378 6.65552V6.84888H2.36792ZM2.08081 8.58911C2.08081 8.05786 2.31519 7.79224 2.78394 7.79224C3.0105 7.79224 3.18433 7.8606 3.30542 7.99731C3.43042 8.13403 3.49292 8.3313 3.49292 8.58911C3.49292 8.83911 3.43042 9.03442 3.30542 9.17505C3.18042 9.31177 3.00659 9.38013 2.78394 9.38013C2.58081 9.38013 2.41284 9.31958 2.28003 9.19849C2.14722 9.07349 2.08081 8.87036 2.08081 8.58911Z" fill="#282A4C"/>
</svg>
