<svg width="30" height="28" viewBox="0 0 30 28" fill="none" xmlns="http://www.w3.org/2000/svg">
<path d="M22.9555 5.02126C22.6114 5.02126 22.275 5.11845 21.9888 5.30054C21.7027 5.48263 21.4797 5.74144 21.348 6.04424C21.2163 6.34704 21.1818 6.68024 21.249 7.00169C21.3161 7.32315 21.4818 7.61842 21.7252 7.85018C21.9685 8.08193 22.2785 8.23976 22.6161 8.3037C22.9536 8.36764 23.3035 8.33483 23.6214 8.2094C23.9393 8.08398 24.2111 7.87158 24.4023 7.59906C24.5935 7.32655 24.6955 7.00615 24.6955 6.6784C24.6955 6.2389 24.5122 5.8174 24.1859 5.50663C23.8596 5.19585 23.417 5.02126 22.9555 5.02126ZM29.6255 8.36316C29.5973 7.21739 29.372 6.08377 28.9585 5.00745C28.5898 4.08654 28.016 3.25264 27.2765 2.56316C26.5585 1.85532 25.6809 1.31226 24.71 0.975069C23.5829 0.569291 22.3913 0.349787 21.1865 0.326021C19.6495 0.243164 19.1565 0.243164 15.2125 0.243164C11.2685 0.243164 10.7755 0.243164 9.23852 0.326021C8.0338 0.349787 6.84217 0.569291 5.71502 0.975069C4.74596 1.31568 3.86908 1.85827 3.14852 2.56316C2.40529 3.24698 1.83508 4.08282 1.48102 5.00745C1.05496 6.08092 0.824479 7.2158 0.799524 8.36316C0.712524 9.82697 0.712524 10.2965 0.712524 14.0527C0.712524 17.8089 0.712524 18.2784 0.799524 19.7422C0.824479 20.8896 1.05496 22.0245 1.48102 23.0979C1.83508 24.0226 2.40529 24.8584 3.14852 25.5422C3.86908 26.2471 4.74596 26.7897 5.71502 27.1303C6.84217 27.5361 8.0338 27.7556 9.23852 27.7794C10.7755 27.8622 11.2685 27.8622 15.2125 27.8622C19.1565 27.8622 19.6495 27.8622 21.1865 27.7794C22.3913 27.7556 23.5829 27.5361 24.71 27.1303C25.6809 26.7931 26.5585 26.2501 27.2765 25.5422C28.0193 24.8553 28.5936 24.0207 28.9585 23.0979C29.372 22.0216 29.5973 20.888 29.6255 19.7422C29.6255 18.2784 29.7125 17.8089 29.7125 14.0527C29.7125 10.2965 29.7125 9.82697 29.6255 8.36316ZM27.0155 19.5765C27.005 20.4531 26.8383 21.3216 26.5225 22.1451C26.291 22.7461 25.9191 23.2891 25.435 23.7332C24.9647 24.1896 24.3957 24.543 23.7675 24.7689C22.9029 25.0696 21.9909 25.2283 21.0705 25.2384C19.6205 25.3074 19.084 25.3213 15.2705 25.3213C11.457 25.3213 10.9205 25.3213 9.47052 25.2384C8.51482 25.2554 7.56319 25.1153 6.65752 24.8241C6.05691 24.5867 5.51399 24.2342 5.06252 23.7884C4.58125 23.3448 4.21405 22.8013 3.98952 22.2003C3.63552 21.365 3.43917 20.4768 3.40952 19.5765C3.40952 18.1955 3.32252 17.6846 3.32252 14.0527C3.32252 10.4208 3.32252 9.90983 3.40952 8.52888C3.41602 7.63272 3.5878 6.74461 3.91702 5.90507C4.17229 5.32218 4.56411 4.8026 5.06252 4.38602C5.50305 3.91121 6.04749 3.53411 6.65752 3.28126C7.54137 2.97751 8.47292 2.81875 9.41253 2.81174C10.8625 2.81174 11.399 2.72888 15.2125 2.72888C19.026 2.72888 19.5625 2.72888 21.0125 2.81174C21.9329 2.82179 22.8449 2.98055 23.7095 3.28126C24.3684 3.51416 24.9599 3.89281 25.435 4.38602C25.9102 4.81022 26.2815 5.32884 26.5225 5.90507C26.8448 6.74598 27.0116 7.63372 27.0155 8.52888C27.088 9.90983 27.1025 10.4208 27.1025 14.0527C27.1025 17.6846 27.088 18.1955 27.0155 19.5765ZM15.2125 6.9684C13.7419 6.97113 12.3052 7.38894 11.0839 8.16903C9.86253 8.94912 8.91137 10.0565 8.35059 11.3512C7.78981 12.6459 7.64457 14.0699 7.93323 15.4432C8.22188 16.8165 8.93147 18.0775 9.97233 19.0669C11.0132 20.0563 12.3386 20.7296 13.7812 21.0018C15.2237 21.2741 16.7186 21.133 18.077 20.5964C19.4353 20.0598 20.5962 19.1518 21.4129 17.9871C22.2296 16.8224 22.6655 15.4532 22.6655 14.0527C22.6674 13.1207 22.4759 12.1975 22.1018 11.3363C21.7278 10.4751 21.1786 9.69276 20.486 9.03438C19.7933 8.376 18.9708 7.85453 18.0658 7.49997C17.1608 7.14541 16.1911 6.96476 15.2125 6.9684ZM15.2125 18.6513C14.2575 18.6513 13.324 18.3816 12.53 17.8763C11.7359 17.371 11.117 16.6528 10.7516 15.8125C10.3861 14.9722 10.2905 14.0476 10.4768 13.1556C10.6631 12.2635 11.123 11.4441 11.7983 10.801C12.4735 10.1579 13.3339 9.71991 14.2705 9.54248C15.2072 9.36504 16.178 9.45611 17.0603 9.80416C17.9426 10.1522 18.6967 10.7416 19.2273 11.4979C19.7578 12.2541 20.041 13.1432 20.041 14.0527C20.041 14.6566 19.9161 15.2546 19.6735 15.8125C19.4308 16.3704 19.0752 16.8774 18.6268 17.3044C18.1784 17.7314 17.6461 18.0701 17.0603 18.3012C16.4745 18.5323 15.8466 18.6513 15.2125 18.6513Z" fill="#FF8A00"/>
</svg>
