<svg width="32" height="30" viewBox="0 0 32 30" fill="none" xmlns="http://www.w3.org/2000/svg">
<rect x="0.989502" y="0.523315" width="29.6985" height="28.7954" rx="1.5" fill="white" stroke="#E1E1E1"/>
<path d="M26.2125 23.0608V23.1045H26.2529C26.2619 23.1045 26.2695 23.1024 26.275 23.099C26.2801 23.0956 26.2831 23.0897 26.2831 23.0824C26.2831 23.0752 26.2801 23.0697 26.275 23.0663C26.2695 23.0625 26.2619 23.0608 26.2529 23.0608H26.2125ZM26.2533 23.0301C26.2742 23.0301 26.2903 23.0348 26.3018 23.0442C26.3133 23.0535 26.3188 23.0663 26.3188 23.0824C26.3188 23.096 26.3146 23.1071 26.3052 23.116C26.2963 23.1245 26.2835 23.1301 26.2665 23.1322L26.3201 23.1938H26.2784L26.2287 23.1326H26.2125V23.1938H26.1777V23.0301H26.2533ZM26.2427 23.2504C26.2618 23.2504 26.2797 23.2465 26.2959 23.2393C26.3124 23.2321 26.3269 23.2223 26.3392 23.21C26.3516 23.1977 26.3613 23.1832 26.3686 23.1662C26.3754 23.1496 26.3792 23.1318 26.3792 23.1126C26.3792 23.0935 26.3754 23.0756 26.3686 23.0591C26.3613 23.0425 26.3516 23.0276 26.3392 23.0153C26.3269 23.0029 26.3124 22.9932 26.2959 22.9859C26.2797 22.9791 26.2618 22.9757 26.2427 22.9757C26.2236 22.9757 26.2053 22.9791 26.1887 22.9859C26.1717 22.9932 26.1568 23.0029 26.1445 23.0153C26.1322 23.0276 26.1224 23.0425 26.1156 23.0591C26.1084 23.0756 26.105 23.0935 26.105 23.1126C26.105 23.1318 26.1084 23.1496 26.1156 23.1662C26.1224 23.1832 26.1322 23.1977 26.1445 23.21C26.1568 23.2223 26.1717 23.2321 26.1887 23.2393C26.2053 23.2465 26.2236 23.2504 26.2427 23.2504ZM26.2427 22.9362C26.2678 22.9362 26.2908 22.9409 26.3129 22.9502C26.3346 22.9591 26.3533 22.9719 26.3698 22.988C26.386 23.0038 26.3988 23.0225 26.4081 23.0442C26.4175 23.0654 26.4221 23.0884 26.4221 23.1126C26.4221 23.1369 26.4175 23.1598 26.4081 23.1811C26.3988 23.2023 26.386 23.221 26.3698 23.2372C26.3533 23.2529 26.3346 23.2657 26.3129 23.275C26.2908 23.2844 26.2678 23.2891 26.2427 23.2891C26.2172 23.2891 26.1938 23.2844 26.1717 23.275C26.1496 23.2657 26.1305 23.2529 26.1143 23.2372C26.0982 23.221 26.0854 23.2023 26.0761 23.1811C26.0667 23.1598 26.062 23.1369 26.062 23.1126C26.062 23.0884 26.0667 23.0654 26.0761 23.0442C26.0854 23.0225 26.0982 23.0038 26.1143 22.988C26.1305 22.9719 26.1496 22.9591 26.1717 22.9502C26.1938 22.9409 26.2172 22.9362 26.2427 22.9362ZM9.67805 22.3057C9.67805 21.9936 9.88256 21.7372 10.2167 21.7372C10.536 21.7372 10.7516 21.9825 10.7516 22.3057C10.7516 22.6288 10.536 22.8741 10.2167 22.8741C9.88256 22.8741 9.67805 22.6177 9.67805 22.3057ZM11.1155 22.3057V21.4179H10.7295V21.6335C10.607 21.4736 10.4212 21.3733 10.1687 21.3733C9.67083 21.3733 9.28053 21.7636 9.28053 22.3057C9.28053 22.8482 9.67083 23.238 10.1687 23.238C10.4212 23.238 10.607 23.1377 10.7295 22.9778V23.1934H11.1155V22.3057ZM24.1611 22.3057C24.1611 21.9936 24.3656 21.7372 24.6998 21.7372C25.0195 21.7372 25.2347 21.9825 25.2347 22.3057C25.2347 22.6288 25.0195 22.8741 24.6998 22.8741C24.3656 22.8741 24.1611 22.6177 24.1611 22.3057ZM25.599 22.3057V20.7049H25.2126V21.6335C25.0901 21.4736 24.9043 21.3733 24.6518 21.3733C24.1539 21.3733 23.7636 21.7636 23.7636 22.3057C23.7636 22.8482 24.1539 23.238 24.6518 23.238C24.9043 23.238 25.0901 23.1377 25.2126 22.9778V23.1934H25.599V22.3057ZM15.9075 21.7189C16.1562 21.7189 16.3161 21.875 16.3569 22.1496H15.4356C15.4768 21.8933 15.6324 21.7189 15.9075 21.7189ZM15.9152 21.3733C15.3948 21.3733 15.0308 21.7521 15.0308 22.3057C15.0308 22.8703 15.4096 23.238 15.9411 23.238C16.2085 23.238 16.4534 23.1713 16.669 22.9893L16.4798 22.7032C16.331 22.8218 16.1413 22.889 15.9632 22.889C15.7145 22.889 15.4879 22.7738 15.4322 22.454H16.7506C16.7544 22.406 16.7582 22.3575 16.7582 22.3057C16.7544 21.7521 16.4126 21.3733 15.9152 21.3733ZM20.5766 22.3057C20.5766 21.9936 20.7811 21.7372 21.1153 21.7372C21.4346 21.7372 21.6501 21.9825 21.6501 22.3057C21.6501 22.6288 21.4346 22.8741 21.1153 22.8741C20.7811 22.8741 20.5766 22.6177 20.5766 22.3057ZM22.0141 22.3057V21.4179H21.628V21.6335C21.5052 21.4736 21.3198 21.3733 21.0672 21.3733C20.5694 21.3733 20.1791 21.7636 20.1791 22.3057C20.1791 22.8482 20.5694 23.238 21.0672 23.238C21.3198 23.238 21.5052 23.1377 21.628 22.9778V23.1934H22.0141V22.3057ZM18.3964 22.3057C18.3964 22.8443 18.7714 23.238 19.3436 23.238C19.6111 23.238 19.7892 23.1785 19.9822 23.0263L19.7969 22.7142C19.6519 22.8184 19.4997 22.8741 19.3322 22.8741C19.0239 22.8703 18.7973 22.6475 18.7973 22.3057C18.7973 21.9638 19.0239 21.7411 19.3322 21.7372C19.4997 21.7372 19.6519 21.7929 19.7969 21.8971L19.9822 21.585C19.7892 21.4328 19.6111 21.3733 19.3436 21.3733C18.7714 21.3733 18.3964 21.767 18.3964 22.3057ZM23.3737 21.3733C23.151 21.3733 23.006 21.4775 22.9056 21.6335V21.4179H22.523V23.1934H22.9095V22.1981C22.9095 21.9043 23.0357 21.7411 23.2883 21.7411C23.3665 21.7411 23.4481 21.7521 23.5298 21.7857L23.6488 21.4218C23.5634 21.3882 23.452 21.3733 23.3737 21.3733ZM13.0249 21.5591C12.8391 21.4366 12.5832 21.3733 12.3009 21.3733C11.851 21.3733 11.5615 21.5888 11.5615 21.9417C11.5615 22.2313 11.7771 22.4098 12.1742 22.4655L12.3566 22.4915C12.5683 22.5212 12.6682 22.5769 12.6682 22.6773C12.6682 22.8146 12.5271 22.8928 12.2635 22.8928C11.996 22.8928 11.803 22.8074 11.6729 22.707L11.4909 23.0076C11.7027 23.1636 11.9701 23.238 12.2596 23.238C12.7724 23.238 13.0696 22.9966 13.0696 22.6586C13.0696 22.3465 12.8357 22.1832 12.4492 22.1275L12.2673 22.1012C12.1002 22.0791 11.9663 22.0459 11.9663 21.9268C11.9663 21.7968 12.0925 21.7189 12.3043 21.7189C12.5309 21.7189 12.7503 21.8044 12.8578 21.8712L13.0249 21.5591ZM18.0061 21.3733C17.7833 21.3733 17.6383 21.4775 17.5384 21.6335V21.4179H17.1558V23.1934H17.5418V22.1981C17.5418 21.9043 17.6681 21.7411 17.9206 21.7411C17.9989 21.7411 18.0805 21.7521 18.1621 21.7857L18.2812 21.4218C18.1957 21.3882 18.0843 21.3733 18.0061 21.3733ZM14.7115 21.4179H14.0802V20.8793H13.6899V21.4179H13.3298V21.7708H13.6899V22.5807C13.6899 22.9927 13.8497 23.238 14.3063 23.238C14.4739 23.238 14.6669 23.1862 14.7893 23.1007L14.6779 22.7699C14.5627 22.8367 14.4364 22.8703 14.3361 22.8703C14.1431 22.8703 14.0802 22.7512 14.0802 22.5731V21.7708H14.7115V21.4179ZM8.93913 23.1934V22.0791C8.93913 21.6594 8.6717 21.3771 8.24059 21.3733C8.01398 21.3695 7.78014 21.44 7.61645 21.6892C7.49401 21.4923 7.30098 21.3733 7.02973 21.3733C6.84011 21.3733 6.65474 21.429 6.50976 21.6369V21.4179H6.12329V23.1934H6.51316V22.2092C6.51316 21.9009 6.68408 21.7372 6.9481 21.7372C7.20447 21.7372 7.33415 21.9043 7.33415 22.2053V23.1934H7.72444V22.2092C7.72444 21.9009 7.90259 21.7372 8.15896 21.7372C8.42256 21.7372 8.54883 21.9043 8.54883 22.2053V23.1934H8.93913Z" fill="black"/>
<path d="M26.4518 17.2888V17.0289H26.384L26.3056 17.2074L26.2277 17.0289H26.1595V17.2888H26.2076V17.0928L26.2809 17.262H26.3308L26.4041 17.0924V17.2888H26.4518ZM26.0219 17.2888V17.0732H26.1088V17.0293H25.8872V17.0732H25.9741V17.2888H26.0219Z" fill="#F79410"/>
<path d="M18.764 18.4045H12.9131V7.8894H18.764V18.4045Z" fill="#FF5F00"/>
<path d="M13.2876 13.146C13.2876 11.013 14.2863 9.11296 15.8415 7.8885C14.7042 6.99311 13.2689 6.45869 11.709 6.45869C8.01601 6.45869 5.02246 9.45266 5.02246 13.146C5.02246 16.8394 8.01601 19.8334 11.709 19.8334C13.2689 19.8334 14.7042 19.2989 15.8415 18.4036C14.2863 17.1791 13.2876 15.2791 13.2876 13.146Z" fill="#EB001B"/>
<path d="M26.6544 13.146C26.6544 16.8394 23.6609 19.8334 19.9679 19.8334C18.408 19.8334 16.9727 19.2989 15.835 18.4036C17.3906 17.1791 18.3893 15.2791 18.3893 13.146C18.3893 11.013 17.3906 9.11296 15.835 7.8885C16.9727 6.99311 18.408 6.45869 19.9679 6.45869C23.6609 6.45869 26.6544 9.45266 26.6544 13.146Z" fill="#F79E1B"/>
</svg>
