<svg width="31" height="30" viewBox="0 0 31 30" fill="none" xmlns="http://www.w3.org/2000/svg">
<rect x="0.659424" y="0.523315" width="29.6985" height="28.7954" rx="1.5" fill="white" stroke="#E1E1E1"/>
<path d="M11.2373 23.2906V22.1765C11.2438 22.083 11.2303 21.9892 11.1977 21.9014C11.1651 21.8136 11.1142 21.7337 11.0483 21.6671C10.9824 21.6005 10.9031 21.5487 10.8156 21.5152C10.7281 21.4817 10.6345 21.4672 10.541 21.4727C10.4182 21.4647 10.2956 21.4897 10.1858 21.5452C10.0761 21.6008 9.98326 21.6847 9.91704 21.7884C9.85668 21.6878 9.7703 21.6054 9.66703 21.5499C9.56376 21.4943 9.44741 21.4677 9.33025 21.4727C9.22812 21.4675 9.12642 21.4892 9.03522 21.5354C8.94402 21.5817 8.86649 21.6509 8.81031 21.7364V21.5173H8.42407V23.2906H8.81403V22.3083C8.80539 22.2476 8.81036 22.1856 8.82859 22.127C8.84682 22.0684 8.87786 22.0146 8.91944 21.9694C8.96103 21.9243 9.01213 21.889 9.06905 21.866C9.12597 21.843 9.18728 21.833 9.24855 21.8367C9.5048 21.8367 9.63478 22.0038 9.63478 22.3046V23.2906H10.0247V22.3083C10.0168 22.2477 10.0222 22.186 10.0407 22.1277C10.0592 22.0694 10.0903 22.0159 10.1317 21.9709C10.1732 21.9259 10.224 21.8906 10.2806 21.8674C10.3372 21.8442 10.3982 21.8337 10.4593 21.8367C10.7229 21.8367 10.8492 22.0038 10.8492 22.3046V23.2906H11.2373ZM13.4099 22.4049V21.5191H13.02V21.7345C12.9545 21.65 12.8698 21.5823 12.7729 21.5371C12.676 21.4919 12.5697 21.4705 12.4629 21.4746C12.2166 21.4746 11.9805 21.5724 11.8064 21.7465C11.6322 21.9206 11.5344 22.1568 11.5344 22.403C11.5344 22.6493 11.6322 22.8854 11.8064 23.0595C11.9805 23.2337 12.2166 23.3315 12.4629 23.3315C12.5697 23.3356 12.676 23.3141 12.7729 23.2689C12.8698 23.2237 12.9545 23.156 13.02 23.0715V23.2869H13.4062L13.4099 22.4049ZM11.9745 22.4049C11.9807 22.3004 12.0172 22.2 12.0798 22.116C12.1423 22.032 12.228 21.9682 12.3263 21.9323C12.4246 21.8964 12.5313 21.8901 12.6332 21.9141C12.7351 21.9381 12.8277 21.9913 12.8997 22.0673C12.9718 22.1433 13.02 22.2387 13.0384 22.3417C13.0569 22.4447 13.0449 22.5509 13.0038 22.6472C12.9627 22.7434 12.8943 22.8256 12.8071 22.8835C12.7199 22.9414 12.6177 22.9726 12.513 22.9731C12.4391 22.9748 12.3656 22.9611 12.2973 22.9328C12.229 22.9045 12.1674 22.8623 12.1163 22.8088C12.0653 22.7553 12.026 22.6918 12.0009 22.6222C11.9759 22.5526 11.9656 22.4786 11.9708 22.4049H11.9745ZM21.6621 21.4764C21.7892 21.4761 21.9153 21.5 22.0335 21.547C22.1463 21.5922 22.2491 21.659 22.3361 21.7438C22.4221 21.8278 22.4903 21.9282 22.5367 22.0391C22.6337 22.2771 22.6337 22.5437 22.5367 22.7818C22.4903 22.8927 22.4221 22.9931 22.3361 23.0771C22.2491 23.1619 22.1463 23.2287 22.0335 23.2739C21.7886 23.3691 21.517 23.3691 21.2721 23.2739C21.1599 23.2288 21.0576 23.1619 20.9713 23.0771C20.8862 22.9928 20.8187 22.8924 20.7726 22.7818C20.6758 22.5437 20.6758 22.2772 20.7726 22.0391C20.8187 21.9285 20.8862 21.8281 20.9713 21.7438C21.0576 21.659 21.1599 21.5921 21.2721 21.547C21.3945 21.4962 21.5258 21.4704 21.6584 21.4708L21.6621 21.4764ZM21.6621 21.8478C21.5865 21.8468 21.5114 21.8606 21.4411 21.8887C21.3749 21.9152 21.3149 21.955 21.2647 22.0056C21.2135 22.0589 21.1737 22.1221 21.1477 22.1913C21.091 22.3396 21.091 22.5036 21.1477 22.6518C21.1736 22.7211 21.2135 22.7843 21.2647 22.8375C21.3149 22.8882 21.3749 22.928 21.4411 22.9545C21.5826 23.0099 21.7397 23.0099 21.8812 22.9545C21.9506 22.9289 22.0138 22.889 22.0669 22.8375C22.1182 22.7843 22.158 22.7211 22.1839 22.6518C22.2406 22.5036 22.2406 22.3396 22.1839 22.1913C22.158 22.1221 22.1182 22.0588 22.0669 22.0056C22.0138 21.9541 21.9506 21.9143 21.8812 21.8887C21.8111 21.8566 21.7354 21.8389 21.6584 21.8367L21.6621 21.8478ZM15.5082 22.4049C15.5082 21.8478 15.1628 21.4764 14.667 21.4764C14.4208 21.4799 14.186 21.581 14.0143 21.7575C13.8426 21.9341 13.7481 22.1716 13.7516 22.4179C13.755 22.6641 13.8562 22.8989 14.0327 23.0706C14.2093 23.2423 14.4468 23.3368 14.693 23.3333C14.9574 23.3424 15.2158 23.2538 15.4191 23.0845L15.2334 22.7985C15.0868 22.9161 14.9051 22.9815 14.7172 22.9842C14.5895 22.9952 14.4626 22.956 14.3634 22.8748C14.2642 22.7937 14.2006 22.677 14.1861 22.5497H15.5027C15.5082 22.5033 15.5082 22.4569 15.5082 22.4049ZM14.188 22.2489C14.1951 22.131 14.2477 22.0205 14.3346 21.9405C14.4215 21.8605 14.536 21.8173 14.654 21.8199C14.7118 21.8187 14.7693 21.8289 14.8232 21.8499C14.8771 21.8709 14.9263 21.9022 14.968 21.9422C15.0097 21.9823 15.0432 22.0301 15.0664 22.083C15.0896 22.136 15.1022 22.193 15.1034 22.2508L14.188 22.2489ZM17.133 21.9704C16.9635 21.8727 16.7716 21.8203 16.576 21.8181C16.3643 21.8181 16.238 21.8961 16.238 22.0261C16.238 22.156 16.3717 22.1783 16.5388 22.2006L16.7245 22.2266C17.1108 22.2823 17.3447 22.4457 17.3447 22.7577C17.3447 23.0697 17.0476 23.3371 16.537 23.3371C16.2633 23.3443 15.9945 23.2636 15.7701 23.1068L15.9558 22.806C16.1262 22.9324 16.3342 22.9978 16.5463 22.9917C16.8099 22.9917 16.9511 22.9137 16.9511 22.7763C16.9511 22.676 16.8508 22.6203 16.6391 22.5906L16.4534 22.5646C16.056 22.5089 15.8406 22.3306 15.8406 22.0409C15.8406 21.6881 16.1303 21.4727 16.5834 21.4727C16.837 21.4642 17.0877 21.5287 17.3057 21.6584L17.133 21.9704ZM18.99 21.8701H18.3605V22.6704C18.3605 22.8561 18.4236 22.9675 18.6167 22.9675C18.7373 22.9635 18.8548 22.929 18.9584 22.8673L19.0698 23.1978C18.925 23.2881 18.7577 23.3358 18.587 23.3352C18.1302 23.3352 17.9705 23.0901 17.9705 22.6778V21.8701H17.6103V21.5173H17.9705V20.9788H18.3605V21.5173H18.99V21.8701ZM20.3251 21.4727C20.4188 21.4731 20.5117 21.4894 20.5999 21.521L20.4811 21.8924C20.4043 21.8618 20.3223 21.8466 20.2397 21.8478C19.9871 21.8478 19.8683 22.0112 19.8683 22.3046V23.2981H19.482V21.5247H19.8646V21.7401C19.912 21.6587 19.9805 21.5916 20.0628 21.5458C20.1452 21.5 20.2384 21.4774 20.3325 21.4801L20.3251 21.4727ZM22.9954 23.0325C23.0195 23.0322 23.0435 23.0366 23.0659 23.0455C23.0872 23.0542 23.1068 23.0668 23.1235 23.0827C23.1398 23.0987 23.153 23.1176 23.1625 23.1384C23.1719 23.16 23.1767 23.1834 23.1767 23.2071C23.1767 23.2307 23.1719 23.2541 23.1625 23.2758C23.153 23.2966 23.1398 23.3155 23.1235 23.3315C23.1068 23.3473 23.0872 23.3599 23.0659 23.3686C23.0437 23.3784 23.0196 23.3835 22.9954 23.3835C22.9601 23.3832 22.9257 23.3729 22.8962 23.3539C22.8666 23.3348 22.843 23.3077 22.8282 23.2758C22.8189 23.2541 22.8141 23.2307 22.8141 23.2071C22.8141 23.1834 22.8189 23.1601 22.8282 23.1384C22.8377 23.1176 22.8509 23.0987 22.8672 23.0827C22.8839 23.0668 22.9035 23.0542 22.9248 23.0455C22.9443 23.0377 22.965 23.0333 22.9861 23.0325H22.9954ZM22.9954 23.3463C23.0139 23.3464 23.0322 23.3427 23.0492 23.3352C23.0652 23.3281 23.0797 23.318 23.0919 23.3055C23.1077 23.2896 23.1193 23.2702 23.1258 23.2488C23.1323 23.2274 23.1336 23.2047 23.1294 23.1828C23.1251 23.1608 23.1156 23.1403 23.1017 23.1228C23.0877 23.1054 23.0697 23.0916 23.0492 23.0827C23.0322 23.0752 23.0139 23.0715 22.9954 23.0715C22.9768 23.0716 22.9585 23.0754 22.9415 23.0827C22.9248 23.0895 22.9097 23.0996 22.8969 23.1124C22.8737 23.1377 22.8608 23.1708 22.8608 23.2052C22.8608 23.2396 22.8737 23.2727 22.8969 23.2981C22.9098 23.3111 22.9251 23.3214 22.942 23.3284C22.9589 23.3354 22.9771 23.339 22.9954 23.3389V23.3463ZM23.0065 23.1254C23.0238 23.1245 23.0409 23.1298 23.0548 23.1402C23.0605 23.1449 23.0649 23.1509 23.0678 23.1577C23.0707 23.1645 23.072 23.1719 23.0715 23.1792C23.0718 23.1854 23.0707 23.1915 23.0685 23.1973C23.0663 23.203 23.0628 23.2083 23.0585 23.2126C23.0477 23.2224 23.034 23.2283 23.0195 23.2293L23.0733 23.2906H23.0306L22.9805 23.2293H22.9638V23.2906H22.9285V23.1198L23.0065 23.1254ZM22.9656 23.1569V23.2015H23.0065C23.0138 23.2037 23.0215 23.2037 23.0288 23.2015C23.0301 23.1989 23.0308 23.196 23.0308 23.1931C23.0308 23.1902 23.0301 23.1874 23.0288 23.1848C23.0301 23.1822 23.0308 23.1793 23.0308 23.1764C23.0308 23.1735 23.0301 23.1707 23.0288 23.1681C23.0215 23.1659 23.0138 23.1659 23.0065 23.1681L22.9656 23.1569Z" fill="black"/>
<path d="M18.4328 7.98767H12.5835V18.4997H18.4328V7.98767Z" fill="#7673C0"/>
<path d="M12.9547 13.2451C12.9536 12.2325 13.183 11.233 13.6253 10.3222C14.0677 9.41146 14.7115 8.61327 15.508 7.98811C14.5218 7.21307 13.3374 6.73112 12.0903 6.59734C10.8432 6.46356 9.58355 6.68335 8.45541 7.23158C7.32728 7.77982 6.37614 8.63439 5.7107 9.69762C5.04527 10.7608 4.69238 11.9898 4.69238 13.2441C4.69238 14.4984 5.04527 15.7274 5.7107 16.7906C6.37614 17.8539 7.32728 18.7084 8.45541 19.2567C9.58355 19.8049 10.8432 20.0247 12.0903 19.8909C13.3374 19.7571 14.5218 19.2752 15.508 18.5002C14.7117 17.8752 14.0681 17.0773 13.6257 16.1669C13.1834 15.2564 12.9539 14.2573 12.9547 13.2451Z" fill="#EB001B"/>
<path d="M25.6862 17.3856V17.1776H25.7735V17.133H25.5525V17.1776H25.6398V17.393L25.6862 17.3856ZM26.1151 17.3856V17.1256H26.0483L25.9703 17.3113L25.8923 17.1256H25.8236V17.3856H25.8719V17.1906L25.9443 17.3596H25.9944L26.0669 17.1906V17.3874L26.1151 17.3856Z" fill="#00A1DF"/>
<path d="M26.323 13.2446C26.3227 14.4987 25.9697 15.7274 25.3042 16.7903C24.6388 17.8532 23.6877 18.7076 22.5598 19.2557C21.4318 19.8037 20.1724 20.0235 18.9255 19.8898C17.6786 19.7562 16.4944 19.2744 15.5083 18.4997C16.3042 17.8742 16.9477 17.0761 17.3902 16.1656C17.8326 15.2551 18.0626 14.256 18.0626 13.2437C18.0626 12.2314 17.8326 11.2323 17.3902 10.3218C16.9477 9.41129 16.3042 8.61318 15.5083 7.98766C16.4944 7.21238 17.6788 6.7302 18.926 6.59622C20.1732 6.46225 21.4329 6.6819 22.5612 7.23006C23.6895 7.77822 24.6408 8.63277 25.3063 9.69603C25.9719 10.7593 26.3248 11.9884 26.3249 13.2428L26.323 13.2446Z" fill="#00A1DF"/>
</svg>
