<svg width="23" height="16" viewBox="0 0 23 16" fill="none" xmlns="http://www.w3.org/2000/svg">
<rect x="7.47681" y="1.18774" width="14.4738" height="11.5183" rx="1" stroke="#282A4C" stroke-linecap="round" stroke-linejoin="round"/>
<path d="M1.4895 7.0472C1.4895 6.76032 1.61272 6.48725 1.82782 6.29742L4.19962 4.20432C4.38233 4.04308 4.61762 3.9541 4.8613 3.9541L6.47681 3.9541C7.02909 3.9541 7.47681 4.40182 7.47681 4.9541V11.706C7.47681 12.2583 7.02909 12.706 6.47681 12.706H2.4895C1.93722 12.706 1.4895 12.2583 1.4895 11.706V7.0472Z" stroke="#282A4C" stroke-linecap="round" stroke-linejoin="round"/>
<path d="M1.74341 7.6499C3.38567 7.6499 7.71116 7.6499 7.91348 7.6499" stroke="#282A4C"/>
<circle cx="6.16277" cy="12.706" r="2.19378" fill="white" stroke="#282A4C"/>
<circle cx="17.4079" cy="12.706" r="2.19378" fill="white" stroke="#282A4C"/>
</svg>
