<svg width="63" height="59" viewBox="0 0 63 59" fill="none" xmlns="http://www.w3.org/2000/svg">
<path d="M50.2223 58.9994H12.6023C12.0623 58.9994 11.5223 58.4598 11.5223 57.9201V52.164C11.5223 51.6244 12.0623 51.0848 12.6023 51.0848H50.2223C50.7623 51.0848 51.3023 51.6244 51.3023 52.164V58.1C51.3023 58.6397 50.7623 58.9994 50.2223 58.9994ZM13.6823 56.8409H49.1423V53.2433H13.6823V56.8409Z" fill="#005686"/>
<path d="M47.1587 53.064H15.6587C15.1187 53.064 14.5787 52.5244 14.5787 51.9848V46.2287C14.5787 45.689 15.1187 45.1494 15.6587 45.1494H26.0987V36.875C21.5987 34.5366 12.0587 27.3415 12.0587 10.4329C12.0587 6.11585 12.5987 3.05793 13.8587 0.539634C14.0387 0.179878 14.3987 0 14.7587 0H47.6987C48.0587 0 48.5987 0.179878 48.7787 0.539634C50.0387 3.05793 50.5787 6.11585 50.5787 10.4329C50.5787 27.7012 41.0387 34.7165 36.3587 37.0549V45.1494H47.1587C47.6987 45.1494 48.2387 45.689 48.2387 46.2287V52.1646C48.2387 52.7043 47.6987 53.064 47.1587 53.064ZM16.7387 50.9055H46.0787V47.3079H35.2787C34.5587 47.3079 34.1987 46.7683 34.1987 46.2287V36.3354C34.1987 35.9756 34.3787 35.6159 34.7387 35.436C38.8787 33.4573 48.4187 27.3415 48.4187 10.4329C48.4187 6.83537 48.0587 4.1372 47.1587 2.15854H15.4787C14.5787 4.1372 14.2187 6.83537 14.2187 10.4329C14.2187 26.9817 23.7587 33.4573 27.8987 35.2561C28.2587 35.436 28.4387 35.7957 28.4387 36.1555V46.0488C28.4387 46.5884 27.8987 47.128 27.3587 47.128H16.7387V50.9055Z" fill="#005686"/>
<path d="M16.7398 27.1624C16.7398 27.1624 16.5598 27.1624 16.7398 27.1624C10.6198 26.263 6.11981 23.7447 3.23981 19.9673C-1.08019 13.8514 0.179814 6.6563 0.179814 6.29655C0.359814 5.75691 0.719814 5.39716 1.25981 5.39716H13.1398C13.6798 5.39716 14.2198 5.93679 14.2198 6.47642C14.2198 7.01606 13.6798 7.55569 13.1398 7.55569H2.15981C1.97981 9.53435 1.97981 14.5709 5.03981 18.7081C7.55981 22.1258 11.5198 24.2843 16.9198 25.0039C17.4598 25.0039 17.8198 25.5435 17.8198 26.263C17.6398 26.8026 17.2798 27.1624 16.7398 27.1624Z" fill="#005686"/>
<path d="M46.256 27.1624C45.716 27.1624 45.356 26.8026 45.176 26.263C45.176 25.7234 45.536 25.1837 46.076 25.0039C51.476 24.2843 55.436 22.1258 57.956 18.5283C61.016 14.3911 60.836 9.53435 60.656 7.55569H49.676C49.136 7.55569 48.596 7.01606 48.596 6.47642C48.596 5.93679 49.136 5.39716 49.676 5.39716H61.556C62.096 5.39716 62.456 5.75691 62.636 6.29655C62.636 6.6563 63.896 13.8514 59.576 19.9673C56.876 23.7447 52.376 26.263 46.256 27.1624Z" fill="#005686"/>
<path d="M36.7193 25.7226C36.5393 25.7226 36.3593 25.7226 36.1793 25.5428L31.3193 22.305L26.4593 25.5428C26.0993 25.7226 25.5593 25.7226 25.1993 25.5428C24.8393 25.183 24.6593 24.8233 24.8393 24.2836L26.2793 18.7074L21.7793 15.1098C21.4193 14.7501 21.2393 14.3903 21.4193 14.0306C21.5993 13.4909 21.9593 13.3111 22.4993 13.1312L28.2593 12.7714L30.2393 7.37508C30.4193 7.19521 30.7793 6.83545 31.3193 6.83545C31.6793 6.83545 32.2193 7.19521 32.3993 7.55496L34.3793 12.9513L40.1393 13.3111C40.4993 13.3111 41.0393 13.6708 41.0393 14.0306C41.2193 14.3903 41.0393 14.93 40.6793 15.1098L36.1793 18.7074L37.7993 24.2836C37.9793 24.6434 37.7993 25.183 37.4393 25.3629C37.0793 25.5428 36.8993 25.7226 36.7193 25.7226ZM25.3793 15.2897L28.2593 17.6281C28.6193 17.808 28.7993 18.3476 28.6193 18.7074L27.7193 22.305L30.5993 20.1464C30.9593 19.9665 31.4993 19.9665 31.6793 20.1464L34.7393 22.1251L33.8393 18.5275C33.6593 18.1678 33.8393 17.6281 34.1993 17.4483L37.0793 15.1098L33.4793 14.93C33.1193 14.93 32.7593 14.5702 32.5793 14.2104L31.3193 10.9726L29.8793 14.3903C29.8793 14.7501 29.5193 14.93 28.9793 15.1098L25.3793 15.2897Z" fill="#005686"/>
</svg>
