<svg width="65" height="30" viewBox="0 0 65 30" fill="none" xmlns="http://www.w3.org/2000/svg">
<rect x="1.32935" y="0.523315" width="62.6134" height="28.7954" rx="1.5" fill="white" stroke="#E1E1E1"/>
<path d="M27.7496 23.23H23.5095L26.1616 6.81873H30.4015L27.7496 23.23Z" fill="#101362"/>
<path d="M43.1205 7.21994C42.2842 6.88788 40.9577 6.52124 39.3175 6.52124C35.1302 6.52124 32.1816 8.75586 32.1635 11.9507C32.1288 14.3078 34.2747 15.617 35.8796 16.403C37.5201 17.2061 38.0777 17.7303 38.0777 18.4462C38.061 19.5456 36.7521 20.0524 35.5314 20.0524C33.8385 20.0524 32.9315 19.7911 31.553 19.1794L30.9947 18.9172L30.4014 22.6012C31.3958 23.0546 33.228 23.457 35.1302 23.4746C39.5792 23.4746 42.4757 21.2746 42.51 17.87C42.5269 16.0018 41.3938 14.5703 38.9509 13.4005C37.4679 12.6496 36.5597 12.1433 36.5597 11.375C36.5771 10.6765 37.3278 9.96111 39.0019 9.96111C40.3803 9.92607 41.3931 10.2577 42.1604 10.5895L42.5439 10.7638L43.1205 7.21994Z" fill="#101362"/>
<path d="M48.7564 17.4161C49.1056 16.4733 50.4493 12.8243 50.4493 12.8243C50.4316 12.8594 50.7978 11.8641 51.0071 11.2532L51.3035 12.6672C51.3035 12.6672 52.1064 16.5956 52.2808 17.4161C51.6181 17.4161 49.5939 17.4161 48.7564 17.4161ZM53.9903 6.81873H50.7106C49.6992 6.81873 48.9308 7.11528 48.4944 8.18038L42.1963 23.2298H46.6453C46.6453 23.2298 47.3778 21.2043 47.5352 20.768C48.0233 20.768 52.3512 20.768 52.9791 20.768C53.1009 21.3442 53.4851 23.2298 53.4851 23.2298H57.411L53.9903 6.81873Z" fill="#101362"/>
<path d="M19.9675 6.81873L15.815 18.0097L15.3612 15.74C14.5935 13.1211 12.1859 10.2758 9.49902 8.86097L13.3025 23.2126H17.7863L24.451 6.81873H19.9675Z" fill="#101362"/>
<path d="M11.9596 6.81934H5.13766L5.06787 7.15093C10.3894 8.51282 13.9137 11.7956 15.3617 15.7413L13.8787 8.19886C13.6346 7.1507 12.8842 6.85391 11.9596 6.81934Z" fill="#101362"/>
</svg>
