<svg width="35" height="20" viewBox="0 0 35 20" fill="none" xmlns="http://www.w3.org/2000/svg">
<path d="M33.2855 16.097C32.2597 14.8667 31.0526 13.8166 29.9105 12.7016C28.8801 11.6966 28.8151 11.1136 29.6434 9.9536C30.5474 8.68758 31.5196 7.47011 32.4318 6.2098C33.2833 5.03197 34.1537 3.85734 34.6018 2.44708C34.886 1.54987 34.6347 1.15357 33.7146 0.996477C33.5561 0.968986 33.3922 0.967558 33.2308 0.967558L27.7722 0.961131C27.0999 0.951135 26.7283 1.24425 26.4905 1.84013C26.1695 2.64559 25.8386 3.45033 25.4562 4.22758C24.5886 5.98987 23.6196 7.69326 22.2611 9.13565C21.9616 9.45376 21.6303 9.85578 21.1297 9.69012C20.5035 9.46162 20.3189 8.42981 20.3293 8.08099L20.3239 1.78051C20.2025 0.880443 20.0029 0.479143 19.1093 0.304199L13.439 0.30527C12.6821 0.30527 12.3025 0.597676 11.8984 1.0711C11.6652 1.34458 11.5949 1.52202 12.074 1.61271C13.0152 1.79122 13.5454 2.40031 13.686 3.34394C13.9117 4.85167 13.896 6.36547 13.766 7.87927C13.7278 8.32127 13.6518 8.7622 13.4765 9.17492C13.2023 9.82364 12.7595 9.95575 12.1779 9.55659C11.6513 9.19528 11.2814 8.68544 10.9194 8.17346C9.5595 6.25193 8.47449 4.17974 7.58977 2.00223C7.33414 1.37314 6.89321 0.991835 6.22664 0.981482C4.58895 0.955419 2.9509 0.951134 1.31321 0.98291C0.327817 1.00148 0.0339826 1.47989 0.435282 2.37318C2.219 6.34083 4.20443 10.1982 6.7961 13.712C8.12674 15.5154 9.65447 17.1074 11.6281 18.2356C13.8649 19.5145 16.2727 19.8993 18.8087 19.7808C19.9961 19.7251 20.3528 19.4163 20.4078 18.2327C20.4449 17.423 20.5367 16.6179 20.9362 15.8903C21.3282 15.1762 21.922 15.0402 22.6064 15.4843C22.9488 15.7068 23.2372 15.9899 23.5097 16.2884C24.178 17.0195 24.8225 17.7729 25.5162 18.4794C26.3862 19.3649 27.417 19.8879 28.713 19.7812L33.73 19.7822C34.5383 19.7294 34.9574 18.7383 34.4933 17.8361C34.1673 17.2041 33.7396 16.6415 33.2855 16.097Z" fill="#FF8A00"/>
</svg>
