<svg width="40" height="41" viewBox="0 0 40 41" fill="none" xmlns="http://www.w3.org/2000/svg">
<rect x="0.5" y="0.863037" width="39" height="39" rx="8.5" fill="white" stroke="#C5C5C5"/>
<path d="M24.7344 21.3142L24.7276 21.3711C23.0587 20.5393 22.8841 20.4285 22.6686 20.7518C22.5191 20.9757 22.0835 21.4835 21.9522 21.6337C21.8193 21.7817 21.6873 21.7931 21.4619 21.6906C21.2342 21.5768 20.5033 21.3377 19.6381 20.5636C18.9642 19.9603 18.5119 19.2203 18.3783 18.9926C18.1559 18.6086 18.6212 18.5539 19.0446 17.7525C19.1205 17.5931 19.0818 17.4679 19.0257 17.3548C18.9688 17.241 18.5157 16.1253 18.3259 15.6806C18.1438 15.2374 17.9563 15.2935 17.8159 15.2935C17.3788 15.2556 17.0593 15.2616 16.7777 15.5546C15.5528 16.901 15.8616 18.2898 16.9097 19.7667C18.9695 22.4625 20.0669 22.9588 22.0736 23.648C22.6155 23.8202 23.1095 23.7959 23.5004 23.7398C23.936 23.6707 24.8415 23.1926 25.0304 22.6575C25.224 22.1225 25.224 21.6785 25.167 21.576C25.1109 21.4736 24.9621 21.4167 24.7344 21.3142Z" fill="#4CAF50"/>
<path d="M27.0208 13.0732C21.1853 7.43202 11.5277 11.5235 11.5239 19.4817C11.5239 21.0725 11.9406 22.6238 12.7344 23.9937L11.4473 28.6703L16.2552 27.4165C22.2546 30.6572 29.6588 26.354 29.6619 19.4863C29.6619 17.0759 28.7208 14.8074 27.0094 13.1028L27.0208 13.0732ZM28.1455 19.4613C28.141 25.2543 21.7818 28.8721 16.7523 25.9153L16.4791 25.7529L13.633 26.4929L14.3958 23.7265L14.2144 23.4419C11.0845 18.4595 14.6804 11.9477 20.6092 11.9477C22.6234 11.9477 24.514 12.7332 25.9378 14.1563C27.3608 15.5671 28.1455 17.4577 28.1455 19.4613Z" fill="#4CAF50"/>
</svg>
