<svg width="41" height="41" viewBox="0 0 41 41" fill="none" xmlns="http://www.w3.org/2000/svg">
<rect x="1.24573" y="0.863037" width="39" height="39" rx="8.5" fill="white" stroke="#C5C5C5"/>
<path d="M29.6173 22.1235C30.2069 17.1613 29.3341 14.0285 27.7599 12.6115L27.7607 12.6107C25.2199 10.1909 16.6391 9.8328 13.5994 12.7194C12.2343 14.1314 11.7535 16.2038 11.7008 18.7693C11.6481 21.3356 11.5855 26.143 16.0653 27.4472H16.0694L16.0653 29.4388C16.0653 29.4388 16.0348 30.2457 16.5502 30.4079C17.1397 30.5989 17.4065 30.2243 19.24 28.0342C22.3061 28.3002 24.6609 27.6909 24.9285 27.602C25.5476 27.3945 29.0509 26.931 29.6173 22.1235ZM19.5422 26.6329C19.5422 26.6329 17.6016 29.0527 16.9981 29.6809C16.8005 29.8851 16.584 29.8662 16.5873 29.4611C16.5873 29.1951 16.6021 26.1546 16.6021 26.1546C12.804 25.0661 13.028 20.9725 13.0692 18.831C13.1103 16.6887 13.5022 14.9342 14.6582 13.7527C17.325 11.2522 24.8478 11.8113 26.7645 13.6127C29.1077 15.69 28.2737 21.5587 28.2786 21.7588C27.797 25.7717 24.9581 26.0261 24.4361 26.1999C24.213 26.274 22.1423 26.8067 19.5422 26.6329Z" fill="#8E24AA"/>
<path d="M20.6158 14.2229C20.2989 14.2229 20.2989 14.7169 20.6158 14.721C23.0751 14.74 25.1005 16.4541 25.1228 19.5984C25.1228 19.9303 25.6085 19.9261 25.6044 19.5943H25.6036C25.5772 16.2063 23.3658 14.2418 20.6158 14.2229Z" fill="#8E24AA"/>
<path d="M23.8507 19.0772C23.8433 19.4049 24.3283 19.4205 24.3324 19.0887C24.3727 17.2206 23.2209 15.6818 21.0563 15.5196C20.7393 15.4965 20.7064 15.9946 21.0226 16.0177C22.8998 16.1601 23.8886 17.4412 23.8507 19.0772Z" fill="#8E24AA"/>
<path d="M23.332 21.2022C22.9253 20.9667 22.5111 21.1133 22.3399 21.3446L21.9817 21.8082C21.7998 22.0436 21.4598 22.0123 21.4598 22.0123C18.9782 21.3561 18.3146 18.7593 18.3146 18.7593C18.3146 18.7593 18.2842 18.4078 18.5114 18.2192L18.9593 17.8487C19.1832 17.6709 19.3248 17.2428 19.0968 16.822C18.4875 15.7212 18.0783 15.3417 17.87 15.0502C17.651 14.7761 17.3217 14.7143 16.9792 14.8996H16.9718C16.2596 15.3162 15.4799 16.0959 15.7293 16.8986C16.155 17.745 16.9372 20.4431 19.4302 22.4816C20.6018 23.4458 22.456 24.4338 23.2431 24.6618L23.2505 24.6734C24.0261 24.9319 24.7803 24.1217 25.1829 23.3881V23.3824C25.3615 23.0275 25.3023 22.6916 25.0413 22.4718C24.5785 22.0206 23.8804 21.5225 23.332 21.2022Z" fill="#8E24AA"/>
<path d="M21.3955 17.3573C22.1868 17.4034 22.5704 17.8167 22.6116 18.6656C22.6264 18.9974 23.1081 18.9743 23.0933 18.6425C23.0406 17.5343 22.4626 16.9168 21.4219 16.8592C21.1049 16.8402 21.0753 17.3383 21.3955 17.3573Z" fill="#8E24AA"/>
</svg>
