<svg width="65" height="30" viewBox="0 0 65 30" fill="none" xmlns="http://www.w3.org/2000/svg">
<rect x="0.915283" y="0.523315" width="62.6134" height="28.7954" rx="1.5" fill="white" stroke="#E1E1E1"/>
<path fill-rule="evenodd" clip-rule="evenodd" d="M19.9417 7.33252V7.33911C19.9351 7.33911 17.8534 7.33252 17.2983 9.31502C16.7895 11.1329 15.3555 16.1517 15.3158 16.29H14.9193C14.9193 16.29 13.4522 11.1592 12.9368 9.30843C12.3817 7.32593 10.2934 7.33252 10.2934 7.33252H5.5354V22.4153H10.2934V13.4578H10.4917H10.6899L13.4655 22.4153H16.7696L19.5452 13.4644H19.9417V22.4153H24.6997V7.33252H19.9417Z" fill="#4DB45E"/>
<path fill-rule="evenodd" clip-rule="evenodd" d="M37.3212 7.33228C37.3212 7.33228 35.9268 7.45742 35.2726 8.91301L31.9023 16.2897H31.5058V7.33228H26.7478V22.4151H31.2415C31.2415 22.4151 32.702 22.2833 33.3562 20.8343L36.6604 13.4576H37.0569V22.4151H41.8149V7.33228H37.3212Z" fill="#4DB45E"/>
<path fill-rule="evenodd" clip-rule="evenodd" d="M43.9299 14.1823V22.4152H48.688V17.6072H53.8425C56.0894 17.6072 57.9926 16.1779 58.6997 14.1823H43.9299Z" fill="#4DB45E"/>
<path fill-rule="evenodd" clip-rule="evenodd" d="M53.8422 7.33228H43.2622C43.7909 10.2039 45.9518 12.5092 48.7472 13.26C49.3816 13.4313 50.049 13.5235 50.7363 13.5235H58.891C58.9637 13.181 58.9968 12.8319 58.9968 12.4696C58.9968 9.63092 56.6904 7.33228 53.8422 7.33228Z" fill="url(#paint0_linear)"/>
<defs>
<linearGradient id="paint0_linear" x1="43.2635" y1="10.4279" x2="58.9968" y2="10.4279" gradientUnits="userSpaceOnUse">
<stop offset="0.3" stop-color="#00B4E6"/>
<stop offset="1" stop-color="#088CCB"/>
</linearGradient>
</defs>
</svg>
